JetBrainsMoro-ExtraLight.ufo
<glyph name="exclam" format="2">
  <advance width="600.0"/>
  <unicode hex="0021"/>
  <outline>
    <contour>
      <point x="278.2" y="209.0" type="line"/>
      <point x="321.8" y="209.0" type="line"/>
      <point x="339.8" y="586.0" type="line"/>
      <point x="339.8" y="730.0" type="line"/>
      <point x="260.2" y="730.0" type="line"/>
      <point x="260.2" y="586.0" type="line"/>
    </contour>
    <contour>
      <point x="294.6" y="-5.0" type="curve" smooth="yes"/>
      <point x="309.6" y="-5.0" type="line" smooth="yes"/>
      <point x="343.4" y="-5.0"/>
      <point x="366.6" y="18.6"/>
      <point x="366.6" y="52.4" type="curve" smooth="yes"/>
      <point x="366.6" y="85.8"/>
      <point x="344.6" y="109.0"/>
      <point x="309.6" y="109.0" type="curve" smooth="yes"/>
      <point x="294.6" y="109.0" type="line" smooth="yes"/>
      <point x="260.8" y="109.0"/>
      <point x="237.6" y="85.8"/>
      <point x="237.6" y="52.0" type="curve" smooth="yes"/>
      <point x="237.6" y="18.2"/>
      <point x="260.8" y="-5.0"/>
    </contour>
  </outline>
</glyph>
<glyph name="quotedbl" format="2">
  <advance width="600.0"/>
  <unicode hex="0022"/>
  <outline>
    <contour>
      <point x="372.2" y="430.0" type="line"/>
      <point x="430.0" y="430.0" type="line"/>
      <point x="439.8" y="640.0" type="line"/>
      <point x="439.8" y="730.0" type="line"/>
      <point x="361.4" y="730.0" type="line"/>
      <point x="361.4" y="640.0" type="line"/>
    </contour>
    <contour>
      <point x="171.0" y="430.0" type="line"/>
      <point x="228.8" y="430.0" type="line"/>
      <point x="238.6" y="640.0" type="line"/>
      <point x="238.6" y="730.0" type="line"/>
      <point x="160.2" y="730.0" type="line"/>
      <point x="160.2" y="640.0" type="line"/>
    </contour>
  </outline>
</glyph>
<glyph name="dollar" format="2">
  <advance width="600.0"/>
  <unicode hex="0024"/>
  <outline>
    <contour>
      <point x="281.0" y="-140.0" type="line"/>
      <point x="329.0" y="-140.0" type="line"/>
      <point x="329.0" y="-9.0" type="line"/>
      <point x="445.4" y="0.0"/>
      <point x="520.2" y="73.4"/>
      <point x="520.2" y="182.2" type="curve" smooth="yes"/>
      <point x="520.2" y="280.6"/>
      <point x="461.2" y="358.8"/>
      <point x="362.4" y="389.8" type="curve" smooth="yes"/>
      <point x="329.0" y="400.4" type="line"/>
      <point x="329.0" y="679.6" type="line"/>
      <point x="401.0" y="670.8"/>
      <point x="444.6" y="620.8"/>
      <point x="444.6" y="546.8" type="curve"/>
      <point x="510.6" y="546.8" type="line"/>
      <point x="509.8" y="657.6"/>
      <point x="440.0" y="730.4"/>
      <point x="329.0" y="739.0" type="curve"/>
      <point x="329.0" y="870.0" type="line"/>
      <point x="281.0" y="870.0" type="line"/>
      <point x="281.0" y="738.6" type="line"/>
      <point x="169.6" y="730.0"/>
      <point x="99.8" y="659.6"/>
      <point x="99.8" y="553.8" type="curve" smooth="yes"/>
      <point x="99.8" y="457.6"/>
      <point x="156.4" y="384.4"/>
      <point x="254.0" y="354.6" type="curve" smooth="yes"/>
      <point x="281.0" y="346.6" type="line"/>
      <point x="281.0" y="50.400000000000006" type="line"/>
      <point x="197.0" y="58.2"/>
      <point x="145.8" y="109.6"/>
      <point x="145.8" y="187.0" type="curve"/>
      <point x="79.8" y="187.0" type="line"/>
      <point x="80.6" y="73.2"/>
      <point x="156.8" y="-0.7999999999999998"/>
      <point x="281.0" y="-9.0" type="curve"/>
    </contour>
    <contour>
      <point x="329.0" y="50.400000000000006" type="curve"/>
      <point x="329.0" y="331.8" type="line"/>
      <point x="344.0" y="327.2" type="line" smooth="yes"/>
      <point x="412.8" y="306.2"/>
      <point x="454.2" y="250.8"/>
      <point x="454.2" y="181.4" type="curve" smooth="yes"/>
      <point x="454.2" y="106.0"/>
      <point x="407.8" y="58.0"/>
    </contour>
    <contour>
      <point x="281.0" y="399.2" type="line"/>
      <point x="284.4" y="415.4" type="line"/>
      <point x="209.8" y="433.4"/>
      <point x="165.8" y="488.2"/>
      <point x="165.8" y="559.4" type="curve" smooth="yes"/>
      <point x="165.8" y="627.2"/>
      <point x="209.4" y="671.8"/>
      <point x="281.0" y="679.6" type="curve"/>
    </contour>
  </outline>
</glyph>
<glyph name="percent" format="2">
  <advance width="600.0"/>
  <unicode hex="0025"/>
  <outline>
    <contour>
      <point x="17.6" y="0.0" type="line"/>
      <point x="74.2" y="0.0" type="line"/>
      <point x="582.4" y="730.0" type="line"/>
      <point x="525.8" y="730.0" type="line"/>
    </contour>
    <contour>
      <point x="442.0" y="-5.0" type="curve" smooth="yes"/>
      <point x="522.4" y="-5.0"/>
      <point x="573.2" y="45.4"/>
      <point x="573.2" y="127.0" type="curve" smooth="yes"/>
      <point x="573.2" y="198.0" type="line" smooth="yes"/>
      <point x="573.2" y="279.6"/>
      <point x="522.4" y="330.0"/>
      <point x="442.0" y="330.0" type="curve" smooth="yes"/>
      <point x="361.6" y="330.0"/>
      <point x="310.8" y="279.6"/>
      <point x="310.8" y="198.0" type="curve" smooth="yes"/>
      <point x="310.8" y="127.0" type="line" smooth="yes"/>
      <point x="310.8" y="45.4"/>
      <point x="361.6" y="-5.0"/>
    </contour>
    <contour>
      <point x="442.0" y="47.8" type="curve" smooth="yes"/>
      <point x="392.6" y="47.8"/>
      <point x="366.8" y="74.8"/>
      <point x="366.8" y="127.0" type="curve" smooth="yes"/>
      <point x="366.8" y="198.0" type="line" smooth="yes"/>
      <point x="366.8" y="250.2"/>
      <point x="392.6" y="277.6"/>
      <point x="442.0" y="277.6" type="curve" smooth="yes"/>
      <point x="491.4" y="277.6"/>
      <point x="517.2" y="250.2"/>
      <point x="517.2" y="198.0" type="curve" smooth="yes"/>
      <point x="517.2" y="127.0" type="line" smooth="yes"/>
      <point x="517.2" y="74.8"/>
      <point x="491.4" y="47.8"/>
    </contour>
    <contour>
      <point x="158.0" y="400.0" type="curve" smooth="yes"/>
      <point x="238.4" y="400.0"/>
      <point x="289.2" y="450.4"/>
      <point x="289.2" y="532.0" type="curve" smooth="yes"/>
      <point x="289.2" y="603.0" type="line" smooth="yes"/>
      <point x="289.2" y="684.6"/>
      <point x="238.4" y="735.0"/>
      <point x="158.0" y="735.0" type="curve" smooth="yes"/>
      <point x="78.2" y="735.0"/>
      <point x="26.799999999999997" y="684.6"/>
      <point x="26.799999999999997" y="603.0" type="curve" smooth="yes"/>
      <point x="26.799999999999997" y="532.0" type="line" smooth="yes"/>
      <point x="26.799999999999997" y="450.4"/>
      <point x="78.2" y="400.0"/>
    </contour>
    <contour>
      <point x="158.0" y="452.4" type="curve" smooth="yes"/>
      <point x="109.6" y="452.4"/>
      <point x="82.8" y="479.8"/>
      <point x="82.8" y="532.0" type="curve" smooth="yes"/>
      <point x="82.8" y="603.0" type="line" smooth="yes"/>
      <point x="82.8" y="655.2"/>
      <point x="109.6" y="682.6"/>
      <point x="158.0" y="682.6" type="curve" smooth="yes"/>
      <point x="207.0" y="682.6"/>
      <point x="233.2" y="655.2"/>
      <point x="233.2" y="603.0" type="curve" smooth="yes"/>
      <point x="233.2" y="532.0" type="line" smooth="yes"/>
      <point x="233.2" y="479.8"/>
      <point x="207.0" y="452.4"/>
    </contour>
  </outline>
</glyph>
<glyph name="ampersand" format="2">
  <advance width="600.0"/>
  <unicode hex="0026"/>
  <outline>
    <contour>
      <point x="224.0" y="-10.0" type="curve" smooth="yes"/>
      <point x="298.0" y="-10.0"/>
      <point x="362.6" y="29.4"/>
      <point x="411.8" y="105.6" type="curve"/>
      <point x="491.6" y="0.0" type="line"/>
      <point x="563.0" y="0.0" type="line"/>
      <point x="444.2" y="161.0" type="line"/>
      <point x="553.0" y="360.0" type="line"/>
      <point x="485.4" y="360.0" type="line"/>
      <point x="405.4" y="213.8" type="line"/>
      <point x="228.6" y="453.8" type="line" smooth="yes"/>
      <point x="195.8" y="498.0"/>
      <point x="176.0" y="541.8"/>
      <point x="176.0" y="579.6" type="curve" smooth="yes"/>
      <point x="176.0" y="636.6"/>
      <point x="218.8" y="681.8"/>
      <point x="281.0" y="681.8" type="curve" smooth="yes"/>
      <point x="347.4" y="681.8"/>
      <point x="392.6" y="633.0"/>
      <point x="392.6" y="569.6" type="curve"/>
      <point x="458.6" y="569.6" type="line"/>
      <point x="458.6" y="669.8"/>
      <point x="389.2" y="740.0"/>
      <point x="281.0" y="740.0" type="curve" smooth="yes"/>
      <point x="178.4" y="740.0"/>
      <point x="110.0" y="672.8"/>
      <point x="110.0" y="580.4" type="curve" smooth="yes"/>
      <point x="110.0" y="531.8"/>
      <point x="129.2" y="481.6"/>
      <point x="177.4" y="419.0" type="curve" smooth="yes"/>
      <point x="182.6" y="425.8" type="line"/>
      <point x="105.6" y="412.4"/>
      <point x="61.0" y="356.0"/>
      <point x="61.0" y="271.6" type="curve" smooth="yes"/>
      <point x="61.0" y="155.0" type="line" smooth="yes"/>
      <point x="61.0" y="52.0"/>
      <point x="122.8" y="-10.0"/>
    </contour>
    <contour>
      <point x="229.0" y="49.0" type="curve" smooth="yes"/>
      <point x="167.2" y="49.0"/>
      <point x="127.0" y="90.8"/>
      <point x="127.0" y="155.0" type="curve" smooth="yes"/>
      <point x="127.0" y="271.6" type="line" smooth="yes"/>
      <point x="127.0" y="331.2"/>
      <point x="158.2" y="369.6"/>
      <point x="210.6" y="374.8" type="curve"/>
      <point x="373.8" y="156.8" type="line"/>
      <point x="335.8" y="87.0"/>
      <point x="283.6" y="49.0"/>
    </contour>
  </outline>
</glyph>
<glyph name="quotesingle" format="2">
  <advance width="600.0"/>
  <unicode hex="0027"/>
  <outline>
    <contour>
      <point x="269.4" y="430.0" type="line"/>
      <point x="327.2" y="430.0" type="line"/>
      <point x="337.0" y="568.0" type="line"/>
      <point x="337.0" y="730.0" type="line"/>
      <point x="258.6" y="730.0" type="line"/>
      <point x="258.6" y="568.0" type="line"/>
    </contour>
  </outline>
</glyph>
<glyph name="parenleft" format="2">
  <advance width="600.0"/>
  <unicode hex="0028"/>
  <outline>
    <contour>
      <point x="485.0" y="-120.0" type="curve"/>
      <point x="485.0" y="-56.8" type="line"/>
      <point x="347.6" y="-23.2"/>
      <point x="266.0" y="96.4"/>
      <point x="266.0" y="264.0" type="curve" smooth="yes"/>
      <point x="266.0" y="456.0" type="line" smooth="yes"/>
      <point x="266.0" y="624.4"/>
      <point x="348.0" y="744.8"/>
      <point x="485.0" y="778.4" type="curve"/>
      <point x="485.0" y="840.0" type="line"/>
      <point x="306.0" y="795.8"/>
      <point x="200.0" y="652.8"/>
      <point x="200.0" y="456.0" type="curve" smooth="yes"/>
      <point x="200.0" y="264.0" type="line" smooth="yes"/>
      <point x="200.0" y="65.6"/>
      <point x="304.4" y="-74.8"/>
    </contour>
  </outline>
</glyph>
<glyph name="parenright" format="2">
  <advance width="600.0"/>
  <unicode hex="0029"/>
  <outline>
    <contour>
      <point x="115.0" y="-120.0" type="line"/>
      <point x="295.6" y="-74.8"/>
      <point x="400.0" y="65.6"/>
      <point x="400.0" y="264.0" type="curve" smooth="yes"/>
      <point x="400.0" y="456.0" type="line" smooth="yes"/>
      <point x="400.0" y="652.8"/>
      <point x="294.0" y="795.8"/>
      <point x="115.0" y="840.0" type="curve"/>
      <point x="115.0" y="778.4" type="line"/>
      <point x="252.0" y="744.8"/>
      <point x="334.0" y="624.4"/>
      <point x="334.0" y="456.0" type="curve" smooth="yes"/>
      <point x="334.0" y="264.0" type="line" smooth="yes"/>
      <point x="334.0" y="96.4"/>
      <point x="252.4" y="-23.2"/>
      <point x="115.0" y="-56.8" type="curve"/>
    </contour>
  </outline>
</glyph>
<glyph name="asterisk" format="2">
  <advance width="600.0"/>
  <unicode hex="002A"/>
  <outline>
    <contour>
      <point x="172.6" y="100.0" type="line"/>
      <point x="237.4" y="193.0" type="line" smooth="yes"/>
      <point x="270.0" y="239.2"/>
      <point x="282.4" y="277.8"/>
      <point x="294.8" y="306.0" type="curve"/>
      <point x="304.2" y="306.0" type="line"/>
      <point x="316.2" y="277.2"/>
      <point x="329.6" y="239.2"/>
      <point x="361.2" y="193.0" type="curve" smooth="yes"/>
      <point x="427.0" y="99.4" type="line"/>
      <point x="482.2" y="138.0" type="line"/>
      <point x="416.4" y="231.6" type="line" smooth="yes"/>
      <point x="384.8" y="276.6"/>
      <point x="353.4" y="302.2"/>
      <point x="330.6" y="322.6" type="curve"/>
      <point x="335.2" y="334.2" type="line"/>
      <point x="364.2" y="337.8"/>
      <point x="403.8" y="341.2"/>
      <point x="452.6" y="359.2" type="curve" smooth="yes"/>
      <point x="560.8" y="398.4" type="line"/>
      <point x="538.0" y="461.6" type="line"/>
      <point x="429.2" y="423.0" type="line" smooth="yes"/>
      <point x="380.6" y="406.2"/>
      <point x="347.4" y="382.2"/>
      <point x="323.0" y="365.2" type="curve"/>
      <point x="315.6" y="371.0" type="line"/>
      <point x="323.0" y="400.2"/>
      <point x="333.8" y="440.2"/>
      <point x="333.8" y="494.0" type="curve" smooth="yes"/>
      <point x="333.8" y="610.0" type="line"/>
      <point x="266.2" y="610.0" type="line"/>
      <point x="266.2" y="494.0" type="line" smooth="yes"/>
      <point x="266.2" y="440.2"/>
      <point x="277.6" y="400.2"/>
      <point x="284.0" y="371.0" type="curve"/>
      <point x="276.6" y="365.8" type="line"/>
      <point x="252.2" y="382.8"/>
      <point x="219.0" y="405.6"/>
      <point x="169.2" y="423.6" type="curve" smooth="yes"/>
      <point x="62.6" y="462.2" type="line"/>
      <point x="39.2" y="399.0" type="line"/>
      <point x="146.4" y="359.8" type="line" smooth="yes"/>
      <point x="195.2" y="341.8"/>
      <point x="235.2" y="338.4"/>
      <point x="264.2" y="335.4" type="curve"/>
      <point x="268.4" y="323.6" type="line"/>
      <point x="246.0" y="303.2"/>
      <point x="214.8" y="277.6"/>
      <point x="182.2" y="231.6" type="curve" smooth="yes"/>
      <point x="116.8" y="138.6" type="line"/>
    </contour>
  </outline>
</glyph>
<glyph name="plus" format="2">
  <advance width="600.0"/>
  <unicode hex="002B"/>
  <outline>
    <contour>
      <point x="267.4" y="98.0" type="line"/>
      <point x="332.6" y="98.0" type="line"/>
      <point x="332.6" y="302.0" type="line"/>
      <point x="529.0" y="302.0" type="line"/>
      <point x="529.0" y="361.0" type="line"/>
      <point x="332.6" y="361.0" type="line"/>
      <point x="332.6" y="565.0" type="line"/>
      <point x="267.4" y="565.0" type="line"/>
      <point x="267.4" y="361.0" type="line"/>
      <point x="71.0" y="361.0" type="line"/>
      <point x="71.0" y="302.0" type="line"/>
      <point x="267.4" y="302.0" type="line"/>
    </contour>
  </outline>
</glyph>
<glyph name="comma" format="2">
  <advance width="600.0"/>
  <unicode hex="002C"/>
  <outline>
    <contour>
      <point x="216.0" y="-160.0" type="line"/>
      <point x="286.8" y="-160.0" type="line"/>
      <point x="357.4" y="151.0" type="line"/>
      <point x="273.4" y="151.0" type="line"/>
    </contour>
  </outline>
</glyph>
<glyph name="period" format="2">
  <advance width="600.0"/>
  <unicode hex="002E"/>
  <outline>
    <contour>
      <point x="300.0" y="-10.0" type="curve" smooth="yes"/>
      <point x="347.4" y="-10.0"/>
      <point x="377.0" y="19.8"/>
      <point x="377.0" y="67.4" type="curve" smooth="yes"/>
      <point x="377.0" y="115.2"/>
      <point x="347.4" y="145.2"/>
      <point x="300.0" y="145.2" type="curve" smooth="yes"/>
      <point x="252.6" y="145.2"/>
      <point x="223.0" y="115.2"/>
      <point x="223.0" y="67.4" type="curve" smooth="yes"/>
      <point x="223.0" y="19.8"/>
      <point x="252.6" y="-10.0"/>
    </contour>
  </outline>
</glyph>
<glyph name="slash" format="2">
  <advance width="600.0"/>
  <unicode hex="002F"/>
  <outline>
    <contour>
      <point x="87.0" y="-110.0" type="line"/>
      <point x="157.4" y="-110.0" type="line"/>
      <point x="513.0" y="830.0" type="line"/>
      <point x="442.6" y="830.0" type="line"/>
    </contour>
  </outline>
</glyph>
<glyph name="zero" format="2">
  <advance width="600.0"/>
  <unicode hex="0030"/>
  <outline>
    <contour>
      <point x="300.6" y="-10.0" type="curve" smooth="yes"/>
      <point x="431.0" y="-10.0"/>
      <point x="512.2" y="72.6"/>
      <point x="512.2" y="205.0" type="curve" smooth="yes"/>
      <point x="512.2" y="525.0" type="line" smooth="yes"/>
      <point x="512.2" y="657.8"/>
      <point x="431.4" y="740.0"/>
      <point x="300.6" y="740.0" type="curve" smooth="yes"/>
      <point x="169.2" y="740.0"/>
      <point x="87.8" y="657.2"/>
      <point x="87.8" y="525.0" type="curve" smooth="yes"/>
      <point x="87.8" y="205.0" type="line" smooth="yes"/>
      <point x="87.8" y="72.8"/>
      <point x="169.2" y="-10.0"/>
    </contour>
    <contour>
      <point x="300.6" y="50.8" type="curve" smooth="yes"/>
      <point x="211.6" y="50.8"/>
      <point x="155.6" y="111.4"/>
      <point x="155.6" y="205.0" type="curve" smooth="yes"/>
      <point x="155.6" y="525.0" type="line" smooth="yes"/>
      <point x="155.6" y="618.6"/>
      <point x="211.6" y="679.2"/>
      <point x="300.6" y="679.2" type="curve" smooth="yes"/>
      <point x="389.0" y="679.2"/>
      <point x="444.4" y="618.6"/>
      <point x="444.4" y="525.0" type="curve" smooth="yes"/>
      <point x="444.4" y="205.0" type="line" smooth="yes"/>
      <point x="444.4" y="110.8"/>
      <point x="389.0" y="50.8"/>
    </contour>
    <contour>
      <point x="300.0" y="313.2" type="curve" smooth="yes"/>
      <point x="332.4" y="313.2"/>
      <point x="354.0" y="335.2"/>
      <point x="354.0" y="368.0" type="curve" smooth="yes"/>
      <point x="354.0" y="400.4"/>
      <point x="332.4" y="422.0"/>
      <point x="300.0" y="422.0" type="curve" smooth="yes"/>
      <point x="267.6" y="422.0"/>
      <point x="246.0" y="400.4"/>
      <point x="246.0" y="368.0" type="curve" smooth="yes"/>
      <point x="246.0" y="335.2"/>
      <point x="267.6" y="313.2"/>
    </contour>
  </outline>
</glyph>
<glyph name="one" format="2">
  <advance width="600.0"/>
  <unicode hex="0031"/>
  <outline>
    <contour>
      <point x="96.0" y="0.0" type="line"/>
      <point x="534.0" y="0.0" type="line"/>
      <point x="534.0" y="59.8" type="line"/>
      <point x="365.4" y="59.8" type="line"/>
      <point x="365.4" y="730.0" type="line"/>
      <point x="276.6" y="730.0" type="line"/>
      <point x="100.8" y="599.8" type="line"/>
      <point x="100.8" y="526.2" type="line"/>
      <point x="299.4" y="673.0" type="line"/>
      <point x="299.4" y="59.8" type="line"/>
      <point x="96.0" y="59.8" type="line"/>
    </contour>
  </outline>
</glyph>
<glyph name="two" format="2">
  <advance width="600.0"/>
  <unicode hex="0032"/>
  <outline>
    <contour>
      <point x="94.4" y="0.0" type="line"/>
      <point x="528.4" y="0.0" type="line"/>
      <point x="528.4" y="59.8" type="line"/>
      <point x="168.6" y="59.8" type="line"/>
      <point x="370.0" y="270.0" type="line" smooth="yes"/>
      <point x="466.0" y="370.4"/>
      <point x="511.6" y="452.6"/>
      <point x="511.6" y="534.6" type="curve" smooth="yes"/>
      <point x="511.6" y="660.4"/>
      <point x="427.8" y="740.0"/>
      <point x="295.8" y="740.0" type="curve" smooth="yes"/>
      <point x="165.6" y="740.0"/>
      <point x="80.8" y="658.8"/>
      <point x="79.2" y="531.0" type="curve"/>
      <point x="145.2" y="531.0" type="line"/>
      <point x="145.2" y="623.6"/>
      <point x="203.4" y="681.6"/>
      <point x="295.8" y="681.6" type="curve" smooth="yes"/>
      <point x="387.8" y="681.6"/>
      <point x="445.6" y="624.0"/>
      <point x="445.6" y="533.2" type="curve" smooth="yes"/>
      <point x="445.6" y="463.4"/>
      <point x="408.4" y="396.4"/>
      <point x="326.8" y="310.6" type="curve" smooth="yes"/>
      <point x="94.4" y="65.6" type="line"/>
    </contour>
  </outline>
</glyph>
<glyph name="three" format="2">
  <advance width="600.0"/>
  <unicode hex="0033"/>
  <outline>
    <contour>
      <point x="289.6" y="-10.0" type="curve" smooth="yes"/>
      <point x="415.6" y="-10.0"/>
      <point x="498.0" y="70.4"/>
      <point x="498.0" y="194.0" type="curve" smooth="yes"/>
      <point x="498.0" y="256.6" type="line" smooth="yes"/>
      <point x="498.0" y="379.8"/>
      <point x="417.2" y="457.6"/>
      <point x="289.0" y="457.6" type="curve"/>
      <point x="289.0" y="440.8" type="line"/>
      <point x="482.2" y="667.6" type="line"/>
      <point x="482.2" y="730.0" type="line"/>
      <point x="109.0" y="730.0" type="line"/>
      <point x="109.0" y="670.2" type="line"/>
      <point x="409.0" y="670.2" type="line"/>
      <point x="227.8" y="455.6" type="line"/>
      <point x="227.8" y="398.6" type="line"/>
      <point x="290.0" y="398.6" type="line" smooth="yes"/>
      <point x="379.8" y="398.6"/>
      <point x="432.0" y="346.4"/>
      <point x="432.0" y="256.6" type="curve" smooth="yes"/>
      <point x="432.0" y="194.0" type="line" smooth="yes"/>
      <point x="432.0" y="105.2"/>
      <point x="378.6" y="49.0"/>
      <point x="290.0" y="49.0" type="curve" smooth="yes"/>
      <point x="201.8" y="49.0"/>
      <point x="148.0" y="103.4"/>
      <point x="148.0" y="194.0" type="curve"/>
      <point x="82.0" y="194.0" type="line"/>
      <point x="82.0" y="70.4"/>
      <point x="163.6" y="-10.0"/>
    </contour>
  </outline>
</glyph>
<glyph name="four" format="2">
  <advance width="600.0"/>
  <unicode hex="0034"/>
  <outline>
    <contour>
      <point x="412.0" y="0.0" type="line"/>
      <point x="478.0" y="0.0" type="line"/>
      <point x="478.0" y="420.0" type="line"/>
      <point x="412.0" y="420.0" type="line"/>
      <point x="412.0" y="225.8" type="line"/>
      <point x="145.0" y="225.8" type="line"/>
      <point x="145.0" y="267.4" type="line"/>
      <point x="428.4" y="729.4" type="line"/>
      <point x="357.0" y="729.4" type="line"/>
      <point x="79.0" y="282.4" type="line"/>
      <point x="79.0" y="166.0" type="line"/>
      <point x="412.0" y="166.0" type="line"/>
    </contour>
  </outline>
</glyph>
<glyph name="five" format="2">
  <advance width="600.0"/>
  <unicode hex="0035"/>
  <outline>
    <contour>
      <point x="299.2" y="-10.0" type="curve" smooth="yes"/>
      <point x="427.8" y="-10.0"/>
      <point x="506.0" y="72.2"/>
      <point x="506.0" y="202.4" type="curve" smooth="yes"/>
      <point x="506.0" y="270.4" type="line" smooth="yes"/>
      <point x="506.0" y="403.6"/>
      <point x="439.6" y="480.4"/>
      <point x="322.8" y="480.0" type="curve" smooth="yes"/>
      <point x="231.6" y="480.0"/>
      <point x="172.2" y="432.6"/>
      <point x="172.2" y="359.8" type="curve"/>
      <point x="198.4" y="390.0" type="line"/>
      <point x="174.6" y="390.0" type="line"/>
      <point x="177.6" y="670.2" type="line"/>
      <point x="483.6" y="670.2" type="line"/>
      <point x="483.6" y="730.0" type="line"/>
      <point x="114.0" y="730.0" type="line"/>
      <point x="109.0" y="326.0" type="line"/>
      <point x="175.0" y="326.0" type="line"/>
      <point x="192.0" y="385.4"/>
      <point x="237.2" y="421.4"/>
      <point x="300.0" y="421.4" type="curve" smooth="yes"/>
      <point x="390.8" y="421.4"/>
      <point x="440.0" y="366.0"/>
      <point x="440.0" y="270.4" type="curve" smooth="yes"/>
      <point x="440.0" y="202.4" type="line" smooth="yes"/>
      <point x="440.0" y="105.0"/>
      <point x="390.2" y="49.0"/>
      <point x="299.6" y="49.0" type="curve" smooth="yes"/>
      <point x="215.4" y="49.0"/>
      <point x="165.8" y="91.6"/>
      <point x="160.0" y="163.6" type="curve"/>
      <point x="94.0" y="163.6" type="line"/>
      <point x="104.0" y="56.6"/>
      <point x="181.4" y="-10.0"/>
    </contour>
  </outline>
</glyph>
<glyph name="six" format="2">
  <advance width="600.0"/>
  <unicode hex="0036"/>
  <outline>
    <contour>
      <point x="300.4" y="-10.0" type="curve" smooth="yes"/>
      <point x="436.0" y="-9.4"/>
      <point x="527.0" y="82.6"/>
      <point x="527.0" y="219.8" type="curve" smooth="yes"/>
      <point x="527.0" y="352.8"/>
      <point x="446.0" y="441.8"/>
      <point x="326.0" y="441.8" type="curve" smooth="yes"/>
      <point x="263.0" y="441.8"/>
      <point x="212.6" y="415.2"/>
      <point x="191.0" y="386.4" type="curve"/>
      <point x="187.0" y="389.4" type="line"/>
      <point x="389.2" y="730.0" type="line"/>
      <point x="316.4" y="730.0" type="line"/>
      <point x="136.0" y="414.4" type="line" smooth="yes"/>
      <point x="98.2" y="348.6"/>
      <point x="73.0" y="284.0"/>
      <point x="73.0" y="221.2" type="curve" smooth="yes"/>
      <point x="73.0" y="82.8"/>
      <point x="164.4" y="-10.0"/>
    </contour>
    <contour>
      <point x="300.0" y="49.0" type="curve" smooth="yes"/>
      <point x="202.2" y="49.0"/>
      <point x="137.2" y="115.2"/>
      <point x="139.0" y="219.0" type="curve" smooth="yes"/>
      <point x="139.6" y="319.2"/>
      <point x="204.6" y="389.0"/>
      <point x="300.0" y="389.0" type="curve" smooth="yes"/>
      <point x="396.0" y="389.0"/>
      <point x="461.0" y="319.2"/>
      <point x="461.0" y="219.0" type="curve" smooth="yes"/>
      <point x="461.0" y="115.2"/>
      <point x="396.0" y="49.0"/>
    </contour>
  </outline>
</glyph>
<glyph name="seven" format="2">
  <advance width="600.0"/>
  <unicode hex="0037"/>
  <outline>
    <contour>
      <point x="200.0" y="0.0" type="line"/>
      <point x="273.8" y="0.0" type="line"/>
      <point x="539.0" y="663.4" type="line"/>
      <point x="539.0" y="730.0" type="line"/>
      <point x="86.0" y="730.0" type="line"/>
      <point x="86.0" y="530.0" type="line"/>
      <point x="155.0" y="530.0" type="line"/>
      <point x="155.0" y="666.6" type="line"/>
      <point x="471.2" y="666.6" type="line"/>
    </contour>
  </outline>
</glyph>
<glyph name="eight" format="2">
  <advance width="600.0"/>
  <unicode hex="0038"/>
  <outline>
    <contour>
      <point x="300.0" y="-10.0" type="curve" smooth="yes"/>
      <point x="433.8" y="-10.0"/>
      <point x="522.6" y="64.2"/>
      <point x="522.6" y="178.8" type="curve" smooth="yes"/>
      <point x="522.6" y="265.4"/>
      <point x="466.8" y="331.8"/>
      <point x="359.0" y="380.8" type="curve" smooth="yes"/>
      <point x="266.8" y="422.2" type="line" smooth="yes"/>
      <point x="198.4" y="453.2"/>
      <point x="159.8" y="499.0"/>
      <point x="159.8" y="558.2" type="curve" smooth="yes"/>
      <point x="159.8" y="632.4"/>
      <point x="217.0" y="681.4"/>
      <point x="300.0" y="681.4" type="curve" smooth="yes"/>
      <point x="384.8" y="681.4"/>
      <point x="446.2" y="631.0"/>
      <point x="446.2" y="558.2" type="curve" smooth="yes"/>
      <point x="446.2" y="501.6"/>
      <point x="406.8" y="454.8"/>
      <point x="332.8" y="421.2" type="curve" smooth="yes"/>
      <point x="239.4" y="380.0" type="line" smooth="yes"/>
      <point x="133.0" y="332.8"/>
      <point x="77.4" y="265.0"/>
      <point x="77.4" y="178.8" type="curve" smooth="yes"/>
      <point x="77.4" y="64.2"/>
      <point x="166.2" y="-10.0"/>
    </contour>
    <contour>
      <point x="300.0" y="49.0" type="curve" smooth="yes"/>
      <point x="206.0" y="49.0"/>
      <point x="142.6" y="101.4"/>
      <point x="142.6" y="182.4" type="curve" smooth="yes"/>
      <point x="142.6" y="247.2"/>
      <point x="185.2" y="301.2"/>
      <point x="260.6" y="335.2" type="curve" smooth="yes"/>
      <point x="353.0" y="375.8" type="line" smooth="yes"/>
      <point x="456.0" y="420.6"/>
      <point x="511.4" y="486.4"/>
      <point x="511.4" y="561.2" type="curve" smooth="yes"/>
      <point x="511.4" y="663.6"/>
      <point x="418.2" y="740.4"/>
      <point x="300.0" y="740.4" type="curve" smooth="yes"/>
      <point x="183.0" y="740.4"/>
      <point x="94.6" y="664.8"/>
      <point x="94.6" y="561.2" type="curve" smooth="yes"/>
      <point x="94.6" y="484.8"/>
      <point x="147.2" y="420.6"/>
      <point x="246.4" y="376.8" type="curve" smooth="yes"/>
      <point x="338.2" y="335.6" type="line" smooth="yes"/>
      <point x="414.0" y="301.0"/>
      <point x="457.4" y="246.8"/>
      <point x="457.4" y="181.8" type="curve" smooth="yes"/>
      <point x="457.4" y="100.8"/>
      <point x="394.0" y="49.0"/>
    </contour>
  </outline>
</glyph>
<glyph name="nine" format="2">
  <advance width="600.0"/>
  <unicode hex="0039"/>
  <outline>
    <contour>
      <point x="208.4" y="0.0" type="line"/>
      <point x="282.0" y="0.0" type="line"/>
      <point x="464.2" y="315.6" type="line" smooth="yes"/>
      <point x="502.2" y="382.0"/>
      <point x="523.4" y="446.0"/>
      <point x="523.4" y="508.8" type="curve" smooth="yes"/>
      <point x="523.4" y="647.2"/>
      <point x="433.8" y="740.0"/>
      <point x="299.6" y="740.0" type="curve" smooth="yes"/>
      <point x="166.4" y="740.0"/>
      <point x="76.6" y="646.2"/>
      <point x="76.6" y="507.2" type="curve" smooth="yes"/>
      <point x="76.6" y="374.8"/>
      <point x="156.4" y="286.4"/>
      <point x="274.0" y="286.4" type="curve" smooth="yes"/>
      <point x="337.0" y="286.4"/>
      <point x="386.6" y="314.8"/>
      <point x="408.2" y="343.6" type="curve"/>
      <point x="412.2" y="340.6" type="line"/>
    </contour>
    <contour>
      <point x="300.0" y="340.4" type="curve" smooth="yes"/>
      <point x="205.8" y="340.4"/>
      <point x="142.6" y="407.8"/>
      <point x="142.6" y="508.0" type="curve" smooth="yes"/>
      <point x="142.6" y="612.4"/>
      <point x="205.8" y="681.0"/>
      <point x="300.0" y="681.0" type="curve" smooth="yes"/>
      <point x="396.0" y="681.0"/>
      <point x="459.2" y="612.4"/>
      <point x="458.0" y="508.6" type="curve" smooth="yes"/>
      <point x="456.8" y="407.2"/>
      <point x="393.6" y="340.4"/>
    </contour>
  </outline>
</glyph>
<glyph name="semicolon" format="2">
  <advance width="600.0"/>
  <unicode hex="003B"/>
  <outline>
    <contour>
      <point x="293.0" y="416.0" type="curve" smooth="yes"/>
      <point x="307.0" y="416.0" type="line" smooth="yes"/>
      <point x="349.8" y="416.0"/>
      <point x="379.0" y="445.2"/>
      <point x="379.0" y="488.0" type="curve" smooth="yes"/>
      <point x="379.0" y="530.4"/>
      <point x="349.4" y="560.0"/>
      <point x="307.0" y="560.0" type="curve" smooth="yes"/>
      <point x="293.0" y="560.0" type="line" smooth="yes"/>
      <point x="250.0" y="560.0"/>
      <point x="220.4" y="530.4"/>
      <point x="220.4" y="488.0" type="curve" smooth="yes"/>
      <point x="220.4" y="445.2"/>
      <point x="249.6" y="416.0"/>
    </contour>
    <component base="comma" xOffset="-5.0"/>
  </outline>
</glyph>
<glyph name="less" format="2">
  <advance width="600.0"/>
  <unicode hex="003C"/>
  <outline>
    <contour>
      <point x="512.0" y="74.0" type="line"/>
      <point x="512.0" y="141.8" type="line"/>
      <point x="213.4" y="296.6" type="line" smooth="yes"/>
      <point x="187.4" y="310.4"/>
      <point x="156.4" y="324.8"/>
      <point x="140.2" y="331.4" type="curve"/>
      <point x="156.0" y="338.0"/>
      <point x="186.6" y="352.4"/>
      <point x="213.4" y="366.2" type="curve" smooth="yes"/>
      <point x="512.0" y="519.4" type="line"/>
      <point x="512.0" y="586.0" type="line"/>
      <point x="88.0" y="363.8" type="line"/>
      <point x="88.0" y="296.2" type="line"/>
    </contour>
  </outline>
</glyph>
<glyph name="equal" format="2">
  <advance width="600.0"/>
  <unicode hex="003D"/>
  <outline>
    <contour>
      <point x="91.0" y="416.6" type="line"/>
      <point x="509.0" y="416.6" type="line"/>
      <point x="509.0" y="475.6" type="line"/>
      <point x="91.0" y="475.6" type="line"/>
    </contour>
    <contour>
      <point x="91.0" y="185.0" type="line"/>
      <point x="509.0" y="185.0" type="line"/>
      <point x="509.0" y="244.0" type="line"/>
      <point x="91.0" y="244.0" type="line"/>
    </contour>
  </outline>
</glyph>
<glyph name="greater" format="2">
  <advance width="600.0"/>
  <unicode hex="003E"/>
  <outline>
    <contour>
      <point x="88.0" y="74.0" type="line"/>
      <point x="512.0" y="296.2" type="line"/>
      <point x="512.0" y="363.8" type="line"/>
      <point x="88.0" y="586.0" type="line"/>
      <point x="88.0" y="518.2" type="line"/>
      <point x="386.6" y="363.4" type="line" smooth="yes"/>
      <point x="412.6" y="349.6"/>
      <point x="443.6" y="335.2"/>
      <point x="459.8" y="328.6" type="curve"/>
      <point x="444.0" y="322.0"/>
      <point x="413.4" y="307.6"/>
      <point x="386.6" y="293.8" type="curve" smooth="yes"/>
      <point x="88.0" y="140.6" type="line"/>
    </contour>
  </outline>
</glyph>
<glyph name="question" format="2">
  <advance width="600.0"/>
  <unicode hex="003F"/>
  <outline>
    <contour>
      <point x="227.0" y="205.0" type="line"/>
      <point x="293.0" y="205.0" type="line"/>
      <point x="293.0" y="322.0" type="line"/>
      <point x="414.6" y="324.4"/>
      <point x="491.0" y="404.8"/>
      <point x="491.0" y="524.0" type="curve" smooth="yes"/>
      <point x="491.0" y="649.0"/>
      <point x="405.2" y="730.0"/>
      <point x="273.0" y="730.0" type="curve" smooth="yes"/>
      <point x="139.0" y="730.0" type="line"/>
      <point x="139.0" y="669.0" type="line"/>
      <point x="273.0" y="669.0" type="line" smooth="yes"/>
      <point x="365.6" y="669.0"/>
      <point x="425.0" y="612.0"/>
      <point x="425.0" y="524.0" type="curve" smooth="yes"/>
      <point x="425.0" y="436.0"/>
      <point x="369.2" y="379.0"/>
      <point x="277.0" y="379.0" type="curve" smooth="yes"/>
      <point x="227.0" y="379.0" type="line"/>
    </contour>
    <contour>
      <point x="250.6" y="-5.0" type="curve" smooth="yes"/>
      <point x="265.6" y="-5.0" type="line" smooth="yes"/>
      <point x="299.4" y="-5.0"/>
      <point x="322.6" y="18.6"/>
      <point x="322.6" y="52.4" type="curve" smooth="yes"/>
      <point x="322.6" y="85.8"/>
      <point x="300.6" y="109.0"/>
      <point x="265.6" y="109.0" type="curve" smooth="yes"/>
      <point x="250.6" y="109.0" type="line" smooth="yes"/>
      <point x="216.8" y="109.0"/>
      <point x="193.6" y="85.8"/>
      <point x="193.6" y="52.0" type="curve" smooth="yes"/>
      <point x="193.6" y="18.2"/>
      <point x="216.8" y="-5.0"/>
    </contour>
  </outline>
</glyph>
<glyph name="at" format="2">
  <advance width="600.0"/>
  <unicode hex="0040"/>
  <outline>
    <contour>
      <point x="325.0" y="-179.4" type="curve" smooth="yes"/>
      <point x="398.0" y="-179.4" type="line"/>
      <point x="398.0" y="-122.4" type="line"/>
      <point x="325.0" y="-122.4" type="line" smooth="yes"/>
      <point x="196.2" y="-122.4"/>
      <point x="119.0" y="-31.4"/>
      <point x="119.0" y="113.6" type="curve" smooth="yes"/>
      <point x="119.0" y="447.0" type="line" smooth="yes"/>
      <point x="119.0" y="597.4"/>
      <point x="189.6" y="685.6"/>
      <point x="315.0" y="685.6" type="curve" smooth="yes"/>
      <point x="425.0" y="685.6"/>
      <point x="489.0" y="612.8"/>
      <point x="489.0" y="489.0" type="curve" smooth="yes"/>
      <point x="489.0" y="484.0" type="line"/>
      <point x="493.2" y="410.0" type="line"/>
      <point x="470.2" y="410.0" type="line"/>
      <point x="489.0" y="393.6" type="line"/>
      <point x="489.0" y="451.0"/>
      <point x="446.4" y="485.0"/>
      <point x="376.4" y="485.0" type="curve" smooth="yes"/>
      <point x="290.0" y="485.0"/>
      <point x="243.0" y="432.8"/>
      <point x="243.0" y="336.0" type="curve" smooth="yes"/>
      <point x="243.0" y="210.0" type="line" smooth="yes"/>
      <point x="243.0" y="109.6"/>
      <point x="290.0" y="55.0"/>
      <point x="376.4" y="55.0" type="curve" smooth="yes"/>
      <point x="444.0" y="55.0"/>
      <point x="489.0" y="91.4"/>
      <point x="489.0" y="146.0" type="curve"/>
      <point x="470.0" y="130.0" type="line"/>
      <point x="492.8" y="130.0" type="line"/>
      <point x="492.8" y="65.0" type="line"/>
      <point x="551.0" y="65.0" type="line"/>
      <point x="551.0" y="489.0" type="line" smooth="yes"/>
      <point x="551.0" y="643.4"/>
      <point x="460.4" y="740.0"/>
      <point x="315.0" y="740.0" type="curve" smooth="yes"/>
      <point x="153.0" y="740.0"/>
      <point x="57.0" y="628.8"/>
      <point x="57.0" y="447.0" type="curve" smooth="yes"/>
      <point x="57.0" y="113.6" type="line" smooth="yes"/>
      <point x="57.0" y="-65.2"/>
      <point x="159.4" y="-179.4"/>
    </contour>
    <contour>
      <point x="397.0" y="107.2" type="curve" smooth="yes"/>
      <point x="335.8" y="107.2"/>
      <point x="305.0" y="141.0"/>
      <point x="305.0" y="210.0" type="curve" smooth="yes"/>
      <point x="305.0" y="336.0" type="line" smooth="yes"/>
      <point x="305.0" y="400.8"/>
      <point x="335.8" y="432.8"/>
      <point x="397.0" y="432.8" type="curve" smooth="yes"/>
      <point x="457.4" y="432.8"/>
      <point x="489.0" y="400.0"/>
      <point x="489.0" y="336.4" type="curve" smooth="yes"/>
      <point x="489.0" y="214.0" type="line" smooth="yes"/>
      <point x="489.0" y="144.4"/>
      <point x="457.4" y="107.2"/>
    </contour>
  </outline>
</glyph>
<glyph name="A" format="2">
  <advance width="600.0"/>
  <unicode hex="0041"/>
  <anchor x="300.0" y="0.0" name="bottom"/>
  <anchor x="497.0" y="0.0" name="ogonek"/>
  <anchor x="300.0" y="730.0" name="top"/>
  <outline>
    <contour>
      <point x="60.8" y="0.0" type="line"/>
      <point x="127.6" y="0.0" type="line"/>
      <point x="180.4" y="203.6" type="line"/>
      <point x="418.8" y="203.6" type="line"/>
      <point x="471.6" y="0.0" type="line"/>
      <point x="539.2" y="0.0" type="line"/>
      <point x="343.0" y="730.0" type="line"/>
      <point x="257.4" y="730.0" type="line"/>
    </contour>
    <contour>
      <point x="194.8" y="261.0" type="line"/>
      <point x="265.2" y="528.4" type="line" smooth="yes"/>
      <point x="285.0" y="605.2"/>
      <point x="297.0" y="659.8"/>
      <point x="300.0" y="676.0" type="curve"/>
      <point x="303.0" y="659.8"/>
      <point x="314.4" y="605.2"/>
      <point x="334.2" y="528.0" type="curve" smooth="yes"/>
      <point x="404.0" y="261.0" type="line"/>
    </contour>
  </outline>
</glyph>
<glyph name="B" format="2">
  <advance width="600.0"/>
  <unicode hex="0042"/>
  <anchor x="300.0" y="0.0" name="bottom"/>
  <anchor x="300.0" y="730.0" name="top"/>
  <outline>
    <contour>
      <point x="103.2" y="0.0" type="line"/>
      <point x="306.6" y="0.0" type="line" smooth="yes"/>
      <point x="439.0" y="0.0"/>
      <point x="521.6" y="78.0"/>
      <point x="521.6" y="201.2" type="curve" smooth="yes"/>
      <point x="521.6" y="314.0"/>
      <point x="450.8" y="386.0"/>
      <point x="340.0" y="385.2" type="curve"/>
      <point x="340.0" y="373.2" type="line"/>
      <point x="441.0" y="372.4"/>
      <point x="504.0" y="439.4"/>
      <point x="504.0" y="541.6" type="curve" smooth="yes"/>
      <point x="504.0" y="657.2"/>
      <point x="424.6" y="730.0"/>
      <point x="298.8" y="730.0" type="curve" smooth="yes"/>
      <point x="103.2" y="730.0" type="line"/>
    </contour>
    <contour>
      <point x="168.4" y="60.0" type="line"/>
      <point x="168.4" y="348.2" type="line"/>
      <point x="302.6" y="348.2" type="line" smooth="yes"/>
      <point x="397.4" y="348.2"/>
      <point x="456.0" y="290.8"/>
      <point x="456.0" y="201.8" type="curve" smooth="yes"/>
      <point x="456.0" y="114.0"/>
      <point x="397.4" y="60.0"/>
      <point x="302.6" y="60.0" type="curve" smooth="yes"/>
    </contour>
    <contour>
      <point x="168.4" y="406.4" type="line"/>
      <point x="168.4" y="670.0" type="line"/>
      <point x="298.8" y="670.0" type="line" smooth="yes"/>
      <point x="385.4" y="670.0"/>
      <point x="438.4" y="620.0"/>
      <point x="438.4" y="538.2" type="curve" smooth="yes"/>
      <point x="438.4" y="456.4"/>
      <point x="385.6" y="406.4"/>
      <point x="298.4" y="406.4" type="curve" smooth="yes"/>
    </contour>
  </outline>
</glyph>
<glyph name="C" format="2">
  <advance width="600.0"/>
  <unicode hex="0043"/>
  <anchor x="305.0" y="0.0" name="bottom"/>
  <anchor x="305.0" y="730.0" name="top"/>
  <outline>
    <contour>
      <point x="305.2" y="-10.0" type="curve" smooth="yes"/>
      <point x="432.0" y="-10.0"/>
      <point x="513.2" y="71.6"/>
      <point x="513.2" y="200.0" type="curve"/>
      <point x="447.2" y="200.0" type="line"/>
      <point x="447.2" y="105.6"/>
      <point x="394.0" y="49.400000000000006"/>
      <point x="305.2" y="49.400000000000006" type="curve" smooth="yes"/>
      <point x="217.2" y="49.400000000000006"/>
      <point x="164.2" y="103.2"/>
      <point x="164.2" y="194.0" type="curve" smooth="yes"/>
      <point x="164.2" y="536.4" type="line" smooth="yes"/>
      <point x="164.2" y="626.8"/>
      <point x="217.8" y="680.6"/>
      <point x="305.2" y="680.6" type="curve" smooth="yes"/>
      <point x="393.4" y="680.6"/>
      <point x="447.2" y="624.4"/>
      <point x="447.2" y="530.0" type="curve"/>
      <point x="513.2" y="530.0" type="line"/>
      <point x="513.2" y="658.4"/>
      <point x="432.0" y="740.0"/>
      <point x="305.2" y="740.0" type="curve" smooth="yes"/>
      <point x="178.8" y="740.0"/>
      <point x="98.2" y="661.6"/>
      <point x="98.2" y="536.0" type="curve" smooth="yes"/>
      <point x="98.2" y="194.0" type="line" smooth="yes"/>
      <point x="98.2" y="69.0"/>
      <point x="178.8" y="-10.0"/>
    </contour>
  </outline>
</glyph>
<glyph name="D" format="2">
  <advance width="600.0"/>
  <unicode hex="0044"/>
  <anchor x="300.0" y="0.0" name="bottom"/>
  <anchor x="300.0" y="365.0" name="center"/>
  <anchor x="300.0" y="730.0" name="top"/>
  <outline>
    <contour>
      <point x="102.8" y="0.0" type="line"/>
      <point x="274.4" y="0.0" type="line" smooth="yes"/>
      <point x="411.8" y="0.0"/>
      <point x="501.8" y="87.2"/>
      <point x="501.8" y="220.0" type="curve" smooth="yes"/>
      <point x="501.8" y="510.4" type="line" smooth="yes"/>
      <point x="501.8" y="642.8"/>
      <point x="411.8" y="730.0"/>
      <point x="274.4" y="730.0" type="curve" smooth="yes"/>
      <point x="102.8" y="730.0" type="line"/>
    </contour>
    <contour>
      <point x="168.8" y="59.6" type="line"/>
      <point x="168.8" y="670.4" type="line"/>
      <point x="274.4" y="670.4" type="line" smooth="yes"/>
      <point x="372.0" y="670.4"/>
      <point x="435.8" y="607.6"/>
      <point x="435.8" y="510.4" type="curve" smooth="yes"/>
      <point x="435.8" y="220.0" type="line" smooth="yes"/>
      <point x="435.8" y="121.8"/>
      <point x="372.6" y="59.6"/>
      <point x="274.4" y="59.6" type="curve" smooth="yes"/>
    </contour>
  </outline>
</glyph>
<glyph name="E" format="2">
  <advance width="600.0"/>
  <unicode hex="0045"/>
  <anchor x="320.0" y="0.0" name="bottom"/>
  <anchor x="440.0" y="0.0" name="ogonek"/>
  <anchor x="320.0" y="730.0" name="top"/>
  <anchor x="20.0" y="730.0" name="topleft"/>
  <outline>
    <contour>
      <point x="112.0" y="0.0" type="line"/>
      <point x="514.0" y="0.0" type="line"/>
      <point x="514.0" y="60.400000000000006" type="line"/>
      <point x="177.6" y="60.400000000000006" type="line"/>
      <point x="177.6" y="351.6" type="line"/>
      <point x="479.0" y="351.6" type="line"/>
      <point x="479.0" y="410.6" type="line"/>
      <point x="177.6" y="410.6" type="line"/>
      <point x="177.6" y="669.6" type="line"/>
      <point x="514.0" y="669.6" type="line"/>
      <point x="514.0" y="730.0" type="line"/>
      <point x="112.0" y="730.0" type="line"/>
    </contour>
  </outline>
</glyph>
<glyph name="F" format="2">
  <advance width="600.0"/>
  <unicode hex="0046"/>
  <anchor x="300.0" y="0.0" name="bottom"/>
  <anchor x="300.0" y="730.0" name="top"/>
  <outline>
    <contour>
      <point x="107.0" y="0.0" type="line"/>
      <point x="173.0" y="0.0" type="line"/>
      <point x="173.0" y="337.2" type="line"/>
      <point x="493.6" y="337.2" type="line"/>
      <point x="493.6" y="397.6" type="line"/>
      <point x="172.2" y="397.6" type="line"/>
      <point x="172.2" y="669.6" type="line"/>
      <point x="525.0" y="669.6" type="line"/>
      <point x="525.0" y="730.0" type="line"/>
      <point x="107.0" y="730.0" type="line"/>
    </contour>
  </outline>
</glyph>
<glyph name="G" format="2">
  <advance width="600.0"/>
  <unicode hex="0047"/>
  <anchor x="305.2" y="0.0" name="bottom"/>
  <anchor x="303.6" y="730.0" name="top"/>
  <outline>
    <contour>
      <point x="305.2" y="-10.0" type="curve" smooth="yes"/>
      <point x="432.0" y="-10.0"/>
      <point x="513.2" y="71.6"/>
      <point x="513.2" y="200.0" type="curve" smooth="yes"/>
      <point x="513.2" y="362.4" type="line"/>
      <point x="284.2" y="362.4" type="line"/>
      <point x="284.2" y="302.0" type="line"/>
      <point x="447.2" y="302.0" type="line"/>
      <point x="447.2" y="200.0" type="line" smooth="yes"/>
      <point x="447.2" y="105.6"/>
      <point x="394.0" y="49.0"/>
      <point x="305.2" y="49.0" type="curve" smooth="yes"/>
      <point x="217.2" y="49.0"/>
      <point x="164.2" y="103.2"/>
      <point x="164.2" y="194.0" type="curve" smooth="yes"/>
      <point x="164.2" y="536.4" type="line" smooth="yes"/>
      <point x="164.2" y="626.8"/>
      <point x="217.8" y="680.6"/>
      <point x="305.2" y="680.6" type="curve" smooth="yes"/>
      <point x="393.4" y="680.6"/>
      <point x="447.2" y="624.4"/>
      <point x="447.2" y="530.0" type="curve"/>
      <point x="513.2" y="530.0" type="line"/>
      <point x="513.2" y="658.4"/>
      <point x="432.0" y="740.0"/>
      <point x="305.2" y="740.0" type="curve" smooth="yes"/>
      <point x="178.8" y="740.0"/>
      <point x="98.2" y="661.6"/>
      <point x="98.2" y="536.0" type="curve" smooth="yes"/>
      <point x="98.2" y="194.0" type="line" smooth="yes"/>
      <point x="98.2" y="69.0"/>
      <point x="178.8028" y="-10.0"/>
    </contour>
  </outline>
</glyph>
<glyph name="H" format="2">
  <advance width="600.0"/>
  <unicode hex="0048"/>
  <anchor x="300.0" y="0.0" name="bottom"/>
  <anchor x="300.0" y="365.0" name="center"/>
  <anchor x="300.0" y="730.0" name="top"/>
  <anchor x="20.0" y="730.0" name="topleft"/>
  <outline>
    <contour>
      <point x="103.2" y="0.0" type="line"/>
      <point x="169.2" y="0.0" type="line"/>
      <point x="169.2" y="348.0" type="line"/>
      <point x="430.8" y="348.0" type="line"/>
      <point x="430.8" y="0.0" type="line"/>
      <point x="496.8" y="0.0" type="line"/>
      <point x="496.8" y="730.0" type="line"/>
      <point x="430.8" y="730.0" type="line"/>
      <point x="430.8" y="408.4" type="line"/>
      <point x="169.2" y="408.4" type="line"/>
      <point x="169.2" y="730.0" type="line"/>
      <point x="103.2" y="730.0" type="line"/>
    </contour>
  </outline>
</glyph>
<glyph name="I" format="2">
  <advance width="600.0"/>
  <unicode hex="0049"/>
  <anchor x="300.0" y="0.0" name="bottom"/>
  <anchor x="320.0" y="0.0" name="ogonek"/>
  <anchor x="300.0" y="730.0" name="top"/>
  <anchor x="20.0" y="730.0" name="topleft"/>
  <outline>
    <contour>
      <point x="114.0" y="0.0" type="line"/>
      <point x="486.0" y="0.0" type="line"/>
      <point x="486.0" y="60.400000000000006" type="line"/>
      <point x="334.0" y="60.400000000000006" type="line"/>
      <point x="334.0" y="669.6" type="line"/>
      <point x="486.0" y="669.6" type="line"/>
      <point x="486.0" y="730.0" type="line"/>
      <point x="114.0" y="730.0" type="line"/>
      <point x="114.0" y="669.6" type="line"/>
      <point x="267.2" y="669.6" type="line"/>
      <point x="267.2" y="60.400000000000006" type="line"/>
      <point x="114.0" y="60.400000000000006" type="line"/>
    </contour>
  </outline>
</glyph>
<glyph name="J" format="2">
  <advance width="600.0"/>
  <unicode hex="004A"/>
  <anchor x="300.0" y="0.0" name="bottom"/>
  <anchor x="360.0" y="730.0" name="top"/>
  <outline>
    <contour>
      <point x="273.0" y="-10.0" type="curve" smooth="yes"/>
      <point x="404.8" y="-10.0"/>
      <point x="486.0" y="71.0"/>
      <point x="486.0" y="203.4" type="curve" smooth="yes"/>
      <point x="486.0" y="730.0" type="line"/>
      <point x="201.8" y="730.0" type="line"/>
      <point x="201.8" y="669.0" type="line"/>
      <point x="420.0" y="669.0" type="line"/>
      <point x="420.0" y="203.4" type="line" smooth="yes"/>
      <point x="420.0" y="107.2"/>
      <point x="364.6" y="49.0"/>
      <point x="273.0" y="49.0" type="curve" smooth="yes"/>
      <point x="181.4" y="49.0"/>
      <point x="126.0" y="106.6"/>
      <point x="126.0" y="204.0" type="curve"/>
      <point x="60.0" y="204.0" type="line"/>
      <point x="60.0" y="71.0042"/>
      <point x="140.2" y="-10.0"/>
    </contour>
  </outline>
</glyph>
<glyph name="K" format="2">
  <advance width="600.0"/>
  <unicode hex="004B"/>
  <anchor x="300.0" y="0.0" name="bottom"/>
  <anchor x="300.0" y="730.0" name="top"/>
  <outline>
    <contour>
      <point x="102.8" y="0.0" type="line"/>
      <point x="168.8" y="0.0" type="line"/>
      <point x="168.8" y="348.8" type="line"/>
      <point x="302.0" y="348.8" type="line"/>
      <point x="471.4" y="0.0" type="line"/>
      <point x="548.0" y="0.0" type="line"/>
      <point x="362.4" y="380.2" type="line"/>
      <point x="538.0" y="730.0" type="line"/>
      <point x="465.8" y="730.0" type="line"/>
      <point x="303.8" y="407.4" type="line"/>
      <point x="168.8" y="407.4" type="line"/>
      <point x="168.8" y="730.0" type="line"/>
      <point x="102.8" y="730.0" type="line"/>
    </contour>
  </outline>
</glyph>
<glyph name="L" format="2">
  <advance width="600.0"/>
  <unicode hex="004C"/>
  <anchor x="340.0" y="0.0" name="bottom"/>
  <anchor x="300.0" y="365.0" name="center"/>
  <anchor x="169.6" y="730.0" name="top"/>
  <anchor x="580.0" y="730.0" name="topright"/>
  <outline>
    <contour>
      <point x="136.0" y="0.0" type="line"/>
      <point x="547.0" y="0.0" type="line"/>
      <point x="547.0" y="60.400000000000006" type="line"/>
      <point x="202.0" y="60.400000000000006" type="line"/>
      <point x="202.0" y="730.0" type="line"/>
      <point x="136.0" y="730.0" type="line"/>
    </contour>
  </outline>
</glyph>
<glyph name="M" format="2">
  <advance width="600.0"/>
  <unicode hex="004D"/>
  <anchor x="300.0" y="0.0" name="bottom"/>
  <anchor x="300.0" y="730.0" name="top"/>
  <outline>
    <contour>
      <point x="85.6" y="0.0" type="line"/>
      <point x="150.2" y="0.0" type="line"/>
      <point x="150.2" y="402.0" type="line" smooth="yes"/>
      <point x="150.2" y="515.6"/>
      <point x="143.2" y="624.2"/>
      <point x="135.8" y="697.0" type="curve"/>
      <point x="266.6" y="323.0" type="line"/>
      <point x="334.0" y="323.0" type="line"/>
      <point x="463.2" y="697.0" type="line"/>
      <point x="456.4" y="622.6"/>
      <point x="449.8" y="510.4"/>
      <point x="449.8" y="402.0" type="curve" smooth="yes"/>
      <point x="449.8" y="0.0" type="line"/>
      <point x="514.4" y="0.0" type="line"/>
      <point x="514.4" y="730.0" type="line"/>
      <point x="422.8" y="730.0" type="line"/>
      <point x="332.6" y="468.0" type="line" smooth="yes"/>
      <point x="320.4" y="432.4"/>
      <point x="307.6" y="390.6"/>
      <point x="301.4" y="368.2" type="curve"/>
      <point x="295.2" y="390.6"/>
      <point x="282.4" y="433.0"/>
      <point x="270.2" y="467.6" type="curve" smooth="yes"/>
      <point x="177.8" y="730.0" type="line"/>
      <point x="85.6" y="730.0" type="line"/>
    </contour>
  </outline>
</glyph>
<glyph name="N" format="2">
  <advance width="600.0"/>
  <unicode hex="004E"/>
  <anchor x="300.0" y="0.0" name="bottom"/>
  <anchor x="300.0" y="730.0" name="top"/>
  <outline>
    <contour>
      <point x="102.0" y="0.0" type="line"/>
      <point x="165.6" y="0.0" type="line"/>
      <point x="165.6" y="500.0" type="line" smooth="yes"/>
      <point x="165.6" y="559.8"/>
      <point x="163.0" y="624.0"/>
      <point x="160.8" y="655.0" type="curve"/>
      <point x="408.6" y="0.0" type="line"/>
      <point x="498.0" y="0.0" type="line"/>
      <point x="498.0" y="730.0" type="line"/>
      <point x="434.4" y="730.0" type="line"/>
      <point x="434.4" y="230.0" type="line" smooth="yes"/>
      <point x="434.4" y="191.8"/>
      <point x="438.0" y="118.6"/>
      <point x="440.8" y="75.0" type="curve"/>
      <point x="190.8" y="730.0" type="line"/>
      <point x="102.0" y="730.0" type="line"/>
    </contour>
  </outline>
</glyph>
<glyph name="O" format="2">
  <advance width="600.0"/>
  <unicode hex="004F"/>
  <anchor x="300.0" y="0.0" name="bottom"/>
  <anchor x="300.0" y="365.0" name="center"/>
  <anchor x="320.0" y="700.0" name="horn"/>
  <anchor x="353.0" y="0.0" name="ogonek"/>
  <anchor x="300.0" y="730.0" name="top"/>
  <anchor x="20.0" y="730.0" name="topleft"/>
  <anchor x="580.0" y="730.0" name="topright"/>
  <outline>
    <contour>
      <point x="300.0" y="-10.0" type="curve" smooth="yes"/>
      <point x="423.8" y="-10.0"/>
      <point x="501.8" y="68.4"/>
      <point x="501.8" y="194.0" type="curve" smooth="yes"/>
      <point x="501.8" y="536.4" type="line" smooth="yes"/>
      <point x="501.8" y="661.0"/>
      <point x="423.2" y="740.0"/>
      <point x="300.0" y="740.0" type="curve" smooth="yes"/>
      <point x="176.8" y="740.0"/>
      <point x="98.2" y="661.0"/>
      <point x="98.2" y="536.0" type="curve" smooth="yes"/>
      <point x="98.2" y="194.0" type="line" smooth="yes"/>
      <point x="98.2" y="68.4"/>
      <point x="176.8" y="-10.0"/>
    </contour>
    <contour>
      <point x="300.0" y="48.8" type="curve" smooth="yes"/>
      <point x="213.6" y="48.8"/>
      <point x="164.2" y="101.4"/>
      <point x="164.2" y="194.0" type="curve" smooth="yes"/>
      <point x="164.2" y="536.0" type="line" smooth="yes"/>
      <point x="164.2" y="628.0"/>
      <point x="214.2" y="681.2"/>
      <point x="300.0" y="681.2" type="curve" smooth="yes"/>
      <point x="385.8" y="681.2"/>
      <point x="435.8" y="628.0"/>
      <point x="435.8" y="536.0" type="curve" smooth="yes"/>
      <point x="435.8" y="194.0" type="line" smooth="yes"/>
      <point x="435.8" y="101.4"/>
      <point x="386.4" y="48.8"/>
    </contour>
  </outline>
</glyph>
<glyph name="P" format="2">
  <advance width="600.0"/>
  <unicode hex="0050"/>
  <anchor x="300.0" y="0.0" name="bottom"/>
  <anchor x="300.0" y="730.0" name="top"/>
  <outline>
    <contour>
      <point x="102.8" y="0.0" type="line"/>
      <point x="168.8" y="0.0" type="line"/>
      <point x="168.8" y="314.4" type="line"/>
      <point x="325.8" y="314.4" type="line" smooth="yes"/>
      <point x="456.4" y="314.4"/>
      <point x="541.0" y="396.0"/>
      <point x="541.0" y="522.2" type="curve" smooth="yes"/>
      <point x="541.0" y="648.4"/>
      <point x="457.0" y="730.0"/>
      <point x="325.8" y="730.0" type="curve" smooth="yes"/>
      <point x="102.8" y="730.0" type="line"/>
    </contour>
    <contour>
      <point x="168.8" y="374.4" type="line"/>
      <point x="168.8" y="670.0" type="line"/>
      <point x="325.8" y="670.0" type="line" smooth="yes"/>
      <point x="416.2" y="670.0"/>
      <point x="473.8" y="613.2"/>
      <point x="473.8" y="522.2" type="curve" smooth="yes"/>
      <point x="473.8" y="431.8"/>
      <point x="415.6" y="374.4"/>
      <point x="325.8" y="374.4" type="curve" smooth="yes"/>
    </contour>
  </outline>
</glyph>
<glyph name="Q" format="2">
  <advance width="600.0"/>
  <unicode hex="0051"/>
  <anchor x="300.0" y="0.0" name="bottom"/>
  <anchor x="300.0" y="730.0" name="top"/>
  <outline>
    <contour>
      <point x="438.2" y="-180.0" type="line"/>
      <point x="516.4" y="-180.0" type="line"/>
      <point x="400.6" y="11.2" type="line"/>
      <point x="467.0" y="42.4"/>
      <point x="505.0" y="109.6"/>
      <point x="505.0" y="196.0" type="curve" smooth="yes"/>
      <point x="505.0" y="534.0" type="line" smooth="yes"/>
      <point x="505.0" y="656.0"/>
      <point x="426.0" y="740.0"/>
      <point x="300.6" y="740.0" type="curve" smooth="yes"/>
      <point x="174.6" y="740.0"/>
      <point x="95.0" y="659.6"/>
      <point x="95.0" y="534.0" type="curve" smooth="yes"/>
      <point x="95.0" y="196.0" type="line" smooth="yes"/>
      <point x="95.0" y="71.0"/>
      <point x="175.2" y="-10.0"/>
      <point x="300.6" y="-10.0" type="curve" smooth="yes"/>
      <point x="316.6" y="-10.0"/>
      <point x="333.8" y="-7.8"/>
      <point x="342.4" y="-6.6" type="curve"/>
      <point x="329.4" y="-1.2000000000000002" type="line"/>
    </contour>
    <contour>
      <point x="300.6" y="49.0" type="curve" smooth="yes"/>
      <point x="213.8" y="49.0"/>
      <point x="161.0" y="104.4"/>
      <point x="161.0" y="196.0" type="curve" smooth="yes"/>
      <point x="161.0" y="534.0" type="line" smooth="yes"/>
      <point x="161.0" y="625.6"/>
      <point x="213.8" y="681.0"/>
      <point x="300.6" y="681.0" type="curve" smooth="yes"/>
      <point x="386.2" y="681.0"/>
      <point x="439.0" y="625.0"/>
      <point x="439.0" y="534.0" type="curve" smooth="yes"/>
      <point x="439.0" y="196.0" type="line" smooth="yes"/>
      <point x="439.0" y="104.4"/>
      <point x="386.8" y="49.0"/>
    </contour>
  </outline>
</glyph>
<glyph name="R" format="2">
  <advance width="600.0"/>
  <unicode hex="0052"/>
  <anchor x="300.0" y="0.0" name="bottom"/>
  <anchor x="300.0" y="730.0" name="top"/>
  <outline>
    <contour>
      <point x="102.8" y="0.0" type="line"/>
      <point x="168.8" y="0.0" type="line"/>
      <point x="168.8" y="322.0" type="line"/>
      <point x="302.6" y="322.0" type="line"/>
      <point x="457.6" y="0.0" type="line"/>
      <point x="536.0" y="0.0" type="line"/>
      <point x="372.2" y="327.2" type="line"/>
      <point x="468.6" y="347.0"/>
      <point x="529.0" y="421.6"/>
      <point x="529.0" y="524.8" type="curve" smooth="yes"/>
      <point x="529.0" y="649.2"/>
      <point x="445.6" y="730.0"/>
      <point x="316.2" y="730.0" type="curve" smooth="yes"/>
      <point x="102.8" y="730.0" type="line"/>
    </contour>
    <contour>
      <point x="168.8" y="381.4" type="line"/>
      <point x="168.8" y="670.0" type="line"/>
      <point x="316.2" y="670.0" type="line" smooth="yes"/>
      <point x="404.0" y="670.0"/>
      <point x="461.8" y="613.6"/>
      <point x="461.8" y="526.0" type="curve" smooth="yes"/>
      <point x="461.8" y="438.4"/>
      <point x="404.4" y="381.4"/>
      <point x="316.2" y="381.4" type="curve" smooth="yes"/>
    </contour>
  </outline>
</glyph>
<glyph name="S" format="2">
  <advance width="600.0"/>
  <unicode hex="0053"/>
  <anchor x="300.0" y="0.0" name="bottom"/>
  <anchor x="300.0" y="730.0" name="top"/>
  <outline>
    <contour>
      <point x="304.6" y="-10.0" type="curve" smooth="yes"/>
      <point x="436.4" y="-10.0"/>
      <point x="520.2" y="66.0"/>
      <point x="520.2" y="184.8" type="curve" smooth="yes"/>
      <point x="520.2" y="282.0"/>
      <point x="459.8" y="360.4"/>
      <point x="363.6" y="391.0" type="curve" smooth="yes"/>
      <point x="268.4" y="421.0" type="line" smooth="yes"/>
      <point x="204.2" y="441.0"/>
      <point x="165.0" y="491.8"/>
      <point x="165.0" y="556.6" type="curve" smooth="yes"/>
      <point x="165.0" y="633.0"/>
      <point x="219.2" y="681.0"/>
      <point x="305.4" y="681.0" type="curve" smooth="yes"/>
      <point x="390.0" y="681.0"/>
      <point x="444.6" y="628.2"/>
      <point x="444.6" y="546.8" type="curve"/>
      <point x="510.6" y="546.8" type="line"/>
      <point x="510.6" y="665.2"/>
      <point x="430.8" y="740.0"/>
      <point x="306.0" y="740.0" type="curve" smooth="yes"/>
      <point x="180.2" y="740.0"/>
      <point x="99.8" y="667.6"/>
      <point x="99.8" y="553.4" type="curve" smooth="yes"/>
      <point x="99.8" y="458.8"/>
      <point x="157.2" y="386.0"/>
      <point x="254.0" y="356.2" type="curve" smooth="yes"/>
      <point x="347.6" y="327.6" type="line" smooth="yes"/>
      <point x="414.0" y="307.4"/>
      <point x="455.0" y="252.0"/>
      <point x="455.0" y="183.0" type="curve" smooth="yes"/>
      <point x="455.0" y="100.4"/>
      <point x="397.8" y="49.0"/>
      <point x="304.6" y="49.0" type="curve" smooth="yes"/>
      <point x="208.4" y="49.0"/>
      <point x="145.8" y="104.0"/>
      <point x="145.8" y="187.8" type="curve"/>
      <point x="79.8" y="187.8" type="line"/>
      <point x="79.8" y="67.2"/>
      <point x="167.2" y="-10.0"/>
    </contour>
  </outline>
</glyph>
<glyph name="T" format="2">
  <advance width="600.0"/>
  <unicode hex="0054"/>
  <anchor x="300.0" y="0.0" name="bottom"/>
  <anchor x="300.0" y="365.0" name="center"/>
  <anchor x="300.0" y="730.0" name="top"/>
  <outline>
    <contour>
      <point x="267.6" y="0.0" type="line"/>
      <point x="333.6" y="0.0" type="line"/>
      <point x="333.6" y="670.2" type="line"/>
      <point x="542.0" y="670.2" type="line"/>
      <point x="542.0" y="730.0" type="line"/>
      <point x="58.0" y="730.0" type="line"/>
      <point x="58.0" y="670.2" type="line"/>
      <point x="267.6" y="670.2" type="line"/>
    </contour>
  </outline>
</glyph>
<glyph name="U" format="2">
  <advance width="600.0"/>
  <unicode hex="0055"/>
  <anchor x="300.0" y="0.0" name="bottom"/>
  <anchor x="389.2" y="730.0" name="horn"/>
  <anchor x="353.0" y="0.0" name="ogonek"/>
  <anchor x="300.0" y="730.0" name="top"/>
  <anchor x="580.0" y="730.0" name="topright"/>
  <outline>
    <contour>
      <point x="300.6" y="-10.0" type="curve" smooth="yes"/>
      <point x="425.0" y="-10.0"/>
      <point x="499.2" y="69.0"/>
      <point x="499.2" y="194.0" type="curve" smooth="yes"/>
      <point x="499.2" y="730.0" type="line"/>
      <point x="433.2" y="730.0" type="line"/>
      <point x="433.2" y="194.0" type="line" smooth="yes"/>
      <point x="433.2" y="103.8"/>
      <point x="386.0" y="49.0"/>
      <point x="300.6" y="49.0" type="curve" smooth="yes"/>
      <point x="214.2" y="49.0"/>
      <point x="166.8" y="103.2"/>
      <point x="166.8" y="194.0" type="curve" smooth="yes"/>
      <point x="166.8" y="730.0" type="line"/>
      <point x="100.8" y="730.0" type="line"/>
      <point x="100.8" y="194.0" type="line" smooth="yes"/>
      <point x="100.8" y="69.4"/>
      <point x="176.0" y="-10.0"/>
    </contour>
  </outline>
</glyph>
<glyph name="V" format="2">
  <advance width="600.0"/>
  <unicode hex="0056"/>
  <anchor x="300.0" y="0.0" name="bottom"/>
  <anchor x="300.0" y="730.0" name="top"/>
  <outline>
    <contour>
      <point x="256.0" y="0.0" type="line"/>
      <point x="343.6" y="0.0" type="line"/>
      <point x="539.2" y="730.0" type="line"/>
      <point x="472.6" y="730.0" type="line"/>
      <point x="335.2" y="201.6" type="line" smooth="yes"/>
      <point x="318.8" y="139.2"/>
      <point x="306.0" y="79.6"/>
      <point x="301.0" y="52.0" type="curve"/>
      <point x="296.0" y="79.6"/>
      <point x="284.6" y="138.8"/>
      <point x="268.2" y="201.2" type="curve" smooth="yes"/>
      <point x="129.4" y="730.0" type="line"/>
      <point x="60.8" y="730.0" type="line"/>
    </contour>
  </outline>
</glyph>
<glyph name="W" format="2">
  <advance width="600.0"/>
  <unicode hex="0057"/>
  <anchor x="300.0" y="0.0" name="bottom"/>
  <anchor x="300.0" y="730.0" name="top"/>
  <outline>
    <contour>
      <point x="121.6" y="0.0" type="line"/>
      <point x="208.8" y="0.0" type="line"/>
      <point x="283.6" y="538.0" type="line" smooth="yes"/>
      <point x="289.8" y="587.2"/>
      <point x="297.8" y="648.4"/>
      <point x="302.6" y="680.8" type="curve"/>
      <point x="306.4" y="647.8"/>
      <point x="313.8" y="586.6"/>
      <point x="320.0" y="538.0" type="curve" smooth="yes"/>
      <point x="388.6" y="0.0" type="line"/>
      <point x="477.0" y="0.0" type="line"/>
      <point x="566.0" y="730.0" type="line"/>
      <point x="505.0" y="730.0" type="line"/>
      <point x="445.0" y="190.0" type="line" smooth="yes"/>
      <point x="440.6" y="150.8"/>
      <point x="432.4" y="85.2"/>
      <point x="428.0" y="47.0" type="curve"/>
      <point x="423.2" y="85.2"/>
      <point x="414.8" y="150.8"/>
      <point x="409.8" y="190.0" type="curve" smooth="yes"/>
      <point x="340.6" y="730.0" type="line"/>
      <point x="265.0" y="730.0" type="line"/>
      <point x="191.6" y="190.0" type="line" smooth="yes"/>
      <point x="186.2" y="150.8"/>
      <point x="178.0" y="85.2"/>
      <point x="173.2" y="47.0" type="curve"/>
      <point x="169.8" y="85.2"/>
      <point x="162.8" y="150.8"/>
      <point x="158.8" y="190.0" type="curve" smooth="yes"/>
      <point x="96.0" y="730.0" type="line"/>
      <point x="34.0" y="730.0" type="line"/>
    </contour>
  </outline>
</glyph>
<glyph name="X" format="2">
  <advance width="600.0"/>
  <unicode hex="0058"/>
  <anchor x="300.0" y="0.0" name="bottom"/>
  <anchor x="300.0" y="730.0" name="top"/>
  <outline>
    <contour>
      <point x="47.8" y="0.0" type="line"/>
      <point x="120.8" y="0.0" type="line"/>
      <point x="255.2" y="244.4" type="line" smooth="yes"/>
      <point x="267.2" y="265.8"/>
      <point x="287.8" y="303.8"/>
      <point x="300.2" y="327.0" type="curve"/>
      <point x="312.6" y="303.8"/>
      <point x="333.8" y="265.8"/>
      <point x="345.8" y="244.0" type="curve" smooth="yes"/>
      <point x="477.4" y="0.0" type="line"/>
      <point x="552.2" y="0.0" type="line"/>
      <point x="338.0" y="379.6" type="line"/>
      <point x="538.8" y="730.0" type="line"/>
      <point x="466.8" y="730.0" type="line"/>
      <point x="346.4" y="510.4" type="line" smooth="yes"/>
      <point x="333.8" y="487.4"/>
      <point x="312.6" y="449.4"/>
      <point x="300.8" y="427.8" type="curve"/>
      <point x="288.0" y="450.0"/>
      <point x="266.8" y="487.4"/>
      <point x="254.8" y="510.4" type="curve" smooth="yes"/>
      <point x="136.4" y="730.0" type="line"/>
      <point x="61.2" y="730.0" type="line"/>
      <point x="262.0" y="376.0" type="line"/>
    </contour>
  </outline>
</glyph>
<glyph name="Y" format="2">
  <advance width="600.0"/>
  <unicode hex="0059"/>
  <anchor x="300.0" y="0.0" name="bottom"/>
  <anchor x="300.0" y="730.0" name="top"/>
  <anchor x="20.0" y="730.0" name="topleft"/>
  <outline>
    <contour>
      <point x="267.0" y="0.0" type="line"/>
      <point x="333.0" y="0.0" type="line"/>
      <point x="333.0" y="277.2" type="line"/>
      <point x="556.0" y="730.0" type="line"/>
      <point x="487.6" y="730.0" type="line"/>
      <point x="333.0" y="412.0" type="line" smooth="yes"/>
      <point x="317.6" y="380.8"/>
      <point x="305.8" y="354.0"/>
      <point x="301.0" y="342.8" type="curve"/>
      <point x="296.2" y="354.6"/>
      <point x="284.2" y="381.4"/>
      <point x="269.4" y="412.0" type="curve" smooth="yes"/>
      <point x="112.4" y="730.0" type="line"/>
      <point x="44.0" y="730.0" type="line"/>
      <point x="267.0" y="277.2" type="line"/>
    </contour>
  </outline>
</glyph>
<glyph name="Z" format="2">
  <advance width="600.0"/>
  <unicode hex="005A"/>
  <anchor x="300.0" y="0.0" name="bottom"/>
  <anchor x="300.0" y="365.0" name="center"/>
  <anchor x="300.0" y="730.0" name="top"/>
  <outline>
    <contour>
      <point x="88.0" y="0.0" type="line"/>
      <point x="512.0" y="0.0" type="line"/>
      <point x="512.0" y="60.400000000000006" type="line"/>
      <point x="155.0" y="60.400000000000006" type="line"/>
      <point x="500.2" y="659.8" type="line"/>
      <point x="500.2" y="730.0" type="line"/>
      <point x="92.4" y="730.0" type="line"/>
      <point x="92.4" y="669.6" type="line"/>
      <point x="435.0" y="669.6" type="line"/>
      <point x="88.0" y="66.0" type="line"/>
    </contour>
  </outline>
</glyph>
<glyph name="bracketleft" format="2">
  <advance width="600.0"/>
  <unicode hex="005B"/>
  <outline>
    <contour>
      <point x="214.0" y="-110.0" type="line"/>
      <point x="447.0" y="-110.0" type="line"/>
      <point x="447.0" y="-51.0" type="line"/>
      <point x="280.0" y="-51.0" type="line"/>
      <point x="280.0" y="771.0" type="line"/>
      <point x="447.0" y="771.0" type="line"/>
      <point x="447.0" y="830.0" type="line"/>
      <point x="214.0" y="830.0" type="line"/>
    </contour>
  </outline>
</glyph>
<glyph name="backslash" format="2">
  <advance width="600.0"/>
  <unicode hex="005C"/>
  <outline>
    <contour>
      <point x="442.6" y="-110.0" type="line"/>
      <point x="513.0" y="-110.0" type="line"/>
      <point x="157.4" y="830.0" type="line"/>
      <point x="87.0" y="830.0" type="line"/>
    </contour>
  </outline>
</glyph>
<glyph name="bracketright" format="2">
  <advance width="600.0"/>
  <unicode hex="005D"/>
  <outline>
    <contour>
      <point x="153.0" y="-110.0" type="line"/>
      <point x="386.0" y="-110.0" type="line"/>
      <point x="386.0" y="830.0" type="line"/>
      <point x="153.0" y="830.0" type="line"/>
      <point x="153.0" y="771.0" type="line"/>
      <point x="320.0" y="771.0" type="line"/>
      <point x="320.0" y="-51.0" type="line"/>
      <point x="153.0" y="-51.0" type="line"/>
    </contour>
  </outline>
</glyph>
<glyph name="asciicircum" format="2">
  <advance width="600.0"/>
  <unicode hex="005E"/>
  <outline>
    <contour>
      <point x="92.0" y="340.0" type="line"/>
      <point x="159.2" y="340.0" type="line"/>
      <point x="273.6" y="599.2" type="line" smooth="yes"/>
      <point x="285.0" y="625.2"/>
      <point x="296.8" y="656.4"/>
      <point x="302.4" y="672.8" type="curve"/>
      <point x="307.6" y="656.4"/>
      <point x="319.0" y="625.2"/>
      <point x="330.0" y="599.2" type="curve" smooth="yes"/>
      <point x="441.4" y="340.0" type="line"/>
      <point x="508.0" y="340.0" type="line"/>
      <point x="334.6" y="730.0" type="line"/>
      <point x="269.2" y="730.0" type="line"/>
    </contour>
  </outline>
</glyph>
<glyph name="underscore" format="2">
  <advance width="600.0"/>
  <unicode hex="005F"/>
  <outline>
    <contour>
      <point x="60.0" y="-82.0" type="line"/>
      <point x="540.0" y="-82.0" type="line"/>
      <point x="540.0" y="-25.0" type="line"/>
      <point x="60.0" y="-25.0" type="line"/>
    </contour>
  </outline>
</glyph>
<glyph name="a" format="2">
  <advance width="600.0"/>
  <unicode hex="0061"/>
  <anchor x="305.0" y="0.0" name="bottom"/>
  <anchor x="462.0" y="0.0" name="ogonek"/>
  <anchor x="305.0" y="550.0" name="top"/>
  <outline>
    <contour>
      <point x="262.2" y="-10.0" type="curve" smooth="yes"/>
      <point x="368.2" y="-10.0"/>
      <point x="438.2" y="44.2"/>
      <point x="438.2" y="127.2" type="curve"/>
      <point x="422.6" y="109.2" type="line"/>
      <point x="434.0" y="109.2" type="line"/>
      <point x="434.0" y="0.0" type="line"/>
      <point x="499.2" y="0.0" type="line"/>
      <point x="499.2" y="376.2" type="line" smooth="yes"/>
      <point x="499.2" y="487.6"/>
      <point x="422.0" y="560.0"/>
      <point x="303.8" y="560.0" type="curve" smooth="yes"/>
      <point x="195.4" y="560.0"/>
      <point x="114.8" y="497.2"/>
      <point x="102.6" y="405.0" type="curve"/>
      <point x="168.6" y="405.0" type="line"/>
      <point x="178.0" y="460.8"/>
      <point x="231.2" y="501.4"/>
      <point x="302.6" y="501.4" type="curve" smooth="yes"/>
      <point x="384.2" y="501.4"/>
      <point x="433.2" y="454.6"/>
      <point x="433.2" y="375.0" type="curve" smooth="yes"/>
      <point x="433.2" y="314.0" type="line"/>
      <point x="251.8" y="314.0" type="line" smooth="yes"/>
      <point x="144.8" y="314.0"/>
      <point x="75.2" y="251.6"/>
      <point x="75.2" y="154.4" type="curve" smooth="yes"/>
      <point x="75.2" y="54.2"/>
      <point x="148.0" y="-10.0"/>
    </contour>
    <contour>
      <point x="279.4" y="44.8" type="curve" smooth="yes"/>
      <point x="194.8" y="44.8"/>
      <point x="141.2" y="89.6"/>
      <point x="141.2" y="158.8" type="curve" smooth="yes"/>
      <point x="141.2" y="220.6"/>
      <point x="184.8" y="260.8"/>
      <point x="252.0" y="260.8" type="curve" smooth="yes"/>
      <point x="433.2" y="260.8" type="line"/>
      <point x="433.2" y="170.2" type="line" smooth="yes"/>
      <point x="433.2" y="96.0"/>
      <point x="370.4" y="44.8"/>
    </contour>
  </outline>
</glyph>
<glyph name="b" format="2">
  <advance width="600.0"/>
  <unicode hex="0062"/>
  <anchor x="300.0" y="0.0" name="bottom"/>
  <anchor x="300.0" y="730.0" name="top"/>
  <outline>
    <contour>
      <point x="320.6" y="-10.0" type="curve" smooth="yes"/>
      <point x="430.6" y="-10.0"/>
      <point x="503.0" y="68.6"/>
      <point x="503.0" y="191.0" type="curve" smooth="yes"/>
      <point x="503.0" y="358.0" type="line" smooth="yes"/>
      <point x="503.0" y="480.8"/>
      <point x="431.0" y="560.0"/>
      <point x="320.6" y="560.0" type="curve" smooth="yes"/>
      <point x="227.0" y="560.0"/>
      <point x="162.8" y="503.4"/>
      <point x="162.8" y="415.6" type="curve"/>
      <point x="186.8" y="463.0" type="line"/>
      <point x="168.0" y="463.0" type="line"/>
      <point x="168.8" y="576.0" type="line"/>
      <point x="168.8" y="730.0" type="line"/>
      <point x="102.8" y="730.0" type="line"/>
      <point x="102.8" y="0.0" type="line"/>
      <point x="168.8" y="0.0" type="line"/>
      <point x="168.8" y="87.0" type="line"/>
      <point x="192.8" y="87.0" type="line"/>
      <point x="162.8" y="134.4" type="line"/>
      <point x="162.8" y="46.2"/>
      <point x="226.6" y="-10.0"/>
    </contour>
    <contour>
      <point x="302.6" y="47.0" type="curve" smooth="yes"/>
      <point x="219.0" y="47.0"/>
      <point x="168.8" y="101.4"/>
      <point x="168.8" y="193.4" type="curve" smooth="yes"/>
      <point x="168.8" y="356.0" type="line" smooth="yes"/>
      <point x="168.8" y="448.0"/>
      <point x="218.4" y="503.0"/>
      <point x="302.6" y="503.0" type="curve" smooth="yes"/>
      <point x="386.4" y="503.0"/>
      <point x="437.0" y="448.8"/>
      <point x="437.0" y="356.0" type="curve" smooth="yes"/>
      <point x="437.0" y="193.4" type="line" smooth="yes"/>
      <point x="437.0" y="100.6"/>
      <point x="386.4" y="47.0"/>
    </contour>
  </outline>
</glyph>
<glyph name="c" format="2">
  <advance width="600.0"/>
  <unicode hex="0063"/>
  <anchor x="302.8" y="0.0" name="bottom"/>
  <anchor x="302.8" y="550.0" name="top"/>
  <outline>
    <contour>
      <point x="302.8" y="-10.0" type="curve" smooth="yes"/>
      <point x="426.2" y="-10.0"/>
      <point x="505.6" y="63.6"/>
      <point x="507.2" y="180.0" type="curve"/>
      <point x="441.2" y="180.0" type="line"/>
      <point x="439.6" y="98.0"/>
      <point x="387.6" y="49.6"/>
      <point x="302.8" y="49.6" type="curve" smooth="yes"/>
      <point x="216.6" y="49.6"/>
      <point x="163.0" y="103.2"/>
      <point x="163.0" y="194.0" type="curve" smooth="yes"/>
      <point x="163.0" y="356.4" type="line" smooth="yes"/>
      <point x="163.0" y="447.4"/>
      <point x="216.6" y="500.4"/>
      <point x="302.8" y="500.4" type="curve" smooth="yes"/>
      <point x="387.6" y="500.4"/>
      <point x="439.6" y="452.0"/>
      <point x="441.2" y="370.0" type="curve"/>
      <point x="507.2" y="370.0" type="line"/>
      <point x="505.6" y="486.4"/>
      <point x="426.2" y="560.0"/>
      <point x="302.8" y="560.0" type="curve" smooth="yes"/>
      <point x="177.6" y="560.0"/>
      <point x="97.0" y="481.0"/>
      <point x="97.0" y="356.0" type="curve" smooth="yes"/>
      <point x="97.0" y="194.0" type="line" smooth="yes"/>
      <point x="97.0" y="68.4"/>
      <point x="177.0" y="-10.0"/>
    </contour>
  </outline>
</glyph>
<glyph name="d" format="2">
  <advance width="600.0"/>
  <unicode hex="0064"/>
  <anchor x="300.0" y="0.0" name="bottom"/>
  <anchor x="300.0" y="275.0" name="center"/>
  <anchor x="300.0" y="730.0" name="top"/>
  <anchor x="580.0" y="550.0" name="topright"/>
  <outline>
    <contour>
      <point x="279.4" y="-10.0" type="curve" smooth="yes"/>
      <point x="373.4" y="-10.0"/>
      <point x="437.2" y="46.2"/>
      <point x="437.2" y="134.4" type="curve"/>
      <point x="407.2" y="87.0" type="line"/>
      <point x="431.2" y="87.0" type="line"/>
      <point x="431.2" y="0.0" type="line"/>
      <point x="497.2" y="0.0" type="line"/>
      <point x="497.2" y="730.0" type="line"/>
      <point x="431.2" y="730.0" type="line"/>
      <point x="431.2" y="576.0" type="line"/>
      <point x="432.0" y="463.0" type="line"/>
      <point x="413.2" y="463.0" type="line"/>
      <point x="437.2" y="415.6" type="line"/>
      <point x="437.2" y="503.4"/>
      <point x="373.0" y="560.0"/>
      <point x="279.4" y="560.0" type="curve" smooth="yes"/>
      <point x="169.0" y="560.0"/>
      <point x="97.0" y="480.8"/>
      <point x="97.0" y="358.0" type="curve" smooth="yes"/>
      <point x="97.0" y="191.0" type="line" smooth="yes"/>
      <point x="97.0" y="68.6"/>
      <point x="169.4" y="-10.0"/>
    </contour>
    <contour>
      <point x="297.4" y="47.0" type="curve" smooth="yes"/>
      <point x="213.6" y="47.0"/>
      <point x="163.0" y="100.6"/>
      <point x="163.0" y="193.4" type="curve" smooth="yes"/>
      <point x="163.0" y="356.0" type="line" smooth="yes"/>
      <point x="163.0" y="448.8"/>
      <point x="213.6" y="503.0"/>
      <point x="297.4" y="503.0" type="curve" smooth="yes"/>
      <point x="381.6" y="503.0"/>
      <point x="431.2" y="448.0"/>
      <point x="431.2" y="356.0" type="curve" smooth="yes"/>
      <point x="431.2" y="193.4" type="line" smooth="yes"/>
      <point x="431.2" y="101.4"/>
      <point x="381.0" y="47.0"/>
    </contour>
  </outline>
</glyph>
<glyph name="e" format="2">
  <advance width="600.0"/>
  <unicode hex="0065"/>
  <anchor x="300.0" y="0.0" name="bottom"/>
  <anchor x="353.0" y="0.0" name="ogonek"/>
  <anchor x="300.0" y="550.0" name="top"/>
  <outline>
    <contour>
      <point x="300.6" y="-10.0" type="curve" smooth="yes"/>
      <point x="408.8" y="-10.0"/>
      <point x="484.8" y="46.8"/>
      <point x="501.6" y="137.0" type="curve"/>
      <point x="435.6" y="137.0" type="line"/>
      <point x="420.2" y="79.6"/>
      <point x="372.6" y="46.8"/>
      <point x="300.6" y="46.8" type="curve" smooth="yes"/>
      <point x="212.0" y="46.8"/>
      <point x="162.2" y="101.6"/>
      <point x="162.2" y="194.0" type="curve" smooth="yes"/>
      <point x="162.2" y="260.2" type="line"/>
      <point x="503.0" y="260.2" type="line"/>
      <point x="503.0" y="356.0" type="line" smooth="yes"/>
      <point x="503.0" y="479.4"/>
      <point x="425.2" y="560.0"/>
      <point x="300.6" y="560.0" type="curve" smooth="yes"/>
      <point x="175.4" y="560.0"/>
      <point x="97.0" y="479.4"/>
      <point x="97.0" y="356.0" type="curve" smooth="yes"/>
      <point x="97.0" y="194.0" type="line" smooth="yes"/>
      <point x="97.0" y="70.0"/>
      <point x="174.8" y="-10.0"/>
    </contour>
    <contour>
      <point x="437.8" y="304.6" type="line"/>
      <point x="447.2" y="313.2" type="line"/>
      <point x="162.2" y="313.2" type="line"/>
      <point x="162.2" y="356.0" type="line" smooth="yes"/>
      <point x="162.2" y="449.0"/>
      <point x="211.4" y="503.6"/>
      <point x="300.6" y="503.6" type="curve" smooth="yes"/>
      <point x="388.6" y="503.6"/>
      <point x="437.8" y="448.4"/>
      <point x="437.8" y="356.0" type="curve" smooth="yes"/>
    </contour>
  </outline>
</glyph>
<glyph name="f" format="2">
  <advance width="600.0"/>
  <unicode hex="0066"/>
  <anchor x="300.0" y="0.0" name="bottom"/>
  <anchor x="300.0" y="730.0" name="top"/>
  <outline>
    <contour>
      <point x="232.0" y="0.0" type="line"/>
      <point x="298.0" y="0.0" type="line"/>
      <point x="298.0" y="434.6" type="line"/>
      <point x="527.8" y="434.6" type="line"/>
      <point x="527.8" y="494.4" type="line"/>
      <point x="298.0" y="494.4" type="line"/>
      <point x="298.0" y="599.0" type="line" smooth="yes"/>
      <point x="298.0" y="644.8"/>
      <point x="324.6" y="670.2"/>
      <point x="371.6" y="670.2" type="curve" smooth="yes"/>
      <point x="527.8" y="670.2" type="line"/>
      <point x="527.8" y="730.0" type="line"/>
      <point x="371.6" y="730.0" type="line" smooth="yes"/>
      <point x="284.6" y="730.0"/>
      <point x="232.0" y="680.6"/>
      <point x="232.0" y="599.0" type="curve" smooth="yes"/>
      <point x="232.0" y="494.4" type="line"/>
      <point x="66.0" y="494.4" type="line"/>
      <point x="66.0" y="434.6" type="line"/>
      <point x="232.0" y="434.6" type="line"/>
    </contour>
  </outline>
</glyph>
<glyph name="g" format="2">
  <advance width="600.0"/>
  <unicode hex="0067"/>
  <anchor x="300.0" y="-270.0" name="bottom"/>
  <anchor x="297.0" y="550.0" name="top"/>
  <outline>
    <contour>
      <point x="168.8" y="-180.0" type="line"/>
      <point x="325.4" y="-180.0" type="line" smooth="yes"/>
      <point x="435.8" y="-180.0"/>
      <point x="496.8" y="-122.0"/>
      <point x="496.8" y="-17.0" type="curve" smooth="yes"/>
      <point x="496.8" y="550.0" type="line"/>
      <point x="431.2" y="550.0" type="line"/>
      <point x="431.2" y="451.0" type="line"/>
      <point x="416.6" y="451.0" type="line"/>
      <point x="435.4" y="418.0" type="line"/>
      <point x="435.4" y="504.6"/>
      <point x="373.8" y="560.0"/>
      <point x="280.6" y="560.0" type="curve" smooth="yes"/>
      <point x="169.4" y="560.0"/>
      <point x="98.2" y="480.4"/>
      <point x="98.2" y="358.4" type="curve" smooth="yes"/>
      <point x="98.2" y="239.4" type="line" smooth="yes"/>
      <point x="98.2" y="117.0"/>
      <point x="169.4" y="38.0"/>
      <point x="280.6" y="38.0" type="curve" smooth="yes"/>
      <point x="373.8" y="38.0"/>
      <point x="435.4" y="93.4"/>
      <point x="435.4" y="180.0" type="curve"/>
      <point x="413.6" y="147.0" type="line"/>
      <point x="431.6" y="147.0" type="line"/>
      <point x="430.8" y="38.0" type="line"/>
      <point x="430.8" y="-17.0" type="line" smooth="yes"/>
      <point x="430.8" y="-85.6"/>
      <point x="395.6" y="-120.2"/>
      <point x="325.8" y="-120.2" type="curve" smooth="yes"/>
      <point x="168.8" y="-120.2" type="line"/>
    </contour>
    <contour>
      <point x="297.4" y="95.0" type="curve" smooth="yes"/>
      <point x="213.6" y="95.0"/>
      <point x="164.2" y="148.6"/>
      <point x="164.2" y="241.4" type="curve" smooth="yes"/>
      <point x="164.2" y="356.0" type="line" smooth="yes"/>
      <point x="164.2" y="448.8"/>
      <point x="213.6" y="503.0"/>
      <point x="297.4" y="503.0" type="curve" smooth="yes"/>
      <point x="381.6" y="503.0"/>
      <point x="431.2" y="448.0"/>
      <point x="431.2" y="356.0" type="curve" smooth="yes"/>
      <point x="431.2" y="241.4" type="line" smooth="yes"/>
      <point x="431.2" y="149.4"/>
      <point x="381.0" y="95.0"/>
    </contour>
  </outline>
</glyph>
<glyph name="h" format="2">
  <advance width="600.0"/>
  <unicode hex="0068"/>
  <anchor x="300.0" y="0.0" name="bottom"/>
  <anchor x="300.0" y="365.0" name="center"/>
  <anchor x="300.0" y="730.0" name="top"/>
  <outline>
    <contour>
      <point x="102.8" y="0.0" type="line"/>
      <point x="168.8" y="0.0" type="line"/>
      <point x="168.8" y="356.0" type="line" smooth="yes"/>
      <point x="168.8" y="448.2"/>
      <point x="220.2" y="503.8"/>
      <point x="303.0" y="503.8" type="curve" smooth="yes"/>
      <point x="383.39820000000003" y="503.8"/>
      <point x="433.2" y="450.6"/>
      <point x="433.2" y="360.0" type="curve" smooth="yes"/>
      <point x="433.2" y="0.0" type="line"/>
      <point x="499.2" y="0.0" type="line"/>
      <point x="499.2" y="368.2" type="line" smooth="yes"/>
      <point x="499.2" y="485.8"/>
      <point x="428.2" y="560.0"/>
      <point x="319.4" y="560.0" type="curve" smooth="yes"/>
      <point x="225.0" y="560.0"/>
      <point x="164.6" y="504.6"/>
      <point x="164.6" y="415.6" type="curve"/>
      <point x="190.2" y="460.0" type="line"/>
      <point x="168.8" y="460.0" type="line"/>
      <point x="168.8" y="568.0" type="line"/>
      <point x="168.8" y="730.0" type="line"/>
      <point x="102.8" y="730.0" type="line"/>
    </contour>
  </outline>
</glyph>
<glyph name="k" format="2">
  <advance width="600.0"/>
  <unicode hex="006B"/>
  <anchor x="300.0" y="0.0" name="bottom"/>
  <anchor x="300.0" y="730.0" name="top"/>
  <outline>
    <contour>
      <point x="105.8" y="0.0" type="line"/>
      <point x="171.8" y="0.0" type="line"/>
      <point x="171.8" y="256.4" type="line"/>
      <point x="293.8" y="256.4" type="line"/>
      <point x="463.4" y="0.0" type="line"/>
      <point x="541.4" y="0.0" type="line"/>
      <point x="352.8" y="288.6" type="line"/>
      <point x="537.8" y="550.0" type="line"/>
      <point x="460.6" y="550.0" type="line"/>
      <point x="293.4" y="314.6" type="line"/>
      <point x="171.8" y="314.6" type="line"/>
      <point x="171.8" y="730.0" type="line"/>
      <point x="105.8" y="730.0" type="line"/>
    </contour>
  </outline>
</glyph>
<glyph name="l" format="2">
  <advance width="600.0"/>
  <unicode hex="006C"/>
  <anchor x="320.0" y="0.0" name="bottom"/>
  <anchor x="300.0" y="365.0" name="center"/>
  <anchor x="250.0" y="730.0" name="top"/>
  <anchor x="580.0" y="730.0" name="topright"/>
  <outline>
    <contour>
      <point x="374.0" y="0.0" type="curve" smooth="yes"/>
      <point x="544.0" y="0.0" type="line"/>
      <point x="544.0" y="59.8" type="line"/>
      <point x="374.0" y="59.8" type="line" smooth="yes"/>
      <point x="321.4" y="59.8"/>
      <point x="292.0" y="89.6"/>
      <point x="292.0" y="143.0" type="curve" smooth="yes"/>
      <point x="292.0" y="730.0" type="line"/>
      <point x="42.0" y="730.0" type="line"/>
      <point x="42.0" y="670.2" type="line"/>
      <point x="226.0" y="670.2" type="line"/>
      <point x="226.0" y="143.0" type="line" smooth="yes"/>
      <point x="226.0" y="53.2"/>
      <point x="281.2" y="0.0"/>
    </contour>
  </outline>
</glyph>
<glyph name="m" format="2">
  <advance width="600.0"/>
  <unicode hex="006D"/>
  <anchor x="300.0" y="0.0" name="bottom"/>
  <anchor x="300.0" y="550.0" name="top"/>
  <outline>
    <contour>
      <point x="71.4" y="0.0" type="line"/>
      <point x="134.0" y="0.0" type="line"/>
      <point x="134.0" y="423.0" type="line" smooth="yes"/>
      <point x="134.0" y="475.2"/>
      <point x="162.2" y="507.2"/>
      <point x="203.8" y="507.2" type="curve" smooth="yes"/>
      <point x="245.8" y="507.2"/>
      <point x="271.2" y="475.2"/>
      <point x="271.2" y="422.6" type="curve" smooth="yes"/>
      <point x="271.2" y="0.0" type="line"/>
      <point x="328.8" y="0.0" type="line"/>
      <point x="328.8" y="423.0" type="line" smooth="yes"/>
      <point x="328.8" y="474.6"/>
      <point x="355.6" y="507.2"/>
      <point x="399.4" y="507.2" type="curve" smooth="yes"/>
      <point x="441.0" y="507.2"/>
      <point x="466.0" y="475.2"/>
      <point x="466.0" y="422.6" type="curve" smooth="yes"/>
      <point x="466.0" y="0.0" type="line"/>
      <point x="528.6" y="0.0" type="line"/>
      <point x="528.6" y="425.8" type="line" smooth="yes"/>
      <point x="528.6" y="507.4"/>
      <point x="486.8" y="560.0"/>
      <point x="420.8" y="560.0" type="curve" smooth="yes"/>
      <point x="363.8" y="560.0"/>
      <point x="324.2" y="519.6"/>
      <point x="324.2" y="460.6" type="curve"/>
      <point x="336.0" y="478.6" type="line"/>
      <point x="311.4" y="478.6" type="line"/>
      <point x="327.6" y="448.6" type="line"/>
      <point x="322.8" y="517.2"/>
      <point x="284.6" y="560.0"/>
      <point x="226.8" y="560.0" type="curve" smooth="yes"/>
      <point x="169.0" y="560.0"/>
      <point x="132.2" y="520.2"/>
      <point x="132.2" y="460.6" type="curve"/>
      <point x="140.2" y="478.6" type="line"/>
      <point x="129.4" y="478.6" type="line"/>
      <point x="129.4" y="550.0" type="line"/>
      <point x="71.4" y="550.0" type="line"/>
    </contour>
  </outline>
</glyph>
<glyph name="n" format="2">
  <advance width="600.0"/>
  <unicode hex="006E"/>
  <anchor x="300.0" y="0.0" name="bottom"/>
  <anchor x="305.0" y="550.0" name="top"/>
  <outline>
    <contour>
      <point x="102.8" y="0.0" type="line"/>
      <point x="168.8" y="0.0" type="line"/>
      <point x="168.8" y="356.0" type="line" smooth="yes"/>
      <point x="168.8" y="448.2"/>
      <point x="220.2" y="503.0"/>
      <point x="303.0" y="503.0" type="curve" smooth="yes"/>
      <point x="383.39820000000003" y="503.0"/>
      <point x="433.2" y="450.6"/>
      <point x="433.2" y="360.0" type="curve" smooth="yes"/>
      <point x="433.2" y="0.0" type="line"/>
      <point x="499.2" y="0.0" type="line"/>
      <point x="499.2" y="368.2" type="line" smooth="yes"/>
      <point x="499.2" y="485.8"/>
      <point x="428.2" y="560.0"/>
      <point x="319.4" y="560.0" type="curve" smooth="yes"/>
      <point x="223.8" y="560.0"/>
      <point x="164.6" y="503.4"/>
      <point x="164.6" y="412.0" type="curve"/>
      <point x="190.2" y="451.0" type="line"/>
      <point x="168.8" y="451.0" type="line"/>
      <point x="168.8" y="550.0" type="line"/>
      <point x="102.8" y="550.0" type="line"/>
    </contour>
  </outline>
</glyph>
<glyph name="o" format="2">
  <advance width="600.0"/>
  <unicode hex="006F"/>
  <anchor x="300.0" y="0.0" name="bottom"/>
  <anchor x="300.0" y="275.0" name="center"/>
  <anchor x="324.8" y="550.0" name="horn"/>
  <anchor x="353.0" y="0.0" name="ogonek"/>
  <anchor x="300.0" y="550.0" name="top"/>
  <anchor x="580.0" y="550.0" name="topright"/>
  <outline>
    <contour>
      <point x="300.0" y="-9.2" type="curve" smooth="yes"/>
      <point x="424.6" y="-9.2"/>
      <point x="503.0" y="69.6"/>
      <point x="503.0" y="194.8" type="curve" smooth="yes"/>
      <point x="503.0" y="355.6" type="line" smooth="yes"/>
      <point x="503.0" y="479.8"/>
      <point x="424.0" y="559.2"/>
      <point x="300.0" y="559.2" type="curve" smooth="yes"/>
      <point x="176.0" y="559.2"/>
      <point x="97.0" y="479.8"/>
      <point x="97.0" y="355.2" type="curve" smooth="yes"/>
      <point x="97.0" y="194.8" type="line" smooth="yes"/>
      <point x="97.0" y="69.6"/>
      <point x="176.0" y="-9.2"/>
    </contour>
    <contour>
      <point x="300.0" y="49.2" type="curve" smooth="yes"/>
      <point x="213.6" y="49.2"/>
      <point x="163.0" y="101.4"/>
      <point x="163.0" y="194.8" type="curve" smooth="yes"/>
      <point x="163.0" y="355.2" type="line" smooth="yes"/>
      <point x="163.0" y="448.0"/>
      <point x="214.2" y="500.8"/>
      <point x="300.0" y="500.8" type="curve" smooth="yes"/>
      <point x="385.8" y="500.8"/>
      <point x="437.0" y="448.0"/>
      <point x="437.0" y="355.2" type="curve" smooth="yes"/>
      <point x="437.0" y="194.8" type="line" smooth="yes"/>
      <point x="437.0" y="101.4"/>
      <point x="386.4" y="49.2"/>
    </contour>
  </outline>
</glyph>
<glyph name="p" format="2">
  <advance width="600.0"/>
  <unicode hex="0070"/>
  <anchor x="300.0" y="0.0" name="bottom"/>
  <anchor x="300.0" y="550.0" name="top"/>
  <outline>
    <contour>
      <point x="103.2" y="-180.0" type="line"/>
      <point x="169.2" y="-180.0" type="line"/>
      <point x="169.2" y="-8.0" type="line"/>
      <point x="168.4" y="87.0" type="line"/>
      <point x="187.2" y="87.0" type="line"/>
      <point x="163.2" y="134.4" type="line"/>
      <point x="163.2" y="47.2"/>
      <point x="227.2" y="-10.0"/>
      <point x="321.4" y="-10.0" type="curve" smooth="yes"/>
      <point x="431.2" y="-10.0"/>
      <point x="503.4" y="69.2"/>
      <point x="503.4" y="192.0" type="curve" smooth="yes"/>
      <point x="503.4" y="359.0" type="line" smooth="yes"/>
      <point x="503.4" y="481.4"/>
      <point x="431.4" y="560.0"/>
      <point x="321.4" y="560.0" type="curve" smooth="yes"/>
      <point x="226.2" y="560.0"/>
      <point x="163.2" y="503.2"/>
      <point x="163.2" y="415.6" type="curve"/>
      <point x="193.2" y="463.0" type="line"/>
      <point x="169.2" y="463.0" type="line"/>
      <point x="169.2" y="550.0" type="line"/>
      <point x="103.2" y="550.0" type="line"/>
    </contour>
    <contour>
      <point x="303.4" y="47.0" type="curve" smooth="yes"/>
      <point x="219.8" y="47.0"/>
      <point x="169.2" y="101.4"/>
      <point x="169.2" y="194.0" type="curve" smooth="yes"/>
      <point x="169.2" y="356.6" type="line" smooth="yes"/>
      <point x="169.2" y="448.6"/>
      <point x="219.8" y="503.0"/>
      <point x="303.4" y="503.0" type="curve" smooth="yes"/>
      <point x="387.2" y="503.0"/>
      <point x="437.4" y="449.4"/>
      <point x="437.4" y="356.6" type="curve" smooth="yes"/>
      <point x="437.4" y="194.0" type="line" smooth="yes"/>
      <point x="437.4" y="100.6"/>
      <point x="387.2" y="47.0"/>
    </contour>
  </outline>
</glyph>
<glyph name="q" format="2">
  <advance width="600.0"/>
  <unicode hex="0071"/>
  <anchor x="300.0" y="0.0" name="bottom"/>
  <anchor x="300.0" y="550.0" name="top"/>
  <outline>
    <contour>
      <point x="431.2" y="-180.0" type="line"/>
      <point x="497.2" y="-180.0" type="line"/>
      <point x="497.2" y="550.0" type="line"/>
      <point x="431.2" y="550.0" type="line"/>
      <point x="431.2" y="463.0" type="line"/>
      <point x="407.2" y="463.0" type="line"/>
      <point x="437.2" y="415.6" type="line"/>
      <point x="437.2" y="503.8"/>
      <point x="373.4" y="560.0"/>
      <point x="279.4" y="560.0" type="curve" smooth="yes"/>
      <point x="169.4" y="560.0"/>
      <point x="98.2" y="481.4"/>
      <point x="98.2" y="359.0" type="curve" smooth="yes"/>
      <point x="98.2" y="192.0" type="line" smooth="yes"/>
      <point x="98.2" y="69.2"/>
      <point x="169.0" y="-10.0"/>
      <point x="279.4" y="-10.0" type="curve" smooth="yes"/>
      <point x="373.0" y="-10.0"/>
      <point x="437.2" y="46.6"/>
      <point x="437.2" y="134.4" type="curve"/>
      <point x="413.2" y="87.0" type="line"/>
      <point x="432.0" y="87.0" type="line"/>
      <point x="431.2" y="-26.0" type="line"/>
    </contour>
    <contour>
      <point x="297.4" y="47.0" type="curve" smooth="yes"/>
      <point x="213.6" y="47.0"/>
      <point x="164.2" y="101.2"/>
      <point x="164.2" y="194.0" type="curve" smooth="yes"/>
      <point x="164.2" y="356.6" type="line" smooth="yes"/>
      <point x="164.2" y="449.4"/>
      <point x="213.6" y="503.0"/>
      <point x="297.4" y="503.0" type="curve" smooth="yes"/>
      <point x="381.0" y="503.0"/>
      <point x="431.2" y="448.6"/>
      <point x="431.2" y="356.6" type="curve" smooth="yes"/>
      <point x="431.2" y="194.0" type="line" smooth="yes"/>
      <point x="431.2" y="102.0"/>
      <point x="381.6" y="47.0"/>
    </contour>
  </outline>
</glyph>
<glyph name="r" format="2">
  <advance width="600.0"/>
  <unicode hex="0072"/>
  <anchor x="139.0" y="0.0" name="bottom"/>
  <anchor x="320.0" y="550.0" name="top"/>
  <outline>
    <contour>
      <point x="119.8" y="0.0" type="line"/>
      <point x="185.8" y="0.0" type="line"/>
      <point x="185.8" y="356.0" type="line" smooth="yes"/>
      <point x="185.8" y="450.2"/>
      <point x="234.4" y="503.0"/>
      <point x="319.6" y="503.0" type="curve" smooth="yes"/>
      <point x="406.0" y="503.0"/>
      <point x="455.4" y="449.0"/>
      <point x="455.4" y="356.0" type="curve" smooth="yes"/>
      <point x="455.4" y="323.0" type="line"/>
      <point x="524.4" y="323.0" type="line"/>
      <point x="524.4" y="359.2" type="line" smooth="yes"/>
      <point x="524.4" y="482.6"/>
      <point x="451.0" y="560.0"/>
      <point x="335.2" y="560.0" type="curve" smooth="yes"/>
      <point x="239.6" y="560.0"/>
      <point x="179.8" y="500.4"/>
      <point x="179.2" y="407.8" type="curve"/>
      <point x="200.6" y="451.0" type="line"/>
      <point x="185.8" y="451.0" type="line"/>
      <point x="185.8" y="550.0" type="line"/>
      <point x="119.8" y="550.0" type="line"/>
    </contour>
  </outline>
</glyph>
<glyph name="s" format="2">
  <advance width="600.0"/>
  <unicode hex="0073"/>
  <anchor x="300.0" y="0.0" name="bottom"/>
  <anchor x="300.0" y="550.0" name="top"/>
  <outline>
    <contour>
      <point x="276.4" y="-9.2" type="curve" smooth="yes"/>
      <point x="333.4" y="-9.2" type="line" smooth="yes"/>
      <point x="446.6" y="-9.2"/>
      <point x="512.2" y="52.4"/>
      <point x="512.2" y="150.2" type="curve" smooth="yes"/>
      <point x="512.2" y="237.2"/>
      <point x="459.0" y="290.8"/>
      <point x="361.4" y="305.6" type="curve" smooth="yes"/>
      <point x="268.8" y="319.4" type="line" smooth="yes"/>
      <point x="205.6" y="329.0"/>
      <point x="171.8" y="358.6"/>
      <point x="171.8" y="408.4" type="curve" smooth="yes"/>
      <point x="171.8" y="465.4"/>
      <point x="214.6" y="500.2"/>
      <point x="284.8" y="500.2" type="curve" smooth="yes"/>
      <point x="325.2" y="500.2" type="line" smooth="yes"/>
      <point x="390.4" y="500.2"/>
      <point x="434.6" y="468.6"/>
      <point x="439.4" y="423.4" type="curve"/>
      <point x="506.2" y="423.4" type="line"/>
      <point x="500.2" y="505.2"/>
      <point x="430.8" y="559.2"/>
      <point x="326.0" y="559.2" type="curve" smooth="yes"/>
      <point x="285.6" y="559.2" type="line" smooth="yes"/>
      <point x="173.6" y="559.2"/>
      <point x="106.0" y="502.4"/>
      <point x="106.0" y="407.8" type="curve" smooth="yes"/>
      <point x="106.0" y="323.0"/>
      <point x="158.8" y="271.8"/>
      <point x="258.8" y="256.8" type="curve" smooth="yes"/>
      <point x="352.6" y="243.0" type="line" smooth="yes"/>
      <point x="411.8" y="234.2"/>
      <point x="447.6" y="197.4"/>
      <point x="447.6" y="144.4" type="curve" smooth="yes"/>
      <point x="447.6" y="86.8"/>
      <point x="406.4" y="49.8"/>
      <point x="334.2" y="49.8" type="curve" smooth="yes"/>
      <point x="277.2" y="49.8" type="line" smooth="yes"/>
      <point x="212.2" y="49.8"/>
      <point x="164.6" y="84.6"/>
      <point x="158.6" y="136.2" type="curve"/>
      <point x="91.8" y="136.2" type="line"/>
      <point x="97.2" y="48.8"/>
      <point x="171.2" y="-9.2"/>
    </contour>
  </outline>
</glyph>
<glyph name="t" format="2">
  <advance width="600.0"/>
  <unicode hex="0074"/>
  <anchor x="360.0" y="0.0" name="bottom"/>
  <anchor x="300.0" y="275.0" name="center"/>
  <anchor x="300.0" y="705.0" name="top"/>
  <anchor x="580.0" y="550.0" name="topright"/>
  <outline>
    <contour>
      <point x="360.0" y="0.0" type="curve" smooth="yes"/>
      <point x="501.0" y="0.0" type="line"/>
      <point x="501.0" y="59.8" type="line"/>
      <point x="360.0" y="59.8" type="line" smooth="yes"/>
      <point x="314.4" y="59.8"/>
      <point x="288.0" y="86.6"/>
      <point x="288.0" y="133.0" type="curve" smooth="yes"/>
      <point x="288.0" y="490.2" type="line"/>
      <point x="511.0" y="490.2" type="line"/>
      <point x="511.0" y="550.0" type="line"/>
      <point x="288.0" y="550.0" type="line"/>
      <point x="288.0" y="705.0" type="line"/>
      <point x="222.0" y="705.0" type="line"/>
      <point x="222.0" y="550.0" type="line"/>
      <point x="64.0" y="550.0" type="line"/>
      <point x="64.0" y="490.2" type="line"/>
      <point x="222.0" y="490.2" type="line"/>
      <point x="222.0" y="133.0" type="line" smooth="yes"/>
      <point x="222.0" y="49.2"/>
      <point x="273.2" y="0.0"/>
    </contour>
  </outline>
</glyph>
<glyph name="u" format="2">
  <advance width="600.0"/>
  <unicode hex="0075"/>
  <anchor x="300.0" y="0.0" name="bottom"/>
  <anchor x="414.0" y="550.0" name="horn"/>
  <anchor x="353.0" y="0.0" name="ogonek"/>
  <anchor x="300.0" y="550.0" name="top"/>
  <anchor x="580.0" y="550.0" name="topright"/>
  <outline>
    <contour>
      <point x="299.0" y="-10.0" type="curve" smooth="yes"/>
      <point x="421.8" y="-10.0"/>
      <point x="499.2" y="69.2"/>
      <point x="499.2" y="196.4" type="curve" smooth="yes"/>
      <point x="499.2" y="550.0" type="line"/>
      <point x="433.2" y="550.0" type="line"/>
      <point x="433.2" y="196.4" type="line" smooth="yes"/>
      <point x="433.2" y="103.2"/>
      <point x="382.4" y="48.6"/>
      <point x="299.0" y="48.6" type="curve" smooth="yes"/>
      <point x="216.6" y="48.6"/>
      <point x="166.8" y="103.2"/>
      <point x="166.8" y="196.4" type="curve" smooth="yes"/>
      <point x="166.8" y="550.0" type="line"/>
      <point x="100.8" y="550.0" type="line"/>
      <point x="100.8" y="196.4" type="line" smooth="yes"/>
      <point x="100.8" y="68.6"/>
      <point x="176.8" y="-10.0"/>
    </contour>
  </outline>
</glyph>
<glyph name="v" format="2">
  <advance width="600.0"/>
  <unicode hex="0076"/>
  <anchor x="300.0" y="0.0" name="bottom"/>
  <anchor x="300.0" y="550.0" name="top"/>
  <outline>
    <contour>
      <point x="257.8" y="0.0" type="line"/>
      <point x="342.2" y="0.0" type="line"/>
      <point x="534.4" y="550.0" type="line"/>
      <point x="466.2" y="550.0" type="line"/>
      <point x="333.2" y="156.0" type="line" smooth="yes"/>
      <point x="320.0" y="116.8"/>
      <point x="307.4" y="72.4"/>
      <point x="301.4" y="49.8" type="curve"/>
      <point x="294.8" y="72.4"/>
      <point x="283.0" y="116.8"/>
      <point x="269.8" y="156.0" type="curve" smooth="yes"/>
      <point x="134.6" y="550.0" type="line"/>
      <point x="65.6" y="550.0" type="line"/>
    </contour>
  </outline>
</glyph>
<glyph name="w" format="2">
  <advance width="600.0"/>
  <unicode hex="0077"/>
  <anchor x="300.0" y="0.0" name="bottom"/>
  <anchor x="300.0" y="550.0" name="top"/>
  <outline>
    <contour>
      <point x="135.0" y="0.0" type="line"/>
      <point x="214.2" y="0.0" type="line"/>
      <point x="282.2" y="386.6" type="line" smooth="yes"/>
      <point x="288.8" y="423.0"/>
      <point x="296.2" y="470.0"/>
      <point x="298.8" y="496.2" type="curve"/>
      <point x="301.6" y="496.2" type="line"/>
      <point x="304.2" y="470.0"/>
      <point x="312.6" y="423.0"/>
      <point x="318.6" y="386.6" type="curve" smooth="yes"/>
      <point x="383.6" y="0.0" type="line"/>
      <point x="462.8" y="0.0" type="line"/>
      <point x="556.0" y="550.0" type="line"/>
      <point x="498.8" y="550.0" type="line"/>
      <point x="435.2" y="148.6" type="line" smooth="yes"/>
      <point x="430.6" y="119.0"/>
      <point x="426.2" y="74.6"/>
      <point x="423.8" y="49.0" type="curve"/>
      <point x="421.0" y="49.0" type="line"/>
      <point x="418.4" y="75.0"/>
      <point x="412.2" y="118.6"/>
      <point x="406.6" y="148.0" type="curve" smooth="yes"/>
      <point x="334.2" y="550.0" type="line"/>
      <point x="267.0" y="550.0" type="line"/>
      <point x="194.6" y="148.0" type="line" smooth="yes"/>
      <point x="189.0" y="119.0"/>
      <point x="182.2" y="74.6"/>
      <point x="180.2" y="49.0" type="curve"/>
      <point x="177.4" y="49.0" type="line"/>
      <point x="174.8" y="74.6"/>
      <point x="170.8" y="119.0"/>
      <point x="166.2" y="148.6" type="curve" smooth="yes"/>
      <point x="103.4" y="550.0" type="line"/>
      <point x="44.0" y="550.0" type="line"/>
    </contour>
  </outline>
</glyph>
<glyph name="x" format="2">
  <advance width="600.0"/>
  <unicode hex="0078"/>
  <anchor x="300.0" y="0.0" name="bottom"/>
  <anchor x="300.0" y="550.0" name="top"/>
  <outline>
    <contour>
      <point x="65.0" y="0.0" type="line"/>
      <point x="141.2" y="0.0" type="line"/>
      <point x="274.0" y="198.0" type="line" smooth="yes"/>
      <point x="282.8" y="211.2"/>
      <point x="294.4" y="230.2"/>
      <point x="300.4" y="240.4" type="curve"/>
      <point x="306.4" y="230.2"/>
      <point x="317.2" y="211.2"/>
      <point x="326.0" y="198.0" type="curve" smooth="yes"/>
      <point x="457.8" y="0.0" type="line"/>
      <point x="535.0" y="0.0" type="line"/>
      <point x="340.4" y="282.0" type="line"/>
      <point x="524.0" y="550.0" type="line"/>
      <point x="447.2" y="550.0" type="line"/>
      <point x="324.0" y="362.0" type="line" smooth="yes"/>
      <point x="315.8" y="350.0"/>
      <point x="306.2" y="332.8"/>
      <point x="301.0" y="323.0" type="curve"/>
      <point x="295.4" y="332.8"/>
      <point x="286.0" y="349.4"/>
      <point x="278.2" y="362.0" type="curve" smooth="yes"/>
      <point x="154.8" y="550.0" type="line"/>
      <point x="77.0" y="550.0" type="line"/>
      <point x="260.6" y="282.4" type="line"/>
    </contour>
  </outline>
</glyph>
<glyph name="y" format="2">
  <advance width="600.0"/>
  <unicode hex="0079"/>
  <anchor x="300.0" y="0.0" name="bottom"/>
  <anchor x="300.0" y="550.0" name="top"/>
  <outline>
    <contour>
      <point x="191.0" y="-180.0" type="line"/>
      <point x="259.2" y="-180.0" type="line"/>
      <point x="534.4" y="550.0" type="line"/>
      <point x="463.8" y="550.0" type="line"/>
      <point x="337.6" y="205.2" type="line" smooth="yes"/>
      <point x="325.6" y="172.6"/>
      <point x="312.8" y="133.0"/>
      <point x="306.0" y="112.6" type="curve"/>
      <point x="299.8" y="133.0"/>
      <point x="285.6" y="172.6"/>
      <point x="273.6" y="204.0" type="curve" smooth="yes"/>
      <point x="138.4" y="550.0" type="line"/>
      <point x="65.6" y="550.0" type="line"/>
      <point x="272.0" y="37.0" type="line"/>
    </contour>
  </outline>
</glyph>
<glyph name="z" format="2">
  <advance width="600.0"/>
  <unicode hex="007A"/>
  <anchor x="300.0" y="0.0" name="bottom"/>
  <anchor x="300.0" y="275.0" name="center"/>
  <anchor x="300.0" y="550.0" name="top"/>
  <outline>
    <contour>
      <point x="97.8" y="0.0" type="line"/>
      <point x="502.2" y="0.0" type="line"/>
      <point x="502.2" y="59.8" type="line"/>
      <point x="169.4" y="59.8" type="line"/>
      <point x="490.0" y="485.8" type="line"/>
      <point x="490.0" y="550.0" type="line"/>
      <point x="106.4" y="550.0" type="line"/>
      <point x="106.4" y="490.2" type="line"/>
      <point x="415.4" y="490.2" type="line"/>
      <point x="97.8" y="63.6" type="line"/>
    </contour>
  </outline>
</glyph>
<glyph name="braceleft" format="2">
  <advance width="600.0"/>
  <unicode hex="007B"/>
  <outline>
    <contour>
      <point x="445.0" y="-110.0" type="curve" smooth="yes"/>
      <point x="496.0" y="-110.0" type="line"/>
      <point x="496.0" y="-51.0" type="line"/>
      <point x="445.0" y="-51.0" type="line" smooth="yes"/>
      <point x="382.6" y="-51.0"/>
      <point x="340.8" y="-15.399999999999999"/>
      <point x="347.0" y="46.4" type="curve" smooth="yes"/>
      <point x="365.0" y="230.2" type="line" smooth="yes"/>
      <point x="373.0" y="310.2"/>
      <point x="323.8" y="365.2"/>
      <point x="250.0" y="365.2" type="curve"/>
      <point x="250.0" y="359.0" type="line"/>
      <point x="324.2" y="359.0"/>
      <point x="373.0" y="409.4"/>
      <point x="365.0" y="489.2" type="curve" smooth="yes"/>
      <point x="347.0" y="673.6" type="line" smooth="yes"/>
      <point x="340.8" y="735.4"/>
      <point x="382.6" y="771.0"/>
      <point x="445.0" y="771.0" type="curve" smooth="yes"/>
      <point x="496.0" y="771.0" type="line"/>
      <point x="496.0" y="830.0" type="line"/>
      <point x="445.0" y="830.0" type="line" smooth="yes"/>
      <point x="340.2" y="830.0"/>
      <point x="271.0" y="772.6"/>
      <point x="281.0" y="673.6" type="curve" smooth="yes"/>
      <point x="299.0" y="489.2" type="line" smooth="yes"/>
      <point x="305.6" y="416.4"/>
      <point x="283.0" y="389.2"/>
      <point x="199.0" y="389.2" type="curve" smooth="yes"/>
      <point x="84.0" y="389.2" type="line"/>
      <point x="84.0" y="329.6" type="line"/>
      <point x="199.0" y="329.6" type="line" smooth="yes"/>
      <point x="285.0" y="329.6"/>
      <point x="305.6" y="301.2"/>
      <point x="299.0" y="230.2" type="curve" smooth="yes"/>
      <point x="281.0" y="46.4" type="line" smooth="yes"/>
      <point x="271.0" y="-52.6"/>
      <point x="340.2" y="-110.0"/>
    </contour>
  </outline>
</glyph>
<glyph name="bar" format="2">
  <advance width="600.0"/>
  <unicode hex="007C"/>
  <outline>
    <contour>
      <point x="267.0" y="-110.0" type="line"/>
      <point x="333.0" y="-110.0" type="line"/>
      <point x="333.0" y="830.0" type="line"/>
      <point x="267.0" y="830.0" type="line"/>
    </contour>
  </outline>
</glyph>
<glyph name="braceright" format="2">
  <advance width="600.0"/>
  <unicode hex="007D"/>
  <outline>
    <contour>
      <point x="104.0" y="-110.0" type="line"/>
      <point x="154.4" y="-110.0" type="line" smooth="yes"/>
      <point x="259.2" y="-110.0"/>
      <point x="327.2" y="-52.6"/>
      <point x="318.4" y="46.4" type="curve" smooth="yes"/>
      <point x="302.2" y="230.2" type="line" smooth="yes"/>
      <point x="296.2" y="301.2"/>
      <point x="316.2" y="329.6"/>
      <point x="402.2" y="329.6" type="curve" smooth="yes"/>
      <point x="516.0" y="329.6" type="line"/>
      <point x="516.0" y="389.2" type="line"/>
      <point x="402.2" y="389.2" type="line" smooth="yes"/>
      <point x="318.2" y="389.2"/>
      <point x="296.2" y="416.4"/>
      <point x="302.2" y="489.2" type="curve" smooth="yes"/>
      <point x="318.4" y="673.6" type="line" smooth="yes"/>
      <point x="327.2" y="772.6"/>
      <point x="259.2" y="830.0"/>
      <point x="154.4" y="830.0" type="curve" smooth="yes"/>
      <point x="104.0" y="830.0" type="line"/>
      <point x="104.0" y="771.0" type="line"/>
      <point x="154.4" y="771.0" type="line" smooth="yes"/>
      <point x="216.8" y="771.0"/>
      <point x="258.0" y="735.4"/>
      <point x="252.4" y="673.6" type="curve" smooth="yes"/>
      <point x="236.2" y="489.2" type="line" smooth="yes"/>
      <point x="229.4" y="409.4"/>
      <point x="277.0" y="359.4"/>
      <point x="351.2" y="359.4" type="curve"/>
      <point x="351.2" y="365.6" type="line"/>
      <point x="277.4" y="365.6"/>
      <point x="228.8" y="310.2"/>
      <point x="236.2" y="230.2" type="curve" smooth="yes"/>
      <point x="252.4" y="46.4" type="line" smooth="yes"/>
      <point x="258.0" y="-15.399999999999999"/>
      <point x="216.8" y="-51.0"/>
      <point x="154.4" y="-51.0" type="curve" smooth="yes"/>
      <point x="104.0" y="-51.0" type="line"/>
    </contour>
  </outline>
</glyph>
<glyph name="asciitilde" format="2">
  <advance width="600.0"/>
  <unicode hex="007E"/>
  <outline>
    <contour>
      <point x="82.0" y="258.0" type="line"/>
      <point x="143.0" y="258.0" type="line"/>
      <point x="143.0" y="331.0" type="line" smooth="yes"/>
      <point x="143.0" y="371.2"/>
      <point x="163.0" y="393.8"/>
      <point x="197.8" y="393.8" type="curve" smooth="yes"/>
      <point x="276.0" y="393.8"/>
      <point x="284.0" y="256.0"/>
      <point x="406.0" y="256.0" type="curve" smooth="yes"/>
      <point x="475.0" y="256.0"/>
      <point x="518.0" y="301.8"/>
      <point x="518.0" y="374.0" type="curve" smooth="yes"/>
      <point x="518.0" y="447.0" type="line"/>
      <point x="457.0" y="447.0" type="line"/>
      <point x="457.0" y="374.0" type="line" smooth="yes"/>
      <point x="457.0" y="333.8"/>
      <point x="438.2" y="311.2"/>
      <point x="405.2" y="311.2" type="curve" smooth="yes"/>
      <point x="324.6" y="311.2"/>
      <point x="316.0" y="449.0"/>
      <point x="197.0" y="449.0" type="curve" smooth="yes"/>
      <point x="126.8" y="449.0"/>
      <point x="82.0" y="403.0"/>
      <point x="82.0" y="331.0" type="curve" smooth="yes"/>
    </contour>
  </outline>
</glyph>
<glyph name="exclamdown" format="2">
  <advance width="600.0"/>
  <unicode hex="00A1"/>
  <outline>
    <contour>
      <point x="262.0" y="-180.0" type="line"/>
      <point x="341.6" y="-180.0" type="line"/>
      <point x="341.6" y="-34.0" type="line"/>
      <point x="323.6" y="341.4" type="line"/>
      <point x="280.0" y="341.4" type="line"/>
      <point x="262.0" y="-34.0" type="line"/>
    </contour>
    <contour>
      <point x="294.2" y="441.4" type="curve" smooth="yes"/>
      <point x="305.2" y="441.4" type="line" smooth="yes"/>
      <point x="340.6" y="441.4"/>
      <point x="364.2" y="464.6"/>
      <point x="364.2" y="499.2" type="curve" smooth="yes"/>
      <point x="364.2" y="533.4"/>
      <point x="340.6" y="555.4"/>
      <point x="305.2" y="555.4" type="curve" smooth="yes"/>
      <point x="294.2" y="555.4" type="line" smooth="yes"/>
      <point x="258.8" y="555.4"/>
      <point x="235.2" y="533.0"/>
      <point x="235.2" y="498.8" type="curve" smooth="yes"/>
      <point x="235.2" y="464.6"/>
      <point x="258.8" y="441.4"/>
    </contour>
  </outline>
</glyph>
<glyph name="sterling" format="2">
  <advance width="600.0"/>
  <unicode hex="00A3"/>
  <outline>
    <contour>
      <point x="75.0" y="0.0" type="line"/>
      <point x="535.0" y="0.0" type="line"/>
      <point x="535.0" y="59.0" type="line"/>
      <point x="144.0" y="59.0" type="line"/>
      <point x="194.6" y="90.0"/>
      <point x="262.4" y="162.2"/>
      <point x="262.4" y="246.2" type="curve" smooth="yes"/>
      <point x="262.4" y="387.2"/>
      <point x="164.4" y="431.6"/>
      <point x="164.4" y="547.0" type="curve" smooth="yes"/>
      <point x="164.4" y="630.8"/>
      <point x="215.0" y="681.0"/>
      <point x="299.0" y="681.0" type="curve" smooth="yes"/>
      <point x="390.0" y="681.0"/>
      <point x="447.6" y="630.8"/>
      <point x="447.6" y="550.0" type="curve"/>
      <point x="515.6" y="550.0" type="line"/>
      <point x="513.6" y="667.8"/>
      <point x="431.4" y="740.0"/>
      <point x="300.0" y="740.0" type="curve" smooth="yes"/>
      <point x="175.6" y="740.0"/>
      <point x="98.0" y="666.8"/>
      <point x="98.0" y="549.6" type="curve" smooth="yes"/>
      <point x="98.0" y="421.2"/>
      <point x="196.0" y="382.4"/>
      <point x="196.0" y="242.6" type="curve" smooth="yes"/>
      <point x="196.0" y="174.6"/>
      <point x="126.8" y="104.0"/>
      <point x="75.0" y="70.0" type="curve"/>
    </contour>
    <contour>
      <point x="75.0" y="314.0" type="line"/>
      <point x="435.0" y="314.0" type="line"/>
      <point x="435.0" y="373.0" type="line"/>
      <point x="75.0" y="373.0" type="line"/>
    </contour>
  </outline>
</glyph>
<glyph name="currency" format="2">
  <advance width="600.0"/>
  <unicode hex="00A4"/>
  <outline>
    <contour>
      <point x="502.2" y="123.2" type="line"/>
      <point x="548.4" y="170.0" type="line"/>
      <point x="464.6" y="253.8" type="line"/>
      <point x="488.2" y="287.0"/>
      <point x="502.6" y="327.4"/>
      <point x="502.6" y="373.0" type="curve" smooth="yes"/>
      <point x="502.6" y="418.2"/>
      <point x="488.6" y="459.2"/>
      <point x="464.4" y="491.8" type="curve"/>
      <point x="548.6" y="576.0" type="line"/>
      <point x="503.8" y="620.8" type="line"/>
      <point x="419.2" y="536.2" type="line"/>
      <point x="386.4" y="559.2"/>
      <point x="346.0" y="572.0"/>
      <point x="301.0" y="572.0" type="curve" smooth="yes"/>
      <point x="256.8" y="572.0"/>
      <point x="216.6" y="559.0"/>
      <point x="184.4" y="536.8" type="curve"/>
      <point x="97.0" y="624.2" type="line"/>
      <point x="50.8" y="577.4" type="line"/>
      <point x="136.8" y="491.4" type="line"/>
      <point x="112.4" y="458.8"/>
      <point x="98.6" y="418.4"/>
      <point x="98.6" y="373.0" type="curve" smooth="yes"/>
      <point x="98.6" y="327.4"/>
      <point x="113.0" y="286.6"/>
      <point x="137.0" y="253.8" type="curve"/>
      <point x="52.8" y="169.8" type="line"/>
      <point x="98.0" y="124.6" type="line"/>
      <point x="183.6" y="209.6" type="line"/>
      <point x="215.8" y="187.0"/>
      <point x="256.4" y="174.0"/>
      <point x="301.0" y="174.0" type="curve" smooth="yes"/>
      <point x="344.6" y="174.0"/>
      <point x="384.6" y="186.4"/>
      <point x="417.0" y="208.4" type="curve"/>
    </contour>
    <contour>
      <point x="301.0" y="230.4" type="curve" smooth="yes"/>
      <point x="220.6" y="230.4"/>
      <point x="159.4" y="291.6"/>
      <point x="159.4" y="373.0" type="curve" smooth="yes"/>
      <point x="159.4" y="454.4"/>
      <point x="220.6" y="515.6"/>
      <point x="301.0" y="515.6" type="curve" smooth="yes"/>
      <point x="381.0" y="515.6"/>
      <point x="441.8" y="454.4"/>
      <point x="441.8" y="373.0" type="curve" smooth="yes"/>
      <point x="441.8" y="291.6"/>
      <point x="381.0" y="230.4"/>
    </contour>
  </outline>
</glyph>
<glyph name="yen" format="2">
  <advance width="600.0"/>
  <unicode hex="00A5"/>
  <anchor x="300.0" y="0.0" name="bottom"/>
  <anchor x="300.0" y="730.0" name="top"/>
  <anchor x="20.0" y="730.0" name="topleft"/>
  <outline>
    <contour>
      <point x="60.0" y="270.0" type="line"/>
      <point x="540.0" y="270.0" type="line"/>
      <point x="540.0" y="330.0" type="line"/>
      <point x="60.0" y="330.0" type="line"/>
    </contour>
    <contour>
      <point x="60.0" y="135.0" type="line"/>
      <point x="540.0" y="135.0" type="line"/>
      <point x="540.0" y="195.0" type="line"/>
      <point x="60.0" y="195.0" type="line"/>
    </contour>
    <component base="Y"/>
  </outline>
</glyph>
<glyph name="section" format="2">
  <advance width="600.0"/>
  <unicode hex="00A7"/>
  <outline>
    <contour>
      <point x="277.2" y="-154.6" type="curve" smooth="yes"/>
      <point x="329.4" y="-154.6" type="line" smooth="yes"/>
      <point x="443.0" y="-154.6"/>
      <point x="513.4" y="-91.4"/>
      <point x="513.4" y="7.2" type="curve" smooth="yes"/>
      <point x="513.4" y="99.6"/>
      <point x="446.6" y="145.0"/>
      <point x="395.8" y="153.4" type="curve"/>
      <point x="395.8" y="158.6" type="line"/>
      <point x="465.6" y="167.0"/>
      <point x="512.6" y="227.4"/>
      <point x="512.6" y="301.4" type="curve" smooth="yes"/>
      <point x="512.6" y="382.4"/>
      <point x="456.4" y="442.8"/>
      <point x="368.6" y="462.8" type="curve" smooth="yes"/>
      <point x="269.6" y="485.4" type="line" smooth="yes"/>
      <point x="205.0" y="500.2"/>
      <point x="167.8" y="536.2"/>
      <point x="167.8" y="586.4" type="curve" smooth="yes"/>
      <point x="167.8" y="644.2"/>
      <point x="212.6" y="681.0"/>
      <point x="284.8" y="681.0" type="curve" smooth="yes"/>
      <point x="322.0" y="681.0" type="line" smooth="yes"/>
      <point x="384.8" y="681.0"/>
      <point x="430.6" y="647.8"/>
      <point x="439.4" y="601.0" type="curve"/>
      <point x="507.4" y="601.0" type="line"/>
      <point x="495.8" y="684.4"/>
      <point x="424.0" y="740.0"/>
      <point x="322.0" y="740.0" type="curve" smooth="yes"/>
      <point x="284.8" y="740.0" type="line" smooth="yes"/>
      <point x="171.2" y="740.0"/>
      <point x="100.8" y="680.0"/>
      <point x="100.8" y="586.2" type="curve" smooth="yes"/>
      <point x="100.8" y="494.0"/>
      <point x="167.0" y="451.8"/>
      <point x="217.4" y="446.2" type="curve"/>
      <point x="217.4" y="441.0" type="line"/>
      <point x="147.6" y="426.8"/>
      <point x="99.2" y="368.2"/>
      <point x="99.2" y="295.2" type="curve" smooth="yes"/>
      <point x="99.2" y="214.8"/>
      <point x="157.2" y="153.4"/>
      <point x="249.2" y="133.0" type="curve" smooth="yes"/>
      <point x="350.2" y="110.4" type="line" smooth="yes"/>
      <point x="411.2" y="97.0"/>
      <point x="447.6" y="55.2"/>
      <point x="447.6" y="1.200000000000001" type="curve" smooth="yes"/>
      <point x="447.6" y="-57.4"/>
      <point x="403.6" y="-95.6"/>
      <point x="329.4" y="-95.6" type="curve" smooth="yes"/>
      <point x="277.2" y="-95.6" type="line" smooth="yes"/>
      <point x="213.4" y="-95.6"/>
      <point x="165.4" y="-58.4"/>
      <point x="154.6" y="-6.0" type="curve"/>
      <point x="86.6" y="-6.0" type="line"/>
      <point x="98.0" y="-93.8"/>
      <point x="173.6" y="-154.6"/>
    </contour>
    <contour>
      <point x="333.0" y="176.6" type="curve" smooth="yes"/>
      <point x="260.0" y="192.8" type="line" smooth="yes"/>
      <point x="201.4" y="206.0"/>
      <point x="166.2" y="248.4"/>
      <point x="166.2" y="301.8" type="curve" smooth="yes"/>
      <point x="166.2" y="374.0"/>
      <point x="223.4" y="433.0"/>
      <point x="284.8" y="419.2" type="curve" smooth="yes"/>
      <point x="358.2" y="403.0" type="line" smooth="yes"/>
      <point x="411.2" y="391.2"/>
      <point x="446.8" y="346.6"/>
      <point x="446.8" y="293.0" type="curve" smooth="yes"/>
      <point x="446.8" y="220.2"/>
      <point x="393.8" y="162.8"/>
    </contour>
  </outline>
</glyph>
<glyph name="copyright" format="2">
  <advance width="600.0"/>
  <unicode hex="00A9"/>
  <outline>
    <contour>
      <point x="300.0" y="110.0" type="curve" smooth="yes"/>
      <point x="450.6" y="110.0"/>
      <point x="550.8" y="205.4"/>
      <point x="550.8" y="350.0" type="curve" smooth="yes"/>
      <point x="550.8" y="500.0" type="line" smooth="yes"/>
      <point x="550.8" y="644.6"/>
      <point x="450.6" y="740.0"/>
      <point x="300.0" y="740.0" type="curve" smooth="yes"/>
      <point x="149.4" y="740.0"/>
      <point x="49.2" y="644.6"/>
      <point x="49.2" y="500.0" type="curve" smooth="yes"/>
      <point x="49.2" y="350.0" type="line" smooth="yes"/>
      <point x="49.2" y="205.4"/>
      <point x="149.4" y="110.0"/>
    </contour>
    <contour>
      <point x="300.0" y="152.8" type="curve" smooth="yes"/>
      <point x="179.2" y="152.8"/>
      <point x="97.0" y="231.8"/>
      <point x="97.0" y="350.0" type="curve" smooth="yes"/>
      <point x="97.0" y="500.0" type="line" smooth="yes"/>
      <point x="97.0" y="618.2"/>
      <point x="179.2" y="697.2"/>
      <point x="300.0" y="697.2" type="curve" smooth="yes"/>
      <point x="421.2" y="697.2"/>
      <point x="503.0" y="618.2"/>
      <point x="503.0" y="500.0" type="curve" smooth="yes"/>
      <point x="503.0" y="350.0" type="line" smooth="yes"/>
      <point x="503.0" y="231.8"/>
      <point x="421.2" y="152.8"/>
    </contour>
    <contour>
      <point x="305.0" y="245.0" type="curve" smooth="yes"/>
      <point x="375.4" y="245.0"/>
      <point x="423.0" y="291.0"/>
      <point x="423.0" y="360.0" type="curve"/>
      <point x="370.0" y="360.0" type="line"/>
      <point x="370.0" y="318.6"/>
      <point x="343.6" y="291.0"/>
      <point x="305.0" y="291.0" type="curve" smooth="yes"/>
      <point x="265.4" y="291.0"/>
      <point x="239.0" y="318.6"/>
      <point x="239.0" y="360.0" type="curve" smooth="yes"/>
      <point x="239.0" y="490.0" type="line" smooth="yes"/>
      <point x="239.0" y="531.4"/>
      <point x="265.4" y="559.0"/>
      <point x="305.0" y="559.0" type="curve" smooth="yes"/>
      <point x="343.6" y="559.0"/>
      <point x="370.0" y="531.4"/>
      <point x="370.0" y="490.0" type="curve"/>
      <point x="423.0" y="490.0" type="line"/>
      <point x="423.0" y="559.0"/>
      <point x="375.4" y="605.0"/>
      <point x="305.0" y="605.0" type="curve" smooth="yes"/>
      <point x="233.6" y="605.0"/>
      <point x="186.0" y="559.0"/>
      <point x="186.0" y="490.0" type="curve" smooth="yes"/>
      <point x="186.0" y="360.0" type="line" smooth="yes"/>
      <point x="186.0" y="291.0"/>
      <point x="233.6" y="245.0"/>
    </contour>
  </outline>
</glyph>
<glyph name="ordfeminine" format="2">
  <advance width="600.0"/>
  <unicode hex="00AA"/>
  <outline>
    <contour>
      <point x="379.0" y="455.0" type="line"/>
      <point x="417.0" y="455.0" type="line"/>
      <point x="417.0" y="650.0" type="line" smooth="yes"/>
      <point x="417.0" y="704.8"/>
      <point x="373.0" y="740.0"/>
      <point x="305.0" y="740.0" type="curve" smooth="yes"/>
      <point x="244.4" y="740.0"/>
      <point x="201.2" y="709.2"/>
      <point x="193.0" y="660.0" type="curve"/>
      <point x="234.0" y="660.0" type="line"/>
      <point x="239.2" y="687.6"/>
      <point x="267.6" y="706.0"/>
      <point x="305.0" y="706.0" type="curve" smooth="yes"/>
      <point x="348.0" y="706.0"/>
      <point x="376.0" y="684.0"/>
      <point x="376.0" y="650.0" type="curve" smooth="yes"/>
      <point x="376.0" y="510.0" type="line"/>
      <point x="379.0" y="510.0" type="line"/>
    </contour>
    <contour>
      <point x="274.0" y="450.0" type="curve" smooth="yes"/>
      <point x="322.4" y="450.0"/>
      <point x="362.6" y="473.6"/>
      <point x="376.0" y="510.0" type="curve"/>
      <point x="387.0" y="510.0" type="line"/>
      <point x="387.0" y="555.0" type="line"/>
      <point x="376.0" y="555.0" type="line"/>
      <point x="376.0" y="510.0"/>
      <point x="341.4" y="482.0"/>
      <point x="287.0" y="482.0" type="curve" smooth="yes"/>
      <point x="245.4" y="482.0"/>
      <point x="219.0" y="502.4"/>
      <point x="219.0" y="535.4" type="curve" smooth="yes"/>
      <point x="219.0" y="566.4"/>
      <point x="241.4" y="586.4"/>
      <point x="277.0" y="586.4" type="curve" smooth="yes"/>
      <point x="387.0" y="586.4" type="line"/>
      <point x="387.0" y="620.4" type="line"/>
      <point x="277.0" y="620.4" type="line" smooth="yes"/>
      <point x="216.8" y="620.4"/>
      <point x="178.0" y="586.8"/>
      <point x="178.0" y="535.4" type="curve" smooth="yes"/>
      <point x="178.0" y="483.4"/>
      <point x="215.2" y="450.0"/>
    </contour>
  </outline>
</glyph>
<glyph name="guillemetleft" format="2">
  <advance width="600.0"/>
  <unicode hex="00AB"/>
  <outline>
    <contour>
      <point x="479.4" y="40.0" type="line"/>
      <point x="558.0" y="40.0" type="line"/>
      <point x="350.8" y="282.0" type="line"/>
      <point x="558.0" y="520.0" type="line"/>
      <point x="479.6" y="520.0" type="line"/>
      <point x="273.2" y="280.0" type="line"/>
    </contour>
    <contour>
      <point x="248.2" y="40.0" type="line"/>
      <point x="326.8" y="40.0" type="line"/>
      <point x="119.6" y="282.0" type="line"/>
      <point x="326.8" y="520.0" type="line"/>
      <point x="248.4" y="520.0" type="line"/>
      <point x="42.0" y="280.0" type="line"/>
    </contour>
  </outline>
</glyph>
<glyph name="logicalnot" format="2">
  <advance width="600.0"/>
  <unicode hex="00AC"/>
  <outline>
    <contour>
      <point x="466.0" y="211.0" type="line"/>
      <point x="530.0" y="211.0" type="line"/>
      <point x="530.0" y="406.0" type="line"/>
      <point x="70.0" y="406.0" type="line"/>
      <point x="70.0" y="347.0" type="line"/>
      <point x="466.0" y="347.0" type="line"/>
    </contour>
  </outline>
</glyph>
<glyph name="registered" format="2">
  <advance width="600.0"/>
  <unicode hex="00AE"/>
  <outline>
    <contour>
      <point x="300.0" y="110.0" type="curve" smooth="yes"/>
      <point x="450.6" y="110.0"/>
      <point x="550.8" y="205.4"/>
      <point x="550.8" y="350.0" type="curve" smooth="yes"/>
      <point x="550.8" y="500.0" type="line" smooth="yes"/>
      <point x="550.8" y="644.6"/>
      <point x="450.6" y="740.0"/>
      <point x="300.0" y="740.0" type="curve" smooth="yes"/>
      <point x="149.4" y="740.0"/>
      <point x="49.2" y="644.6"/>
      <point x="49.2" y="500.0" type="curve" smooth="yes"/>
      <point x="49.2" y="350.0" type="line" smooth="yes"/>
      <point x="49.2" y="205.4"/>
      <point x="149.4" y="110.0"/>
    </contour>
    <contour>
      <point x="97.0" y="350.0" type="curve" smooth="yes"/>
      <point x="97.0" y="500.0" type="line" smooth="yes"/>
      <point x="97.0" y="618.2"/>
      <point x="179.2" y="697.2"/>
      <point x="300.0" y="697.2" type="curve" smooth="yes"/>
      <point x="421.2" y="697.2"/>
      <point x="503.0" y="618.2"/>
      <point x="503.0" y="500.0" type="curve" smooth="yes"/>
      <point x="503.0" y="350.0" type="line" smooth="yes"/>
      <point x="503.0" y="231.8"/>
      <point x="421.2" y="152.8"/>
      <point x="300.0" y="152.8" type="curve" smooth="yes"/>
      <point x="179.2" y="152.8"/>
      <point x="97.0" y="231.8"/>
    </contour>
    <contour>
      <point x="196.0" y="250.0" type="line"/>
      <point x="247.0" y="250.0" type="line"/>
      <point x="247.0" y="393.0" type="line"/>
      <point x="304.045" y="393.0" type="line"/>
      <point x="365.4" y="250.0" type="line"/>
      <point x="419.8" y="250.0" type="line"/>
      <point x="352.59319999999997" y="401.3526" type="line"/>
      <point x="391.8374" y="416.359"/>
      <point x="415.6" y="451.0228"/>
      <point x="415.6" y="496.8" type="curve" smooth="yes"/>
      <point x="415.6" y="559.6"/>
      <point x="371.8" y="600.0"/>
      <point x="304.6" y="600.0" type="curve" smooth="yes"/>
      <point x="196.0" y="600.0" type="line"/>
    </contour>
    <contour>
      <point x="247.0" y="437.0" type="line"/>
      <point x="247.0" y="556.0" type="line"/>
      <point x="304.6" y="556.0" type="line" smooth="yes"/>
      <point x="343.2" y="556.0"/>
      <point x="367.2" y="533.6"/>
      <point x="367.2" y="496.2" type="curve" smooth="yes"/>
      <point x="367.2" y="459.4"/>
      <point x="343.2" y="437.0"/>
      <point x="304.6" y="437.0" type="curve" smooth="yes"/>
    </contour>
  </outline>
</glyph>
<glyph name="degree" format="2">
  <advance width="600.0"/>
  <unicode hex="00B0"/>
  <outline>
    <contour>
      <point x="300.0" y="450.0" type="curve" smooth="yes"/>
      <point x="388.2" y="450.0"/>
      <point x="447.0" y="508.0"/>
      <point x="447.0" y="595.0" type="curve" smooth="yes"/>
      <point x="447.0" y="682.0"/>
      <point x="388.2" y="740.0"/>
      <point x="300.0" y="740.0" type="curve" smooth="yes"/>
      <point x="211.8" y="740.0"/>
      <point x="153.0" y="682.6"/>
      <point x="153.0" y="595.0" type="curve" smooth="yes"/>
      <point x="153.0" y="508.0"/>
      <point x="211.8" y="450.0"/>
    </contour>
    <contour>
      <point x="299.6" y="494.4" type="curve" smooth="yes"/>
      <point x="242.4" y="494.4"/>
      <point x="204.0" y="534.8"/>
      <point x="204.0" y="595.0" type="curve" smooth="yes"/>
      <point x="204.0" y="656.2"/>
      <point x="242.4" y="696.6"/>
      <point x="299.6" y="696.6" type="curve" smooth="yes"/>
      <point x="357.6" y="696.6"/>
      <point x="396.0" y="656.2"/>
      <point x="396.0" y="595.0" type="curve" smooth="yes"/>
      <point x="396.0" y="534.8"/>
      <point x="357.6" y="494.4"/>
    </contour>
  </outline>
</glyph>
<glyph name="plusminus" format="2">
  <advance width="600.0"/>
  <unicode hex="00B1"/>
  <outline>
    <contour>
      <point x="70.0" y="0.0" type="line"/>
      <point x="530.0" y="0.0" type="line"/>
      <point x="530.0" y="55.0" type="line"/>
      <point x="330.8" y="55.0" type="line"/>
      <point x="330.8" y="307.0" type="line"/>
      <point x="532.0" y="307.0" type="line"/>
      <point x="532.0" y="366.0" type="line"/>
      <point x="330.8" y="366.0" type="line"/>
      <point x="330.8" y="570.0" type="line"/>
      <point x="266.2" y="570.0" type="line"/>
      <point x="266.2" y="366.0" type="line"/>
      <point x="68.0" y="366.0" type="line"/>
      <point x="68.0" y="307.0" type="line"/>
      <point x="266.2" y="307.0" type="line"/>
      <point x="266.2" y="55.0" type="line"/>
      <point x="70.0" y="55.0" type="line"/>
    </contour>
  </outline>
</glyph>
<glyph name="twosuperior" format="2">
  <advance width="600.0"/>
  <unicode hex="00B2"/>
  <outline>
    <contour>
      <point x="168.4" y="405.0" type="line"/>
      <point x="452.0" y="405.0" type="line"/>
      <point x="452.0" y="454.6" type="line"/>
      <point x="226.8" y="454.6" type="line"/>
      <point x="351.8" y="550.2" type="line" smooth="yes"/>
      <point x="405.6" y="591.0"/>
      <point x="439.2" y="649.2"/>
      <point x="439.2" y="701.6" type="curve" smooth="yes"/>
      <point x="439.2" y="786.8"/>
      <point x="385.0" y="840.0"/>
      <point x="298.0" y="840.0" type="curve" smooth="yes"/>
      <point x="212.6" y="840.0"/>
      <point x="158.0" y="784.6"/>
      <point x="156.4" y="697.2" type="curve"/>
      <point x="211.4" y="697.2" type="line"/>
      <point x="211.4" y="755.0"/>
      <point x="245.0" y="790.8"/>
      <point x="298.0" y="790.8" type="curve" smooth="yes"/>
      <point x="351.0" y="790.8"/>
      <point x="384.6" y="755.6"/>
      <point x="384.6" y="699.0" type="curve" smooth="yes"/>
      <point x="384.6" y="662.4"/>
      <point x="360.6" y="620.2"/>
      <point x="322.6" y="590.2" type="curve" smooth="yes"/>
      <point x="168.4" y="470.4" type="line"/>
    </contour>
  </outline>
</glyph>
<glyph name="threesuperior" format="2">
  <advance width="600.0"/>
  <unicode hex="00B3"/>
  <outline>
    <contour>
      <point x="284.0" y="395.0" type="curve" smooth="yes"/>
      <point x="370.8" y="395.0"/>
      <point x="426.0" y="448.4"/>
      <point x="426.0" y="532.0" type="curve" smooth="yes"/>
      <point x="426.0" y="614.0"/>
      <point x="371.2" y="666.6"/>
      <point x="285.6" y="666.6" type="curve"/>
      <point x="285.6" y="647.6" type="line"/>
      <point x="399.6" y="772.4" type="line"/>
      <point x="399.6" y="830.4" type="line"/>
      <point x="171.0" y="830.4" type="line"/>
      <point x="171.0" y="780.8" type="line"/>
      <point x="351.6" y="780.8" type="line"/>
      <point x="255.0" y="675.0" type="line"/>
      <point x="255.0" y="620.6" type="line"/>
      <point x="284.4" y="620.6" type="line" smooth="yes"/>
      <point x="336.4" y="620.6"/>
      <point x="370.2" y="586.2"/>
      <point x="370.2" y="532.0" type="curve" smooth="yes"/>
      <point x="370.2" y="478.4"/>
      <point x="336.4" y="444.2"/>
      <point x="284.0" y="444.2" type="curve" smooth="yes"/>
      <point x="229.6" y="444.2"/>
      <point x="195.4" y="478.4"/>
      <point x="195.4" y="532.0" type="curve"/>
      <point x="140.8" y="532.0" type="line"/>
      <point x="140.8" y="448.4"/>
      <point x="196.6" y="395.0"/>
    </contour>
  </outline>
</glyph>
<glyph name="paragraph" format="2">
  <advance width="600.0"/>
  <unicode hex="00B6"/>
  <outline>
    <contour>
      <point x="264.0" y="-180.0" type="line"/>
      <point x="326.0" y="-180.0" type="line"/>
      <point x="326.0" y="730.0" type="line"/>
      <point x="264.0" y="730.0" type="line" smooth="yes"/>
      <point x="157.2" y="730.0"/>
      <point x="86.0" y="666.8"/>
      <point x="86.0" y="572.0" type="curve" smooth="yes"/>
      <point x="86.0" y="468.0" type="line" smooth="yes"/>
      <point x="86.0" y="373.2"/>
      <point x="157.2" y="310.0"/>
      <point x="264.0" y="310.0" type="curve"/>
    </contour>
    <contour>
      <point x="434.0" y="-180.0" type="line"/>
      <point x="496.0" y="-180.0" type="line"/>
      <point x="496.0" y="730.0" type="line"/>
      <point x="434.0" y="730.0" type="line"/>
    </contour>
  </outline>
</glyph>
<glyph name="onesuperior" format="2">
  <advance width="600.0"/>
  <unicode hex="00B9"/>
  <outline>
    <contour>
      <point x="164.0" y="405.0" type="line"/>
      <point x="454.0" y="405.0" type="line"/>
      <point x="454.0" y="454.6" type="line"/>
      <point x="348.8" y="454.6" type="line"/>
      <point x="348.8" y="830.0" type="line"/>
      <point x="270.6" y="830.0" type="line"/>
      <point x="172.4" y="754.2" type="line"/>
      <point x="172.4" y="692.0" type="line"/>
      <point x="293.8" y="783.8" type="line"/>
      <point x="293.8" y="454.6" type="line"/>
      <point x="164.0" y="454.6" type="line"/>
    </contour>
  </outline>
</glyph>
<glyph name="ordmasculine" format="2">
  <advance width="600.0"/>
  <unicode hex="00BA"/>
  <outline>
    <contour>
      <point x="300.0" y="445.0" type="curve" smooth="yes"/>
      <point x="366.6" y="445.0"/>
      <point x="411.4" y="484.6"/>
      <point x="411.4" y="544.0" type="curve" smooth="yes"/>
      <point x="411.4" y="639.0" type="line" smooth="yes"/>
      <point x="411.4" y="698.4"/>
      <point x="366.6" y="738.0"/>
      <point x="300.0" y="738.0" type="curve" smooth="yes"/>
      <point x="233.4" y="738.0"/>
      <point x="188.6" y="698.4"/>
      <point x="188.6" y="639.0" type="curve" smooth="yes"/>
      <point x="188.6" y="544.0" type="line" smooth="yes"/>
      <point x="188.6" y="484.6"/>
      <point x="233.4" y="445.0"/>
    </contour>
    <contour>
      <point x="300.0" y="479.0" type="curve" smooth="yes"/>
      <point x="257.4" y="479.0"/>
      <point x="229.0" y="505.0"/>
      <point x="229.0" y="544.0" type="curve" smooth="yes"/>
      <point x="229.0" y="639.0" type="line" smooth="yes"/>
      <point x="229.0" y="678.0"/>
      <point x="257.4" y="704.0"/>
      <point x="300.0" y="704.0" type="curve" smooth="yes"/>
      <point x="342.6" y="704.0"/>
      <point x="371.0" y="678.0"/>
      <point x="371.0" y="639.0" type="curve" smooth="yes"/>
      <point x="371.0" y="544.0" type="line" smooth="yes"/>
      <point x="371.0" y="505.0"/>
      <point x="342.6" y="479.0"/>
    </contour>
  </outline>
</glyph>
<glyph name="guillemetright" format="2">
  <advance width="600.0"/>
  <unicode hex="00BB"/>
  <outline>
    <contour>
      <point x="273.6" y="40.0" type="line"/>
      <point x="351.6" y="40.0" type="line"/>
      <point x="558.0" y="280.0" type="line"/>
      <point x="351.8" y="520.0" type="line"/>
      <point x="273.2" y="520.0" type="line"/>
      <point x="478.6" y="279.8" type="line"/>
    </contour>
    <contour>
      <point x="42.4" y="40.0" type="line"/>
      <point x="120.4" y="40.0" type="line"/>
      <point x="326.8" y="280.0" type="line"/>
      <point x="120.6" y="520.0" type="line"/>
      <point x="42.0" y="520.0" type="line"/>
      <point x="247.4" y="279.8" type="line"/>
    </contour>
  </outline>
</glyph>
<glyph name="onequarter" format="2">
  <advance width="600.0"/>
  <unicode hex="00BC"/>
  <outline>
    <contour>
      <point x="30.0" y="405.0" type="line"/>
      <point x="305.0" y="405.0" type="line"/>
      <point x="305.0" y="449.0" type="line"/>
      <point x="199.6" y="449.0" type="line"/>
      <point x="199.6" y="730.0" type="line"/>
      <point x="123.6" y="730.0" type="line"/>
      <point x="53.0" y="669.0" type="line"/>
      <point x="53.0" y="608.0" type="line"/>
      <point x="115.6" y="662.0" type="line" smooth="yes"/>
      <point x="130.6" y="675.0"/>
      <point x="142.6" y="689.2"/>
      <point x="148.6" y="696.4" type="curve"/>
      <point x="148.6" y="449.0" type="line"/>
      <point x="30.0" y="449.0" type="line"/>
    </contour>
    <contour>
      <point x="486.0" y="0.0" type="line"/>
      <point x="537.0" y="0.0" type="line"/>
      <point x="537.0" y="213.2" type="line"/>
      <point x="486.0" y="213.2" type="line"/>
      <point x="486.0" y="114.0" type="line"/>
      <point x="359.0" y="114.0" type="line"/>
      <point x="359.0" y="130.0" type="line"/>
      <point x="495.2" y="325.0" type="line"/>
      <point x="437.6" y="325.0" type="line"/>
      <point x="308.0" y="144.0" type="line"/>
      <point x="308.0" y="70.0" type="line"/>
      <point x="486.0" y="70.0" type="line"/>
    </contour>
    <component base="fraction"/>
  </outline>
</glyph>
<glyph name="onehalf" format="2">
  <advance width="600.0"/>
  <unicode hex="00BD"/>
  <outline>
    <contour>
      <point x="324.0" y="0.0" type="line"/>
      <point x="570.0" y="0.0" type="line"/>
      <point x="570.0" y="44.0" type="line"/>
      <point x="452.6" y="44.0" type="line" smooth="yes"/>
      <point x="435.6" y="44.0"/>
      <point x="405.8" y="42.0"/>
      <point x="387.8" y="40.8" type="curve"/>
      <point x="387.8" y="47.2" type="line"/>
      <point x="470.6" y="96.8" type="line" smooth="yes"/>
      <point x="530.4" y="133.2"/>
      <point x="562.0" y="177.0"/>
      <point x="562.0" y="223.4" type="curve" smooth="yes"/>
      <point x="562.0" y="286.2"/>
      <point x="515.0" y="330.0"/>
      <point x="444.8" y="330.0" type="curve" smooth="yes"/>
      <point x="373.4" y="330.0"/>
      <point x="325.2" y="284.4"/>
      <point x="324.0" y="216.0" type="curve"/>
      <point x="375.0" y="216.0" type="line"/>
      <point x="375.0" y="258.0"/>
      <point x="402.8" y="286.0"/>
      <point x="444.8" y="286.0" type="curve" smooth="yes"/>
      <point x="485.0" y="286.0"/>
      <point x="511.0" y="260.4"/>
      <point x="511.0" y="220.8" type="curve" smooth="yes"/>
      <point x="511.0" y="187.6"/>
      <point x="489.2" y="158.8"/>
      <point x="441.0" y="128.8" type="curve" smooth="yes"/>
      <point x="324.0" y="56.2" type="line"/>
    </contour>
    <contour>
      <point x="34.8" y="405.0" type="line"/>
      <point x="319.8" y="405.0" type="line"/>
      <point x="319.8" y="449.0" type="line"/>
      <point x="204.4" y="449.0" type="line"/>
      <point x="204.4" y="730.0" type="line"/>
      <point x="128.4" y="730.0" type="line"/>
      <point x="57.8" y="669.0" type="line"/>
      <point x="57.8" y="608.0" type="line"/>
      <point x="120.4" y="662.0" type="line" smooth="yes"/>
      <point x="135.4" y="675.0"/>
      <point x="147.4" y="689.2"/>
      <point x="153.4" y="696.4" type="curve"/>
      <point x="153.4" y="449.0" type="line"/>
      <point x="34.8" y="449.0" type="line"/>
    </contour>
    <component base="fraction"/>
  </outline>
</glyph>
<glyph name="threequarters" format="2">
  <advance width="600.0"/>
  <unicode hex="00BE"/>
  <outline>
    <contour>
      <point x="486.0" y="0.0" type="line"/>
      <point x="537.0" y="0.0" type="line"/>
      <point x="537.0" y="213.2" type="line"/>
      <point x="486.0" y="213.2" type="line"/>
      <point x="486.0" y="114.0" type="line"/>
      <point x="359.0" y="114.0" type="line"/>
      <point x="359.0" y="130.0" type="line"/>
      <point x="495.2" y="325.0" type="line"/>
      <point x="437.6" y="325.0" type="line"/>
      <point x="308.0" y="144.0" type="line"/>
      <point x="308.0" y="70.0" type="line"/>
      <point x="486.0" y="70.0" type="line"/>
    </contour>
    <contour>
      <point x="154.0" y="400.0" type="curve" smooth="yes"/>
      <point x="226.4" y="400.0"/>
      <point x="274.4" y="443.2"/>
      <point x="274.4" y="508.0" type="curve" smooth="yes"/>
      <point x="274.4" y="568.6"/>
      <point x="225.6" y="609.4"/>
      <point x="156.2" y="609.4" type="curve"/>
      <point x="156.2" y="596.2" type="line"/>
      <point x="260.2" y="681.0" type="line"/>
      <point x="260.2" y="730.0" type="line"/>
      <point x="54.2" y="730.0" type="line"/>
      <point x="54.2" y="686.0" type="line"/>
      <point x="210.2" y="686.0" type="line"/>
      <point x="125.0" y="617.6" type="line"/>
      <point x="125.0" y="569.0" type="line"/>
      <point x="155.0" y="569.0" type="line" smooth="yes"/>
      <point x="195.8" y="569.0"/>
      <point x="223.4" y="544.6"/>
      <point x="223.4" y="508.0" type="curve" smooth="yes"/>
      <point x="223.4" y="469.6"/>
      <point x="195.8" y="444.0"/>
      <point x="154.0" y="444.0" type="curve" smooth="yes"/>
      <point x="111.2" y="444.0"/>
      <point x="83.0" y="468.4"/>
      <point x="83.0" y="505.0" type="curve"/>
      <point x="32.0" y="505.0" type="line"/>
      <point x="32.0" y="442.0"/>
      <point x="80.6" y="400.0"/>
    </contour>
    <component base="fraction"/>
  </outline>
</glyph>
<glyph name="questiondown" format="2">
  <advance width="600.0"/>
  <unicode hex="00BF"/>
  <outline>
    <contour>
      <point x="322.0" y="-169.4" type="curve" smooth="yes"/>
      <point x="444.0" y="-169.4" type="line"/>
      <point x="444.0" y="-108.4" type="line"/>
      <point x="322.0" y="-108.4" type="line" smooth="yes"/>
      <point x="229.0" y="-108.4"/>
      <point x="170.0" y="-56.0"/>
      <point x="170.0" y="31.6" type="curve" smooth="yes"/>
      <point x="170.0" y="119.2"/>
      <point x="228.4" y="171.6"/>
      <point x="321.0" y="171.6" type="curve" smooth="yes"/>
      <point x="371.0" y="171.6" type="line"/>
      <point x="371.0" y="345.0" type="line"/>
      <point x="305.0" y="345.0" type="line"/>
      <point x="305.0" y="228.6" type="line"/>
      <point x="183.0" y="226.2"/>
      <point x="104.0" y="150.4"/>
      <point x="104.0" y="31.6" type="curve" smooth="yes"/>
      <point x="104.0" y="-92.6"/>
      <point x="189.0" y="-169.4"/>
    </contour>
    <contour>
      <point x="334.4" y="441.6" type="curve" smooth="yes"/>
      <point x="345.4" y="441.6" type="line" smooth="yes"/>
      <point x="380.8" y="441.6"/>
      <point x="404.4" y="464.8"/>
      <point x="404.4" y="499.4" type="curve" smooth="yes"/>
      <point x="404.4" y="533.6"/>
      <point x="380.8" y="555.6"/>
      <point x="345.4" y="555.6" type="curve" smooth="yes"/>
      <point x="334.4" y="555.6" type="line" smooth="yes"/>
      <point x="299.0" y="555.6"/>
      <point x="275.4" y="533.2"/>
      <point x="275.4" y="499.0" type="curve" smooth="yes"/>
      <point x="275.4" y="464.8"/>
      <point x="299.0" y="441.6"/>
    </contour>
  </outline>
</glyph>
<glyph name="AE" format="2">
  <advance width="600.0"/>
  <unicode hex="00C6"/>
  <anchor x="300.0" y="0.0" name="bottom"/>
  <anchor x="300.0" y="730.0" name="top"/>
  <outline>
    <contour>
      <point x="32.4" y="0.0" type="line"/>
      <point x="98.8" y="0.0" type="line"/>
      <point x="148.4" y="210.2" type="line"/>
      <point x="306.8" y="210.2" type="line"/>
      <point x="306.8" y="0.0" type="line"/>
      <point x="569.4" y="0.0" type="line"/>
      <point x="569.4" y="59.8" type="line"/>
      <point x="371.2" y="59.8" type="line"/>
      <point x="371.2" y="349.4" type="line"/>
      <point x="537.8" y="349.4" type="line"/>
      <point x="537.8" y="409.2" type="line"/>
      <point x="371.2" y="409.2" type="line"/>
      <point x="371.2" y="670.2" type="line"/>
      <point x="569.4" y="670.2" type="line"/>
      <point x="569.4" y="730.0" type="line"/>
      <point x="203.2" y="730.0" type="line"/>
    </contour>
    <contour>
      <point x="161.8" y="267.2" type="line"/>
      <point x="253.8" y="670.2" type="line"/>
      <point x="306.8" y="670.2" type="line"/>
      <point x="306.8" y="267.2" type="line"/>
    </contour>
  </outline>
</glyph>
<glyph name="Ccedilla" format="2">
  <advance width="600.0"/>
  <unicode hex="00C7"/>
  <anchor x="305.0" y="0.0" name="_bottom"/>
  <anchor x="305.0" y="0.0" name="bottom"/>
  <anchor x="305.0" y="730.0" name="top"/>
  <outline>
    <contour>
      <point x="228.0" y="-198.2" type="line"/>
      <point x="310.0" y="-198.2" type="line" smooth="yes"/>
      <point x="374.8" y="-198.2"/>
      <point x="418.0" y="-163.0"/>
      <point x="418.0" y="-118.8" type="curve" smooth="yes"/>
      <point x="418.0" y="-63.8"/>
      <point x="353.0" y="-38.6"/>
      <point x="304.0" y="-34.4" type="curve"/>
      <point x="326.2" y="26.0" type="line"/>
      <point x="278.2" y="26.0" type="line"/>
      <point x="243.2" y="-66.0" type="line"/>
      <point x="312.6" y="-66.0"/>
      <point x="356.0" y="-87.2"/>
      <point x="356.0" y="-115.6" type="curve" smooth="yes"/>
      <point x="356.0" y="-136.0"/>
      <point x="334.8" y="-155.2"/>
      <point x="304.0" y="-155.2" type="curve" smooth="yes"/>
      <point x="228.0" y="-155.2" type="line"/>
    </contour>
    <component base="C"/>
  </outline>
</glyph>
<glyph name="multiply" format="2">
  <advance width="600.0"/>
  <unicode hex="00D7"/>
  <outline>
    <contour>
      <point x="150.6" y="140.2" type="line"/>
      <point x="298.6" y="288.2" type="line"/>
      <point x="446.2" y="140.2" type="line"/>
      <point x="488.6" y="182.0" type="line"/>
      <point x="340.6" y="329.6" type="line"/>
      <point x="489.8" y="478.8" type="line"/>
      <point x="447.8" y="520.6" type="line"/>
      <point x="298.6" y="371.4" type="line"/>
      <point x="150.6" y="519.0" type="line"/>
      <point x="109.2" y="477.6" type="line"/>
      <point x="256.8" y="329.6" type="line"/>
      <point x="109.2" y="182.0" type="line"/>
    </contour>
  </outline>
</glyph>
<glyph name="Oslash" format="2">
  <advance width="600.0"/>
  <unicode hex="00D8"/>
  <anchor x="300.0" y="0.0" name="bottom"/>
  <anchor x="320.0" y="730.0" name="horn"/>
  <anchor x="300.0" y="730.0" name="top"/>
  <outline>
    <contour>
      <point x="44.0" y="-40.0" type="line"/>
      <point x="106.4" y="-40.0" type="line"/>
      <point x="556.0" y="750.0" type="line"/>
      <point x="493.6" y="750.0" type="line"/>
    </contour>
    <contour>
      <point x="300.0" y="-10.0" type="curve" smooth="yes"/>
      <point x="423.8" y="-10.0"/>
      <point x="501.8" y="68.4"/>
      <point x="501.8" y="194.0" type="curve" smooth="yes"/>
      <point x="501.8" y="536.4" type="line" smooth="yes"/>
      <point x="501.8" y="661.0"/>
      <point x="423.2" y="740.0"/>
      <point x="300.0" y="740.0" type="curve" smooth="yes"/>
      <point x="176.8" y="740.0"/>
      <point x="98.2" y="661.0"/>
      <point x="98.2" y="536.0" type="curve" smooth="yes"/>
      <point x="98.2" y="194.0" type="line" smooth="yes"/>
      <point x="98.2" y="68.4"/>
      <point x="176.8" y="-10.0"/>
    </contour>
    <contour>
      <point x="300.0" y="48.8" type="curve" smooth="yes"/>
      <point x="213.6" y="48.8"/>
      <point x="164.2" y="101.4"/>
      <point x="164.2" y="194.0" type="curve" smooth="yes"/>
      <point x="164.2" y="536.0" type="line" smooth="yes"/>
      <point x="164.2" y="628.0"/>
      <point x="214.2" y="681.2"/>
      <point x="300.0" y="681.2" type="curve" smooth="yes"/>
      <point x="385.8" y="681.2"/>
      <point x="435.8" y="628.0"/>
      <point x="435.8" y="536.0" type="curve" smooth="yes"/>
      <point x="435.8" y="194.0" type="line" smooth="yes"/>
      <point x="435.8" y="101.4"/>
      <point x="386.4" y="48.8"/>
    </contour>
  </outline>
</glyph>
<glyph name="Thorn" format="2">
  <advance width="600.0"/>
  <unicode hex="00DE"/>
  <outline>
    <contour>
      <point x="99.0" y="0.0" type="line"/>
      <point x="165.0" y="0.0" type="line"/>
      <point x="165.0" y="189.0" type="line"/>
      <point x="333.0" y="189.0" type="line" smooth="yes"/>
      <point x="458.4" y="189.0"/>
      <point x="538.0" y="262.8"/>
      <point x="538.0" y="380.0" type="curve" smooth="yes"/>
      <point x="538.0" y="496.4"/>
      <point x="458.0" y="571.0"/>
      <point x="333.0" y="571.0" type="curve" smooth="yes"/>
      <point x="165.0" y="571.0" type="line"/>
      <point x="165.0" y="730.0" type="line"/>
      <point x="99.0" y="730.0" type="line"/>
    </contour>
    <contour>
      <point x="165.0" y="248.6" type="line"/>
      <point x="165.0" y="512.0" type="line"/>
      <point x="333.0" y="512.0" type="line" smooth="yes"/>
      <point x="418.0" y="512.0"/>
      <point x="470.8" y="461.8"/>
      <point x="470.8" y="380.0" type="curve" smooth="yes"/>
      <point x="470.8" y="298.8"/>
      <point x="418.4" y="248.6"/>
      <point x="333.0" y="248.6" type="curve" smooth="yes"/>
    </contour>
  </outline>
</glyph>
<glyph name="germandbls" format="2">
  <advance width="600.0"/>
  <unicode hex="00DF"/>
  <outline>
    <contour>
      <point x="102.8" y="0.0" type="line"/>
      <point x="168.8" y="0.0" type="line"/>
      <point x="168.8" y="539.4" type="line" smooth="yes"/>
      <point x="168.8" y="625.4"/>
      <point x="221.8" y="680.2"/>
      <point x="304.2" y="680.2" type="curve" smooth="yes"/>
      <point x="388.6" y="680.2"/>
      <point x="438.8" y="627.4"/>
      <point x="438.8" y="541.4" type="curve" smooth="yes"/>
      <point x="438.8" y="460.2"/>
      <point x="387.2" y="403.4"/>
      <point x="304.2" y="403.4" type="curve" smooth="yes"/>
      <point x="263.4" y="403.4" type="line"/>
      <point x="263.4" y="345.2" type="line"/>
      <point x="305.0" y="345.2" type="line" smooth="yes"/>
      <point x="400.4" y="345.2"/>
      <point x="453.0" y="293.4"/>
      <point x="453.0" y="204.4" type="curve" smooth="yes"/>
      <point x="453.0" y="114.8"/>
      <point x="400.0" y="59.2"/>
      <point x="305.0" y="59.8" type="curve" smooth="yes"/>
      <point x="245.4" y="59.8" type="line"/>
      <point x="245.4" y="0.0" type="line"/>
      <point x="309.0" y="0.0" type="line" smooth="yes"/>
      <point x="439.8" y="0.0"/>
      <point x="521.0" y="82.4"/>
      <point x="521.0" y="208.0" type="curve" smooth="yes"/>
      <point x="521.0" y="318.4"/>
      <point x="450.8" y="388.0"/>
      <point x="340.0" y="387.2" type="curve"/>
      <point x="340.0" y="375.2" type="line"/>
      <point x="439.2" y="374.4"/>
      <point x="506.4" y="447.6"/>
      <point x="506.4" y="551.6" type="curve" smooth="yes"/>
      <point x="506.4" y="669.2"/>
      <point x="428.6" y="740.0"/>
      <point x="304.2" y="740.0" type="curve" smooth="yes"/>
      <point x="182.8" y="740.0"/>
      <point x="102.8" y="659.8"/>
      <point x="102.8" y="539.4" type="curve" smooth="yes"/>
    </contour>
  </outline>
</glyph>
<glyph name="ae" format="2">
  <advance width="600.0"/>
  <unicode hex="00E6"/>
  <anchor x="300.0" y="550.0" name="top"/>
  <outline>
    <contour>
      <point x="172.4" y="-10.0" type="curve" smooth="yes"/>
      <point x="255.0" y="-10.0"/>
      <point x="294.4" y="37.2"/>
      <point x="301.0" y="73.0" type="curve"/>
      <point x="304.4" y="73.0" type="line"/>
      <point x="310.6" y="37.2"/>
      <point x="347.4" y="-10.0"/>
      <point x="423.6" y="-10.0" type="curve" smooth="yes"/>
      <point x="507.0" y="-10.0"/>
      <point x="558.4" y="44.2"/>
      <point x="562.6" y="127.0" type="curve"/>
      <point x="498.6" y="127.0" type="line"/>
      <point x="495.6" y="79.6"/>
      <point x="466.2" y="47.8"/>
      <point x="417.8" y="47.8" type="curve" smooth="yes"/>
      <point x="367.6" y="47.8"/>
      <point x="334.0" y="87.4"/>
      <point x="334.0" y="144.0" type="curve" smooth="yes"/>
      <point x="334.0" y="262.8" type="line"/>
      <point x="562.0" y="262.8" type="line"/>
      <point x="562.0" y="406.0" type="line" smooth="yes"/>
      <point x="562.0" y="499.6"/>
      <point x="508.2" y="560.0"/>
      <point x="421.8" y="560.0" type="curve" smooth="yes"/>
      <point x="349.6" y="560.0"/>
      <point x="312.2" y="512.2"/>
      <point x="304.4" y="476.4" type="curve"/>
      <point x="301.6" y="476.4" type="line"/>
      <point x="295.0" y="512.2"/>
      <point x="257.4" y="560.0"/>
      <point x="180.0" y="560.0" type="curve" smooth="yes"/>
      <point x="99.4" y="560.0"/>
      <point x="47.0" y="505.8"/>
      <point x="42.8" y="423.0" type="curve"/>
      <point x="106.8" y="423.0" type="line"/>
      <point x="109.8" y="470.0"/>
      <point x="141.4" y="502.8"/>
      <point x="187.8" y="502.8" type="curve" smooth="yes"/>
      <point x="239.8" y="502.8"/>
      <point x="271.6" y="465.4"/>
      <point x="271.6" y="405.6" type="curve" smooth="yes"/>
      <point x="271.6" y="317.8" type="line"/>
      <point x="177.2" y="317.8" type="line" smooth="yes"/>
      <point x="91.4" y="317.8"/>
      <point x="38.0" y="266.6"/>
      <point x="38.0" y="187.0" type="curve" smooth="yes"/>
      <point x="38.0" y="135.4" type="line" smooth="yes"/>
      <point x="38.0" y="47.6"/>
      <point x="89.4" y="-10.0"/>
    </contour>
    <contour>
      <point x="185.8" y="46.0" type="curve" smooth="yes"/>
      <point x="136.2" y="46.0"/>
      <point x="104.0" y="82.6"/>
      <point x="104.0" y="135.4" type="curve" smooth="yes"/>
      <point x="104.0" y="187.0" type="line" smooth="yes"/>
      <point x="104.0" y="232.4"/>
      <point x="133.4" y="262.8"/>
      <point x="178.0" y="262.8" type="curve" smooth="yes"/>
      <point x="271.6" y="262.8" type="line"/>
      <point x="271.6" y="144.0" type="line" smooth="yes"/>
      <point x="271.6" y="86.8"/>
      <point x="236.0" y="46.0"/>
    </contour>
    <contour>
      <point x="334.0" y="317.8" type="line"/>
      <point x="334.0" y="406.0" type="line" smooth="yes"/>
      <point x="334.0" y="462.0"/>
      <point x="366.8" y="502.8"/>
      <point x="416.0" y="502.8" type="curve" smooth="yes"/>
      <point x="466.0" y="502.8"/>
      <point x="498.0" y="462.0"/>
      <point x="498.0" y="406.0" type="curve" smooth="yes"/>
      <point x="498.0" y="317.8" type="line"/>
    </contour>
  </outline>
</glyph>
<glyph name="ccedilla" format="2">
  <advance width="600.0"/>
  <unicode hex="00E7"/>
  <anchor x="302.8" y="0.0" name="_bottom"/>
  <anchor x="302.8" y="0.0" name="bottom"/>
  <anchor x="302.8" y="550.0" name="top"/>
  <outline>
    <contour>
      <point x="210.8" y="-198.2" type="line"/>
      <point x="292.8" y="-198.2" type="line" smooth="yes"/>
      <point x="357.6" y="-198.2"/>
      <point x="400.8" y="-163.0"/>
      <point x="400.8" y="-118.8" type="curve" smooth="yes"/>
      <point x="400.8" y="-63.8"/>
      <point x="335.8" y="-38.6"/>
      <point x="286.8" y="-34.4" type="curve"/>
      <point x="309.0" y="26.0" type="line"/>
      <point x="261.0" y="26.0" type="line"/>
      <point x="226.0" y="-66.0" type="line"/>
      <point x="295.4" y="-66.0"/>
      <point x="338.8" y="-87.2"/>
      <point x="338.8" y="-115.6" type="curve" smooth="yes"/>
      <point x="338.8" y="-136.0"/>
      <point x="317.6" y="-155.2"/>
      <point x="286.8" y="-155.2" type="curve" smooth="yes"/>
      <point x="210.8" y="-155.2" type="line"/>
    </contour>
    <component base="c"/>
  </outline>
</glyph>
<glyph name="eth" format="2">
  <advance width="600.0"/>
  <unicode hex="00F0"/>
  <outline>
    <contour>
      <point x="299.6" y="-10.0" type="curve" smooth="yes"/>
      <point x="435.6" y="-10.0"/>
      <point x="524.0" y="80.0"/>
      <point x="524.0" y="217.0" type="curve" smooth="yes"/>
      <point x="524.0" y="304.4"/>
      <point x="486.6" y="404.4"/>
      <point x="413.8" y="507.4" type="curve" smooth="yes"/>
      <point x="341.2" y="611.4" type="line"/>
      <point x="461.0" y="667.0" type="line"/>
      <point x="461.0" y="723.0" type="line"/>
      <point x="311.2" y="653.4" type="line"/>
      <point x="257.6" y="730.0" type="line"/>
      <point x="176.4" y="730.0" type="line"/>
      <point x="252.0" y="626.2" type="line"/>
      <point x="117.0" y="563.0" type="line"/>
      <point x="117.0" y="507.0" type="line"/>
      <point x="282.4" y="584.2" type="line"/>
      <point x="352.8" y="486.6" type="line" smooth="yes"/>
      <point x="399.4" y="423.4"/>
      <point x="424.6" y="376.8"/>
      <point x="430.6" y="360.2" type="curve"/>
      <point x="423.2" y="360.2" type="line"/>
      <point x="404.0" y="392.6"/>
      <point x="353.4" y="436.0"/>
      <point x="286.4" y="436.0" type="curve" smooth="yes"/>
      <point x="158.2" y="436.0"/>
      <point x="76.0" y="349.2"/>
      <point x="76.0" y="215.0" type="curve" smooth="yes"/>
      <point x="76.0" y="79.4"/>
      <point x="165.0" y="-10.0"/>
    </contour>
    <contour>
      <point x="299.6" y="52.0" type="curve" smooth="yes"/>
      <point x="205.8" y="52.0"/>
      <point x="145.0" y="116.0"/>
      <point x="145.0" y="215.0" type="curve" smooth="yes"/>
      <point x="145.0" y="314.0"/>
      <point x="205.8" y="378.0"/>
      <point x="299.6" y="378.0" type="curve" smooth="yes"/>
      <point x="390.6" y="378.0"/>
      <point x="455.0" y="311.6"/>
      <point x="455.0" y="215.6" type="curve" smooth="yes"/>
      <point x="455.0" y="116.6"/>
      <point x="393.6" y="52.0"/>
    </contour>
  </outline>
</glyph>
<glyph name="divide" format="2">
  <advance width="600.0"/>
  <unicode hex="00F7"/>
  <outline>
    <contour>
      <point x="100.0" y="303.4" type="line"/>
      <point x="500.0" y="303.4" type="line"/>
      <point x="500.0" y="363.4" type="line"/>
      <point x="100.0" y="363.4" type="line"/>
    </contour>
    <contour>
      <point x="300.0" y="457.6" type="curve" smooth="yes"/>
      <point x="346.4" y="457.6"/>
      <point x="377.0" y="487.0"/>
      <point x="377.0" y="530.8" type="curve" smooth="yes"/>
      <point x="377.0" y="574.6"/>
      <point x="346.4" y="604.0"/>
      <point x="300.0" y="604.0" type="curve" smooth="yes"/>
      <point x="253.6" y="604.0"/>
      <point x="223.0" y="574.6"/>
      <point x="223.0" y="530.8" type="curve" smooth="yes"/>
      <point x="223.0" y="487.0"/>
      <point x="253.6" y="457.6"/>
    </contour>
    <contour>
      <point x="300.0" y="61.6" type="curve" smooth="yes"/>
      <point x="346.4" y="61.6"/>
      <point x="377.0" y="91.0"/>
      <point x="377.0" y="134.8" type="curve" smooth="yes"/>
      <point x="377.0" y="178.6"/>
      <point x="346.4" y="208.0"/>
      <point x="300.0" y="208.0" type="curve" smooth="yes"/>
      <point x="253.6" y="208.0"/>
      <point x="223.0" y="178.6"/>
      <point x="223.0" y="134.8" type="curve" smooth="yes"/>
      <point x="223.0" y="91.0"/>
      <point x="253.6" y="61.6"/>
    </contour>
  </outline>
</glyph>
<glyph name="oslash" format="2">
  <advance width="600.0"/>
  <unicode hex="00F8"/>
  <anchor x="300.0" y="0.0" name="bottom"/>
  <anchor x="324.8" y="550.0" name="horn"/>
  <anchor x="300.0" y="550.0" name="top"/>
  <outline>
    <contour>
      <point x="49.4" y="-30.0" type="line"/>
      <point x="114.8" y="-30.0" type="line"/>
      <point x="550.6" y="590.0" type="line"/>
      <point x="484.8" y="590.0" type="line"/>
    </contour>
    <contour>
      <point x="300.0" y="-10.0" type="curve" smooth="yes"/>
      <point x="423.8" y="-10.0"/>
      <point x="501.8" y="68.4"/>
      <point x="501.8" y="194.0" type="curve" smooth="yes"/>
      <point x="501.8" y="356.4" type="line" smooth="yes"/>
      <point x="501.8" y="481.0"/>
      <point x="423.2" y="560.0"/>
      <point x="300.0" y="560.0" type="curve" smooth="yes"/>
      <point x="176.8" y="560.0"/>
      <point x="98.2" y="481.0"/>
      <point x="98.2" y="356.0" type="curve" smooth="yes"/>
      <point x="98.2" y="194.0" type="line" smooth="yes"/>
      <point x="98.2" y="68.4"/>
      <point x="176.8" y="-10.0"/>
    </contour>
    <contour>
      <point x="300.0" y="48.400000000000006" type="curve" smooth="yes"/>
      <point x="212.8" y="48.400000000000006"/>
      <point x="162.2" y="101.8"/>
      <point x="162.2" y="194.0" type="curve" smooth="yes"/>
      <point x="162.2" y="356.0" type="line" smooth="yes"/>
      <point x="162.2" y="447.6"/>
      <point x="213.4" y="501.6"/>
      <point x="300.0" y="501.6" type="curve" smooth="yes"/>
      <point x="386.6" y="501.6"/>
      <point x="437.8" y="447.6"/>
      <point x="437.8" y="356.0" type="curve" smooth="yes"/>
      <point x="437.8" y="194.0" type="line" smooth="yes"/>
      <point x="437.8" y="101.8"/>
      <point x="387.2" y="48.400000000000006"/>
    </contour>
  </outline>
</glyph>
<glyph name="thorn" format="2">
  <advance width="600.0"/>
  <unicode hex="00FE"/>
  <anchor x="298.0" y="0.0" name="bottom"/>
  <anchor x="298.0" y="730.0" name="top"/>
  <outline>
    <contour>
      <point x="100.8" y="-176.0" type="line"/>
      <point x="166.8" y="-176.0" type="line"/>
      <point x="166.8" y="59.0" type="line"/>
      <point x="100.8" y="59.0" type="line"/>
    </contour>
    <component base="b" xOffset="-2.0"/>
  </outline>
</glyph>
<glyph name="Aogonek" format="2">
  <advance width="600.0"/>
  <unicode hex="0104"/>
  <anchor x="300.0" y="0.0" name="bottom"/>
  <anchor x="497.0" y="0.0" name="ogonek"/>
  <anchor x="300.0" y="730.0" name="top"/>
  <outline>
    <contour>
      <point x="502.2" y="-198.2" type="curve" smooth="yes"/>
      <point x="577.2" y="-198.2" type="line"/>
      <point x="577.2" y="-149.0" type="line"/>
      <point x="514.8" y="-149.0" type="line" smooth="yes"/>
      <point x="482.0" y="-149.0"/>
      <point x="462.2" y="-129.2"/>
      <point x="462.2" y="-99.0" type="curve" smooth="yes"/>
      <point x="462.2" y="-71.0"/>
      <point x="483.6" y="-36.0"/>
      <point x="524.4" y="0.4" type="curve"/>
      <point x="535.4" y="10.0" type="line"/>
      <point x="483.2" y="10.0" type="line"/>
      <point x="427.4" y="-29.8"/>
      <point x="400.0" y="-73.2"/>
      <point x="400.0" y="-113.0" type="curve" smooth="yes"/>
      <point x="400.0" y="-164.6"/>
      <point x="439.6" y="-198.2"/>
    </contour>
    <component base="A"/>
  </outline>
</glyph>
<glyph name="aogonek" format="2">
  <advance width="600.0"/>
  <unicode hex="0105"/>
  <anchor x="305.0" y="0.0" name="bottom"/>
  <anchor x="462.0" y="0.0" name="ogonek"/>
  <anchor x="305.0" y="550.0" name="top"/>
  <outline>
    <contour>
      <point x="477.0" y="-198.2" type="curve" smooth="yes"/>
      <point x="552.0" y="-198.2" type="line"/>
      <point x="552.0" y="-149.0" type="line"/>
      <point x="489.6" y="-149.0" type="line" smooth="yes"/>
      <point x="456.8" y="-149.0"/>
      <point x="437.0" y="-129.2"/>
      <point x="437.0" y="-99.0" type="curve" smooth="yes"/>
      <point x="437.0" y="-71.0"/>
      <point x="458.4" y="-36.4"/>
      <point x="499.2" y="0.0" type="curve"/>
      <point x="458.0" y="10.0" type="line"/>
      <point x="402.2" y="-29.8"/>
      <point x="374.8" y="-73.2"/>
      <point x="374.8" y="-113.0" type="curve" smooth="yes"/>
      <point x="374.8" y="-164.6"/>
      <point x="414.4" y="-198.2"/>
    </contour>
    <component base="a"/>
  </outline>
</glyph>
<glyph name="dcaron" format="2">
  <advance width="600.0"/>
  <unicode hex="010F"/>
  <outline>
    <contour>
      <point x="510.0" y="550.0" type="line"/>
      <point x="569.0" y="550.0" type="line"/>
      <point x="582.0" y="730.0" type="line"/>
      <point x="516.0" y="730.0" type="line"/>
    </contour>
    <contour>
      <point x="248.4" y="-10.0" type="curve" smooth="yes"/>
      <point x="338.0" y="-10.0"/>
      <point x="394.2" y="46.0"/>
      <point x="394.2" y="134.4" type="curve"/>
      <point x="364.2" y="87.0" type="line"/>
      <point x="388.2" y="87.0" type="line"/>
      <point x="388.2" y="0.0" type="line"/>
      <point x="454.2" y="0.0" type="line"/>
      <point x="454.2" y="730.0" type="line"/>
      <point x="388.2" y="730.0" type="line"/>
      <point x="388.2" y="576.0" type="line"/>
      <point x="389.0" y="463.0" type="line"/>
      <point x="370.2" y="463.0" type="line"/>
      <point x="394.2" y="415.6" type="line"/>
      <point x="394.2" y="504.0"/>
      <point x="338.0" y="560.0"/>
      <point x="248.4" y="560.0" type="curve" smooth="yes"/>
      <point x="145.0" y="560.0"/>
      <point x="79.2" y="483.0"/>
      <point x="79.2" y="360.0" type="curve" smooth="yes"/>
      <point x="79.2" y="189.0" type="line" smooth="yes"/>
      <point x="79.2" y="67.0"/>
      <point x="145.0" y="-10.0"/>
    </contour>
    <contour>
      <point x="266.4" y="47.0" type="curve" smooth="yes"/>
      <point x="191.4" y="47.0"/>
      <point x="145.2" y="101.8"/>
      <point x="145.2" y="191.4" type="curve" smooth="yes"/>
      <point x="145.2" y="358.0" type="line" smooth="yes"/>
      <point x="145.2" y="447.6"/>
      <point x="191.4" y="503.0"/>
      <point x="266.4" y="503.0" type="curve" smooth="yes"/>
      <point x="342.0" y="503.0"/>
      <point x="388.2" y="447.6"/>
      <point x="388.2" y="358.0" type="curve" smooth="yes"/>
      <point x="388.2" y="191.4" type="line" smooth="yes"/>
      <point x="388.2" y="101.8"/>
      <point x="342.0" y="47.0"/>
    </contour>
  </outline>
</glyph>
<glyph name="dcroat" format="2">
  <advance width="600.0"/>
  <unicode hex="0111"/>
  <outline>
    <contour>
      <point x="279.4" y="-10.0" type="curve" smooth="yes"/>
      <point x="373.4" y="-10.0"/>
      <point x="436.4" y="46.2"/>
      <point x="436.4" y="134.4" type="curve"/>
      <point x="406.4" y="87.0" type="line"/>
      <point x="430.4" y="87.0" type="line"/>
      <point x="430.4" y="0.0" type="line"/>
      <point x="496.4" y="0.0" type="line"/>
      <point x="496.4" y="730.0" type="line"/>
      <point x="430.4" y="730.0" type="line"/>
      <point x="430.4" y="516.0" type="line"/>
      <point x="431.2" y="403.0" type="line"/>
      <point x="412.4" y="403.0" type="line"/>
      <point x="436.4" y="355.6" type="line"/>
      <point x="436.4" y="443.4"/>
      <point x="373.0" y="500.0"/>
      <point x="279.4" y="500.0" type="curve" smooth="yes"/>
      <point x="169.0" y="500.0"/>
      <point x="99.0" y="420.8"/>
      <point x="99.0" y="298.0" type="curve" smooth="yes"/>
      <point x="99.0" y="191.0" type="line" smooth="yes"/>
      <point x="99.0" y="68.6"/>
      <point x="169.4" y="-10.0"/>
    </contour>
    <contour>
      <point x="297.4" y="47.0" type="curve" smooth="yes"/>
      <point x="213.6" y="47.0"/>
      <point x="165.0" y="100.6"/>
      <point x="165.0" y="193.4" type="curve" smooth="yes"/>
      <point x="165.0" y="296.0" type="line" smooth="yes"/>
      <point x="165.0" y="388.8"/>
      <point x="213.6" y="443.0"/>
      <point x="297.4" y="443.0" type="curve" smooth="yes"/>
      <point x="381.6" y="443.0"/>
      <point x="430.4" y="388.0"/>
      <point x="430.4" y="296.0" type="curve" smooth="yes"/>
      <point x="430.4" y="193.4" type="line" smooth="yes"/>
      <point x="430.4" y="101.4"/>
      <point x="381.0" y="47.0"/>
    </contour>
    <contour>
      <point x="256.0" y="579.6" type="line"/>
      <point x="594.0" y="579.6" type="line"/>
      <point x="594.0" y="636.6" type="line"/>
      <point x="256.0" y="636.6" type="line"/>
    </contour>
  </outline>
</glyph>
<glyph name="Eogonek" format="2">
  <advance width="600.0"/>
  <unicode hex="0118"/>
  <anchor x="320.0" y="0.0" name="bottom"/>
  <anchor x="440.0" y="0.0" name="ogonek"/>
  <anchor x="320.0" y="730.0" name="top"/>
  <anchor x="20.0" y="730.0" name="topleft"/>
  <outline>
    <contour>
      <point x="444.0" y="-198.2" type="curve" smooth="yes"/>
      <point x="519.0" y="-198.2" type="line"/>
      <point x="519.0" y="-149.0" type="line"/>
      <point x="456.6" y="-149.0" type="line" smooth="yes"/>
      <point x="423.8" y="-149.0"/>
      <point x="404.0" y="-129.2"/>
      <point x="404.0" y="-99.0" type="curve" smooth="yes"/>
      <point x="404.0" y="-71.0"/>
      <point x="425.4" y="-36.0"/>
      <point x="466.2" y="0.4" type="curve"/>
      <point x="477.2" y="10.0" type="line"/>
      <point x="425.0" y="10.0" type="line"/>
      <point x="369.2" y="-29.8"/>
      <point x="341.8" y="-73.2"/>
      <point x="341.8" y="-113.0" type="curve" smooth="yes"/>
      <point x="341.8" y="-164.6"/>
      <point x="381.4" y="-198.2"/>
    </contour>
    <component base="E"/>
  </outline>
</glyph>
<glyph name="eogonek" format="2">
  <advance width="600.0"/>
  <unicode hex="0119"/>
  <anchor x="300.0" y="550.0" name="top"/>
  <outline>
    <contour>
      <point x="374.8" y="-198.2" type="curve" smooth="yes"/>
      <point x="449.8" y="-198.2" type="line"/>
      <point x="449.8" y="-149.0" type="line"/>
      <point x="387.4" y="-149.0" type="line" smooth="yes"/>
      <point x="354.6" y="-149.0"/>
      <point x="334.8" y="-129.2"/>
      <point x="334.8" y="-99.0" type="curve" smooth="yes"/>
      <point x="334.8" y="-71.0"/>
      <point x="356.2" y="-36.0"/>
      <point x="397.0" y="0.4" type="curve" smooth="yes"/>
      <point x="419.6" y="20.0" type="line"/>
      <point x="462.6" y="45.6"/>
      <point x="491.0" y="86.0"/>
      <point x="500.4" y="137.0" type="curve"/>
      <point x="434.4" y="137.0" type="line"/>
      <point x="419.0" y="79.6"/>
      <point x="372.6" y="46.8"/>
      <point x="300.6" y="46.8" type="curve" smooth="yes"/>
      <point x="212.0" y="46.8"/>
      <point x="163.4" y="101.6"/>
      <point x="163.4" y="194.0" type="curve" smooth="yes"/>
      <point x="163.4" y="260.2" type="line"/>
      <point x="501.8" y="260.2" type="line"/>
      <point x="501.8" y="356.0" type="line" smooth="yes"/>
      <point x="501.8" y="479.4"/>
      <point x="425.2" y="560.0"/>
      <point x="300.6" y="560.0" type="curve" smooth="yes"/>
      <point x="175.4" y="560.0"/>
      <point x="98.2" y="479.4"/>
      <point x="98.2" y="356.0" type="curve" smooth="yes"/>
      <point x="98.2" y="194.0" type="line" smooth="yes"/>
      <point x="98.2" y="70.0"/>
      <point x="174.8" y="-10.0"/>
      <point x="300.6" y="-10.0" type="curve" smooth="yes"/>
      <point x="312.0" y="-10.0"/>
      <point x="323.8" y="-8.8"/>
      <point x="334.0" y="-7.0" type="curve"/>
      <point x="291.4" y="-46.8"/>
      <point x="272.6" y="-82.4"/>
      <point x="272.6" y="-113.0" type="curve" smooth="yes"/>
      <point x="272.6" y="-164.6"/>
      <point x="312.2" y="-198.2"/>
    </contour>
    <contour>
      <point x="436.6" y="284.0" type="line"/>
      <point x="465.8" y="313.2" type="line"/>
      <point x="163.4" y="313.2" type="line"/>
      <point x="163.4" y="356.0" type="line" smooth="yes"/>
      <point x="163.4" y="449.0"/>
      <point x="211.4" y="503.6"/>
      <point x="300.6" y="503.6" type="curve" smooth="yes"/>
      <point x="388.6" y="503.6"/>
      <point x="436.6" y="448.4"/>
      <point x="436.6" y="356.0" type="curve" smooth="yes"/>
    </contour>
  </outline>
</glyph>
<glyph name="Iogonek" format="2">
  <advance width="600.0"/>
  <unicode hex="012E"/>
  <anchor x="300.0" y="0.0" name="bottom"/>
  <anchor x="320.0" y="0.0" name="ogonek"/>
  <anchor x="300.0" y="730.0" name="top"/>
  <anchor x="20.0" y="730.0" name="topleft"/>
  <outline>
    <contour>
      <point x="304.0" y="-198.2" type="curve" smooth="yes"/>
      <point x="379.0" y="-198.2" type="line"/>
      <point x="379.0" y="-149.0" type="line"/>
      <point x="316.6" y="-149.0" type="line" smooth="yes"/>
      <point x="283.8" y="-149.0"/>
      <point x="264.0" y="-129.2"/>
      <point x="264.0" y="-99.0" type="curve" smooth="yes"/>
      <point x="264.0" y="-71.0"/>
      <point x="285.4" y="-36.0"/>
      <point x="326.2" y="0.4" type="curve"/>
      <point x="337.2" y="10.0" type="line"/>
      <point x="285.0" y="10.0" type="line"/>
      <point x="229.2" y="-29.8"/>
      <point x="201.8" y="-73.2"/>
      <point x="201.8" y="-113.0" type="curve" smooth="yes"/>
      <point x="201.8" y="-164.6"/>
      <point x="241.4" y="-198.2"/>
    </contour>
    <component base="I"/>
  </outline>
</glyph>
<glyph name="iogonek" format="2">
  <advance width="600.0"/>
  <unicode hex="012F"/>
  <anchor x="315.0" y="0.0" name="bottom"/>
  <anchor x="330.0" y="0.0" name="ogonek"/>
  <anchor x="315.0" y="769.8" name="top"/>
  <outline>
    <contour>
      <point x="319.0" y="-198.2" type="curve" smooth="yes"/>
      <point x="394.0" y="-198.2" type="line"/>
      <point x="394.0" y="-149.0" type="line"/>
      <point x="331.6" y="-149.0" type="line" smooth="yes"/>
      <point x="298.8" y="-149.0"/>
      <point x="279.0" y="-129.2"/>
      <point x="279.0" y="-99.0" type="curve" smooth="yes"/>
      <point x="279.0" y="-71.0"/>
      <point x="300.4" y="-36.0"/>
      <point x="341.2" y="0.4" type="curve"/>
      <point x="352.2" y="10.0" type="line"/>
      <point x="300.0" y="10.0" type="line"/>
      <point x="244.2" y="-29.8"/>
      <point x="216.8" y="-73.2"/>
      <point x="216.8" y="-113.0" type="curve" smooth="yes"/>
      <point x="216.8" y="-164.6"/>
      <point x="256.4" y="-198.2"/>
    </contour>
    <component base="idotless"/>
    <component base="dotaccentcomb" xOffset="615.0"/>
  </outline>
</glyph>
<glyph name="idotless" format="2">
  <advance width="600.0"/>
  <unicode hex="0131"/>
  <anchor x="315.0" y="0.0" name="bottom"/>
  <anchor x="330.0" y="0.0" name="ogonek"/>
  <anchor x="315.0" y="550.0" name="top"/>
  <outline>
    <contour>
      <point x="91.0" y="0.0" type="line"/>
      <point x="543.0" y="0.0" type="line"/>
      <point x="543.0" y="59.8" type="line"/>
      <point x="355.6" y="59.8" type="line"/>
      <point x="355.6" y="550.0" type="line"/>
      <point x="114.0" y="550.0" type="line"/>
      <point x="114.0" y="490.2" type="line"/>
      <point x="289.6" y="490.2" type="line"/>
      <point x="289.6" y="59.8" type="line"/>
      <point x="91.0" y="59.8" type="line"/>
    </contour>
  </outline>
</glyph>
<glyph name="Lslash" format="2">
  <advance width="600.0"/>
  <unicode hex="0141"/>
  <anchor x="346.0" y="0.0" name="bottom"/>
  <anchor x="306.0" y="365.0" name="center"/>
  <anchor x="175.6" y="730.0" name="top"/>
  <anchor x="586.0" y="730.0" name="topright"/>
  <outline>
    <contour>
      <point x="20.0" y="236.0" type="line"/>
      <point x="390.0" y="489.0" type="line"/>
      <point x="390.0" y="554.0" type="line"/>
      <point x="20.0" y="301.0" type="line"/>
    </contour>
    <component base="L" xOffset="6.0"/>
  </outline>
</glyph>
<glyph name="Eng" format="2">
  <advance width="600.0"/>
  <unicode hex="014A"/>
  <outline>
    <contour>
      <point x="232.2" y="-180.0" type="line"/>
      <point x="306.2" y="-180.0" type="line" smooth="yes"/>
      <point x="426.6" y="-180.0"/>
      <point x="498.6" y="-110.2"/>
      <point x="498.6" y="6.0" type="curve" smooth="yes"/>
      <point x="498.6" y="730.0" type="line"/>
      <point x="435.0" y="730.0" type="line"/>
      <point x="435.0" y="290.2" type="line" smooth="yes"/>
      <point x="435.0" y="230.4"/>
      <point x="438.6" y="163.2"/>
      <point x="441.4" y="128.8" type="curve"/>
      <point x="190.8" y="730.0" type="line"/>
      <point x="101.4" y="730.0" type="line"/>
      <point x="101.4" y="0.0" type="line"/>
      <point x="165.0" y="0.0" type="line"/>
      <point x="165.0" y="500.0" type="line" smooth="yes"/>
      <point x="165.0" y="559.8"/>
      <point x="162.4" y="624.0"/>
      <point x="160.2" y="655.0" type="curve"/>
      <point x="432.6" y="6.0" type="line"/>
      <point x="432.6" y="-74.8"/>
      <point x="387.4" y="-120.2"/>
      <point x="306.2" y="-120.2" type="curve" smooth="yes"/>
      <point x="232.2" y="-120.2" type="line"/>
    </contour>
  </outline>
</glyph>
<glyph name="eng" format="2">
  <advance width="600.0"/>
  <unicode hex="014B"/>
  <outline>
    <contour>
      <point x="243.0" y="-180.0" type="line"/>
      <point x="292.8" y="-180.0" type="line" smooth="yes"/>
      <point x="417.4" y="-180.0"/>
      <point x="498.4" y="-103.6"/>
      <point x="498.4" y="15.0" type="curve" smooth="yes"/>
      <point x="498.4" y="368.2" type="line" smooth="yes"/>
      <point x="498.4" y="485.8"/>
      <point x="428.2" y="560.0"/>
      <point x="319.4" y="560.0" type="curve" smooth="yes"/>
      <point x="223.8" y="560.0"/>
      <point x="165.4" y="503.4"/>
      <point x="165.4" y="412.0" type="curve"/>
      <point x="191.0" y="451.0" type="line"/>
      <point x="169.6" y="451.0" type="line"/>
      <point x="169.6" y="550.0" type="line"/>
      <point x="103.6" y="550.0" type="line"/>
      <point x="103.6" y="0.0" type="line"/>
      <point x="169.6" y="0.0" type="line"/>
      <point x="169.6" y="356.0" type="line" smooth="yes"/>
      <point x="169.6" y="448.2"/>
      <point x="220.2" y="503.8"/>
      <point x="303.0" y="503.8" type="curve" smooth="yes"/>
      <point x="383.39820000000003" y="503.8"/>
      <point x="432.4" y="450.6"/>
      <point x="432.4" y="360.0" type="curve" smooth="yes"/>
      <point x="432.4" y="15.0" type="line" smooth="yes"/>
      <point x="432.4" y="-68.8"/>
      <point x="378.8" y="-120.2"/>
      <point x="292.8" y="-120.2" type="curve" smooth="yes"/>
      <point x="243.0" y="-120.2" type="line"/>
    </contour>
  </outline>
</glyph>
<glyph name="OE" format="2">
  <advance width="600.0"/>
  <unicode hex="0152"/>
  <outline>
    <contour>
      <point x="195.6" y="-10.0" type="curve" smooth="yes"/>
      <point x="264.6" y="-10.0"/>
      <point x="302.6" y="41.0"/>
      <point x="311.0" y="80.0" type="curve"/>
      <point x="316.0" y="80.0" type="line"/>
      <point x="316.0" y="0.0" type="line"/>
      <point x="571.4" y="0.0" type="line"/>
      <point x="571.4" y="62.8" type="line"/>
      <point x="384.2" y="62.8" type="line"/>
      <point x="384.2" y="345.6" type="line"/>
      <point x="539.8" y="345.6" type="line"/>
      <point x="539.8" y="408.4" type="line"/>
      <point x="384.2" y="408.4" type="line"/>
      <point x="384.2" y="667.2" type="line"/>
      <point x="571.4" y="667.2" type="line"/>
      <point x="571.4" y="730.0" type="line"/>
      <point x="316.0" y="730.0" type="line"/>
      <point x="316.0" y="650.0" type="line"/>
      <point x="311.0" y="650.0" type="line"/>
      <point x="302.6" y="689.0"/>
      <point x="264.6" y="740.0"/>
      <point x="195.6" y="740.0" type="curve" smooth="yes"/>
      <point x="102.6" y="740.0"/>
      <point x="40.0" y="665.2"/>
      <point x="40.0" y="554.2" type="curve" smooth="yes"/>
      <point x="40.0" y="175.8" type="line" smooth="yes"/>
      <point x="40.0" y="64.8"/>
      <point x="102.6" y="-10.0"/>
    </contour>
    <contour>
      <point x="212.2" y="52.0" type="curve" smooth="yes"/>
      <point x="149.6" y="52.0"/>
      <point x="109.0" y="101.2"/>
      <point x="109.0" y="175.8" type="curve" smooth="yes"/>
      <point x="109.0" y="554.2" type="line" smooth="yes"/>
      <point x="109.0" y="628.8"/>
      <point x="149.6" y="678.0"/>
      <point x="212.2" y="678.0" type="curve" smooth="yes"/>
      <point x="274.2" y="678.0"/>
      <point x="316.0" y="630.0"/>
      <point x="316.0" y="554.2" type="curve" smooth="yes"/>
      <point x="316.0" y="175.8" type="line" smooth="yes"/>
      <point x="316.0" y="100.0"/>
      <point x="274.2" y="52.0"/>
    </contour>
  </outline>
</glyph>
<glyph name="oe" format="2">
  <advance width="600.0"/>
  <unicode hex="0153"/>
  <outline>
    <contour>
      <point x="176.4" y="-10.0" type="curve" smooth="yes"/>
      <point x="257.0" y="-10.0"/>
      <point x="294.4" y="37.2"/>
      <point x="299.8" y="73.0" type="curve"/>
      <point x="303.2" y="73.0" type="line"/>
      <point x="308.6" y="37.2"/>
      <point x="345.4" y="-10.0"/>
      <point x="423.6" y="-10.0" type="curve" smooth="yes"/>
      <point x="501.8" y="-10.0"/>
      <point x="558.0" y="42.6"/>
      <point x="567.4" y="125.0" type="curve"/>
      <point x="503.4" y="125.0" type="line"/>
      <point x="498.0" y="78.6"/>
      <point x="463.8" y="47.2"/>
      <point x="417.8" y="47.2" type="curve" smooth="yes"/>
      <point x="367.2" y="47.2"/>
      <point x="333.4" y="85.8"/>
      <point x="333.4" y="144.0" type="curve" smooth="yes"/>
      <point x="333.4" y="256.0" type="line"/>
      <point x="565.0" y="256.0" type="line"/>
      <point x="565.0" y="406.0" type="line" smooth="yes"/>
      <point x="565.0" y="499.8"/>
      <point x="509.6" y="560.0"/>
      <point x="421.8" y="560.0" type="curve" smooth="yes"/>
      <point x="347.2" y="560.0"/>
      <point x="309.8" y="512.2"/>
      <point x="303.2" y="476.4" type="curve"/>
      <point x="300.4" y="476.4" type="line"/>
      <point x="295.0" y="512.2"/>
      <point x="258.2" y="560.0"/>
      <point x="180.0" y="560.0" type="curve" smooth="yes"/>
      <point x="91.6" y="560.0"/>
      <point x="35.0" y="499.2"/>
      <point x="35.0" y="404.8" type="curve" smooth="yes"/>
      <point x="35.0" y="143.4" type="line" smooth="yes"/>
      <point x="35.0" y="49.6"/>
      <point x="89.8" y="-10.0"/>
    </contour>
    <contour>
      <point x="185.8" y="47.2" type="curve" smooth="yes"/>
      <point x="133.8" y="47.2"/>
      <point x="99.6" y="85.2"/>
      <point x="99.6" y="143.4" type="curve" smooth="yes"/>
      <point x="99.6" y="404.8" type="line" smooth="yes"/>
      <point x="99.6" y="464.2"/>
      <point x="133.8" y="502.8"/>
      <point x="185.8" y="502.8" type="curve" smooth="yes"/>
      <point x="236.4" y="502.8"/>
      <point x="269.6" y="464.2"/>
      <point x="269.6" y="406.0" type="curve" smooth="yes"/>
      <point x="269.6" y="144.0" type="line" smooth="yes"/>
      <point x="269.6" y="85.8"/>
      <point x="236.4" y="47.2"/>
    </contour>
    <contour>
      <point x="333.4" y="315.2" type="line"/>
      <point x="333.4" y="406.0" type="line" smooth="yes"/>
      <point x="333.4" y="464.2"/>
      <point x="366.0" y="502.8"/>
      <point x="416.0" y="502.8" type="curve" smooth="yes"/>
      <point x="467.4" y="502.8"/>
      <point x="501.0" y="464.2"/>
      <point x="501.0" y="406.0" type="curve" smooth="yes"/>
      <point x="501.0" y="315.2" type="line"/>
    </contour>
  </outline>
</glyph>
<glyph name="Scedilla" format="2">
  <advance width="600.0"/>
  <unicode hex="015E"/>
  <anchor x="300.0" y="0.0" name="_bottom"/>
  <anchor x="300.0" y="0.0" name="bottom"/>
  <anchor x="300.0" y="730.0" name="top"/>
  <outline>
    <contour>
      <point x="223.0" y="-198.2" type="line"/>
      <point x="305.0" y="-198.2" type="line" smooth="yes"/>
      <point x="369.8" y="-198.2"/>
      <point x="413.0" y="-163.0"/>
      <point x="413.0" y="-118.8" type="curve" smooth="yes"/>
      <point x="413.0" y="-63.8"/>
      <point x="348.0" y="-38.6"/>
      <point x="299.0" y="-34.4" type="curve"/>
      <point x="321.2" y="26.0" type="line"/>
      <point x="273.2" y="26.0" type="line"/>
      <point x="238.2" y="-66.0" type="line"/>
      <point x="307.6" y="-66.0"/>
      <point x="351.0" y="-87.2"/>
      <point x="351.0" y="-115.6" type="curve" smooth="yes"/>
      <point x="351.0" y="-136.0"/>
      <point x="329.8" y="-155.2"/>
      <point x="299.0" y="-155.2" type="curve" smooth="yes"/>
      <point x="223.0" y="-155.2" type="line"/>
    </contour>
    <component base="S"/>
  </outline>
</glyph>
<glyph name="scedilla" format="2">
  <advance width="600.0"/>
  <unicode hex="015F"/>
  <anchor x="310.0" y="0.0" name="_bottom"/>
  <anchor x="300.0" y="0.0" name="bottom"/>
  <anchor x="300.0" y="550.0" name="top"/>
  <outline>
    <contour>
      <point x="218.0" y="-198.2" type="line"/>
      <point x="300.0" y="-198.2" type="line" smooth="yes"/>
      <point x="364.8" y="-198.2"/>
      <point x="408.0" y="-163.0"/>
      <point x="408.0" y="-118.8" type="curve" smooth="yes"/>
      <point x="408.0" y="-63.8"/>
      <point x="343.0" y="-38.6"/>
      <point x="294.0" y="-34.4" type="curve"/>
      <point x="316.2" y="26.0" type="line"/>
      <point x="268.2" y="26.0" type="line"/>
      <point x="233.2" y="-66.0" type="line"/>
      <point x="302.6" y="-66.0"/>
      <point x="346.0" y="-87.2"/>
      <point x="346.0" y="-115.6" type="curve" smooth="yes"/>
      <point x="346.0" y="-136.0"/>
      <point x="324.8" y="-155.2"/>
      <point x="294.0" y="-155.2" type="curve" smooth="yes"/>
      <point x="218.0" y="-155.2" type="line"/>
    </contour>
    <component base="s"/>
  </outline>
</glyph>
<glyph name="Tcedilla" format="2">
  <advance width="600.0"/>
  <unicode hex="0162"/>
  <anchor x="300.0" y="0.0" name="_bottom"/>
  <anchor x="300.0" y="0.0" name="bottom"/>
  <anchor x="300.0" y="365.0" name="center"/>
  <anchor x="300.0" y="730.0" name="top"/>
  <outline>
    <contour>
      <point x="245.0" y="-198.2" type="line"/>
      <point x="327.0" y="-198.2" type="line" smooth="yes"/>
      <point x="391.8" y="-198.2"/>
      <point x="435.0" y="-163.0"/>
      <point x="435.0" y="-118.8" type="curve" smooth="yes"/>
      <point x="435.0" y="-63.8"/>
      <point x="370.0" y="-38.6"/>
      <point x="321.0" y="-34.4" type="curve"/>
      <point x="333.6" y="0.0" type="line"/>
      <point x="295.2" y="26.0" type="line"/>
      <point x="260.2" y="-66.0" type="line"/>
      <point x="329.6" y="-66.0"/>
      <point x="373.0" y="-87.2"/>
      <point x="373.0" y="-115.6" type="curve" smooth="yes"/>
      <point x="373.0" y="-136.0"/>
      <point x="351.8" y="-155.2"/>
      <point x="321.0" y="-155.2" type="curve" smooth="yes"/>
      <point x="245.0" y="-155.2" type="line"/>
    </contour>
    <component base="T"/>
  </outline>
</glyph>
<glyph name="Tbar" format="2">
  <advance width="600.0"/>
  <unicode hex="0166"/>
  <anchor x="300.0" y="0.0" name="bottom"/>
  <anchor x="300.0" y="365.0" name="center"/>
  <anchor x="300.0" y="730.0" name="top"/>
  <outline>
    <contour>
      <point x="116.0" y="304.0" type="line"/>
      <point x="484.0" y="304.0" type="line"/>
      <point x="484.0" y="361.0" type="line"/>
      <point x="116.0" y="361.0" type="line"/>
    </contour>
    <component base="T"/>
  </outline>
</glyph>
<glyph name="tbar" format="2">
  <advance width="600.0"/>
  <unicode hex="0167"/>
  <anchor x="360.0" y="0.0" name="bottom"/>
  <anchor x="300.0" y="275.0" name="center"/>
  <anchor x="300.0" y="705.0" name="top"/>
  <anchor x="580.0" y="550.0" name="topright"/>
  <outline>
    <contour>
      <point x="90.4" y="252.2" type="line"/>
      <point x="469.0" y="252.2" type="line"/>
      <point x="469.0" y="308.0" type="line"/>
      <point x="90.4" y="308.0" type="line"/>
    </contour>
    <component base="t"/>
  </outline>
</glyph>
<glyph name="Uogonek" format="2">
  <advance width="600.0"/>
  <unicode hex="0172"/>
  <anchor x="389.2" y="730.0" name="horn"/>
  <anchor x="300.0" y="730.0" name="top"/>
  <outline>
    <contour>
      <point x="373.0" y="-198.2" type="curve" smooth="yes"/>
      <point x="448.0" y="-198.2" type="line"/>
      <point x="448.0" y="-149.0" type="line"/>
      <point x="385.6" y="-149.0" type="line" smooth="yes"/>
      <point x="352.8" y="-149.0"/>
      <point x="333.0" y="-129.2"/>
      <point x="333.0" y="-99.0" type="curve" smooth="yes"/>
      <point x="333.0" y="-71.0"/>
      <point x="352.2" y="-34.2"/>
      <point x="393.2" y="1.6" type="curve" smooth="yes"/>
      <point x="410.2" y="16.0" type="line"/>
      <point x="468.2" y="51.0"/>
      <point x="499.2" y="111.4"/>
      <point x="499.2" y="194.0" type="curve" smooth="yes"/>
      <point x="499.2" y="730.0" type="line"/>
      <point x="433.2" y="730.0" type="line"/>
      <point x="433.2" y="194.0" type="line" smooth="yes"/>
      <point x="433.2" y="101.4"/>
      <point x="386.4" y="48.8"/>
      <point x="300.0" y="48.8" type="curve" smooth="yes"/>
      <point x="213.6" y="48.8"/>
      <point x="166.8" y="101.4"/>
      <point x="166.8" y="194.0" type="curve" smooth="yes"/>
      <point x="166.8" y="730.0" type="line"/>
      <point x="100.8" y="730.0" type="line"/>
      <point x="100.8" y="194.0" type="line" smooth="yes"/>
      <point x="100.8" y="68.4"/>
      <point x="176.8" y="-10.0"/>
      <point x="300.0" y="-10.0" type="curve" smooth="yes"/>
      <point x="308.2" y="-10.0"/>
      <point x="321.0" y="-9.4"/>
      <point x="329.2" y="-7.6" type="curve"/>
      <point x="292.0" y="-41.4"/>
      <point x="270.8" y="-80.8"/>
      <point x="270.8" y="-113.0" type="curve" smooth="yes"/>
      <point x="270.8" y="-164.6"/>
      <point x="310.4" y="-198.2"/>
    </contour>
  </outline>
</glyph>
<glyph name="uogonek" format="2">
  <advance width="600.0"/>
  <unicode hex="0173"/>
  <anchor x="414.0" y="550.0" name="horn"/>
  <anchor x="300.0" y="550.0" name="top"/>
  <outline>
    <contour>
      <point x="372.6" y="-198.2" type="curve" smooth="yes"/>
      <point x="447.6" y="-198.2" type="line"/>
      <point x="447.6" y="-149.0" type="line"/>
      <point x="385.2" y="-149.0" type="line" smooth="yes"/>
      <point x="352.4" y="-149.0"/>
      <point x="332.6" y="-129.2"/>
      <point x="332.6" y="-99.0" type="curve" smooth="yes"/>
      <point x="332.6" y="-71.0"/>
      <point x="354.0" y="-36.0"/>
      <point x="394.8" y="0.4" type="curve" smooth="yes"/>
      <point x="420.6" y="23.4" type="line"/>
      <point x="472.2" y="57.4"/>
      <point x="499.2" y="116.4"/>
      <point x="499.2" y="194.0" type="curve" smooth="yes"/>
      <point x="499.2" y="550.0" type="line"/>
      <point x="433.2" y="550.0" type="line"/>
      <point x="433.2" y="194.0" type="line" smooth="yes"/>
      <point x="433.2" y="100.6"/>
      <point x="386.4" y="48.400000000000006"/>
      <point x="300.0" y="48.400000000000006" type="curve" smooth="yes"/>
      <point x="213.6" y="48.400000000000006"/>
      <point x="166.8" y="100.6"/>
      <point x="166.8" y="194.0" type="curve" smooth="yes"/>
      <point x="166.8" y="550.0" type="line"/>
      <point x="100.8" y="550.0" type="line"/>
      <point x="100.8" y="194.0" type="line" smooth="yes"/>
      <point x="100.8" y="68.4"/>
      <point x="176.8" y="-10.0"/>
      <point x="300.0" y="-10.0" type="curve" smooth="yes"/>
      <point x="310.8" y="-10.0"/>
      <point x="321.6" y="-9.4"/>
      <point x="331.2" y="-7.6" type="curve"/>
      <point x="287.0" y="-48.6"/>
      <point x="270.4" y="-82.2"/>
      <point x="270.4" y="-113.0" type="curve" smooth="yes"/>
      <point x="270.4" y="-164.6"/>
      <point x="310.0" y="-198.2"/>
    </contour>
  </outline>
</glyph>
<glyph name="longs" format="2">
  <advance width="600.0"/>
  <unicode hex="017F"/>
  <outline>
    <contour>
      <point x="174.0" y="0.0" type="line"/>
      <point x="240.0" y="0.0" type="line"/>
      <point x="240.0" y="585.0" type="line" smooth="yes"/>
      <point x="240.0" y="636.0"/>
      <point x="273.8" y="671.0"/>
      <point x="322.6" y="671.0" type="curve" smooth="yes"/>
      <point x="501.0" y="671.0" type="line"/>
      <point x="501.0" y="730.0" type="line"/>
      <point x="323.2" y="730.0" type="line" smooth="yes"/>
      <point x="233.0" y="730.0"/>
      <point x="174.0" y="673.2"/>
      <point x="174.0" y="585.4" type="curve" smooth="yes"/>
    </contour>
  </outline>
</glyph>
<glyph name="Schwa" format="2">
  <advance width="600.0"/>
  <unicode hex="018F"/>
  <outline>
    <contour>
      <point x="299.4" y="-10.0" type="curve" smooth="yes"/>
      <point x="424.6" y="-10.0"/>
      <point x="501.0" y="70.6"/>
      <point x="501.0" y="194.0" type="curve" smooth="yes"/>
      <point x="501.0" y="536.0" type="line" smooth="yes"/>
      <point x="501.0" y="661.6"/>
      <point x="425.8" y="740.0"/>
      <point x="299.4" y="740.0" type="curve" smooth="yes"/>
      <point x="172.6" y="740.0"/>
      <point x="99.0" y="658.4"/>
      <point x="99.0" y="530.0" type="curve"/>
      <point x="165.0" y="530.0" type="line"/>
      <point x="165.0" y="624.4"/>
      <point x="211.2" y="681.0"/>
      <point x="299.4" y="681.0" type="curve" smooth="yes"/>
      <point x="386.8" y="681.0"/>
      <point x="435.0" y="626.8"/>
      <point x="435.0" y="536.4" type="curve" smooth="yes"/>
      <point x="435.0" y="386.8" type="line"/>
      <point x="99.0" y="386.8" type="line"/>
      <point x="99.0" y="194.0" type="line" smooth="yes"/>
      <point x="99.0" y="70.6"/>
      <point x="174.8" y="-10.0"/>
    </contour>
    <contour>
      <point x="299.4" y="46.400000000000006" type="curve" smooth="yes"/>
      <point x="211.4" y="46.400000000000006"/>
      <point x="165.0" y="101.6"/>
      <point x="165.0" y="194.0" type="curve" smooth="yes"/>
      <point x="165.0" y="341.6" type="line"/>
      <point x="155.6" y="333.0" type="line"/>
      <point x="435.0" y="333.0" type="line"/>
      <point x="435.0" y="194.0" type="line" smooth="yes"/>
      <point x="435.0" y="101.0"/>
      <point x="388.6" y="46.400000000000006"/>
    </contour>
  </outline>
</glyph>
<glyph name="lambdastroke" format="2">
  <advance width="600.0"/>
  <unicode hex="019B"/>
  <outline>
    <contour>
      <point x="90.0" y="489.2" type="line"/>
      <point x="470.0" y="679.2" type="line"/>
      <point x="470.0" y="740.0" type="line"/>
      <point x="90.0" y="550.0" type="line"/>
    </contour>
    <component base="lambda"/>
  </outline>
</glyph>
<glyph name="Ohorn" format="2">
  <advance width="600.0"/>
  <unicode hex="01A0"/>
  <anchor x="290.0" y="730.0" name="top"/>
  <anchor x="300.0" y="0.0" name="bottom"/>
  <anchor x="300.0" y="365.0" name="center"/>
  <anchor x="320.0" y="700.0" name="horn"/>
  <anchor x="353.0" y="0.0" name="ogonek"/>
  <anchor x="20.0" y="730.0" name="topleft"/>
  <anchor x="580.0" y="730.0" name="topright"/>
  <outline>
    <contour>
      <point x="406.0" y="653.0" type="line"/>
      <point x="443.0" y="653.0" type="line" smooth="yes"/>
      <point x="499.2" y="653.0"/>
      <point x="536.0" y="688.2"/>
      <point x="536.0" y="742.0" type="curve" smooth="yes"/>
      <point x="536.0" y="810.0" type="line"/>
      <point x="482.0" y="810.0" type="line"/>
      <point x="482.0" y="744.0" type="line" smooth="yes"/>
      <point x="482.0" y="717.6"/>
      <point x="465.6" y="700.0"/>
      <point x="441.0" y="700.0" type="curve" smooth="yes"/>
      <point x="406.0" y="700.0" type="line"/>
    </contour>
    <component base="O"/>
  </outline>
</glyph>
<glyph name="ohorn" format="2">
  <advance width="600.0"/>
  <unicode hex="01A1"/>
  <anchor x="290.0" y="550.0" name="top"/>
  <anchor x="300.0" y="0.0" name="bottom"/>
  <anchor x="300.0" y="275.0" name="center"/>
  <anchor x="324.8" y="550.0" name="horn"/>
  <anchor x="353.0" y="0.0" name="ogonek"/>
  <anchor x="580.0" y="550.0" name="topright"/>
  <outline>
    <contour>
      <point x="392.4" y="483.0" type="line"/>
      <point x="429.0" y="483.0" type="line" smooth="yes"/>
      <point x="484.8" y="483.0"/>
      <point x="522.0" y="518.6"/>
      <point x="522.0" y="572.0" type="curve" smooth="yes"/>
      <point x="522.0" y="640.0" type="line"/>
      <point x="468.0" y="640.0" type="line"/>
      <point x="468.0" y="574.0" type="line" smooth="yes"/>
      <point x="468.0" y="546.8"/>
      <point x="452.4" y="530.0"/>
      <point x="427.0" y="530.0" type="curve" smooth="yes"/>
      <point x="392.4" y="530.0" type="line"/>
    </contour>
    <component base="o"/>
  </outline>
</glyph>
<glyph name="Uhorn" format="2">
  <advance width="600.0"/>
  <unicode hex="01AF"/>
  <anchor x="300.0" y="730.0" name="top"/>
  <anchor x="300.0" y="0.0" name="bottom"/>
  <anchor x="389.2" y="730.0" name="horn"/>
  <anchor x="353.0" y="0.0" name="ogonek"/>
  <anchor x="580.0" y="730.0" name="topright"/>
  <outline>
    <contour>
      <point x="439.2" y="683.0" type="line"/>
      <point x="512.2" y="683.0" type="line" smooth="yes"/>
      <point x="568.4" y="683.0"/>
      <point x="605.2" y="718.2"/>
      <point x="605.2" y="772.0" type="curve" smooth="yes"/>
      <point x="605.2" y="840.0" type="line"/>
      <point x="551.2" y="840.0" type="line"/>
      <point x="551.2" y="774.0" type="line" smooth="yes"/>
      <point x="551.2" y="747.6"/>
      <point x="534.8" y="730.0"/>
      <point x="510.2" y="730.0" type="curve" smooth="yes"/>
      <point x="439.2" y="730.0" type="line"/>
    </contour>
    <component base="U"/>
  </outline>
</glyph>
